<svg width="56" height="60" viewBox="0 0 56 60" fill="none" xmlns="http://www.w3.org/2000/svg">
<path d="M41.5504 1.49048L41.3277 1.25H41H40.9984H40.9963H40.9937H40.9906H40.987H40.983H40.9784H40.9734H40.9679H40.9619H40.9554H40.9484H40.941H40.9331H40.9247H40.9158H40.9065H40.8967H40.8864H40.8757H40.8645H40.8529H40.8408H40.8283H40.8153H40.8018H40.7879H40.7736H40.7588H40.7436H40.7279H40.7118H40.6952H40.6782H40.6608H40.643H40.6247H40.606H40.5869H40.5673H40.5474H40.527H40.5062H40.4849H40.4633H40.4412H40.4188H40.3959H40.3727H40.349H40.3249H40.3004H40.2756H40.2503H40.2246H40.1986H40.1721H40.1453H40.1181H40.0905H40.0625H40.0342H40.0054H39.9763H39.9468H39.917H39.8867H39.8561H39.8252H39.7938H39.7621H39.7301H39.6977H39.6649H39.6318H39.5983H39.5645H39.5303H39.4958H39.4609H39.4257H39.3902H39.3543H39.3181H39.2815H39.2446H39.2074H39.1699H39.132H39.0938H39.0553H39.0164H38.9772H38.9378H38.898H38.8579H38.8174H38.7767H38.7357H38.6943H38.6527H38.6107H38.5685H38.5259H38.4831H38.44H38.3965H38.3528H38.3088H38.2645H38.22H38.1751H38.13H38.0846H38.0389H37.9929H37.9467H37.9002H37.8534H37.8064H37.7591H37.7115H37.6637H37.6156H37.5672H37.5187H37.4698H37.4207H37.3714H37.3218H37.2719H37.2219H37.1715H37.121H37.0702H37.0192H36.9679H36.9164H36.8647H36.8127H36.7606H36.7082H36.6556H36.6027H36.5497H36.4964H36.4429H36.3892H36.3353H36.2812H36.2269H36.1724H36.1177H36.0627H36.0076H35.9523H35.8968H35.8411H35.7852H35.7292H35.6729H35.6165H35.5598H35.503H35.446H35.3889H35.3316H35.274H35.2164H35.1585H35.1005H35.0424H34.984H34.9255H34.8669H34.8081H34.7491H34.69H34.6307H34.5713H34.5117H34.452H34.3922H34.3322H34.2721H34.2118H34.1514H34.0909H34.0302H33.9694H33.9085H33.8475H33.7863H33.725H33.6636H33.6021H33.5404H33.4787H33.4168H33.3549H33.2928H33.2306H33.1683H33.1059H33.0434H32.9809H32.9182H32.8554H32.7925H32.7296H32.6665H32.6034H32.5402H32.4769H32.4135H32.3501H32.2866H32.223H32.1593H32.0955H32.0317H31.9679H31.9039H31.8399H31.7759H31.7117H31.6476H31.5833H31.519H31.4547H31.3903H31.3259H31.2614H31.1969H31.1323H31.0678H31.0031H30.9385H30.8738H30.809H30.7443H30.6795H30.6147H30.5498H30.485H30.4201H30.3552H30.2903H30.2254H30.1605H30.0955H30.0306H29.9656H29.9007H29.8357H29.7708H29.7058H29.6409H29.5759H29.511H29.4461H29.3812H29.3163H29.2514H29.1866H29.1217H29.0569H28.9921H28.9273H28.8626H28.7979H28.7332H28.6686H28.604H28.5394H28.4749H28.4104H28.3459H28.2815H28.2172H28.1529H28.0886H28.0244H27.9603H27.8962H27.8322H27.7682H27.7043H27.6405H27.5768H27.5131H27.4494H27.3859H27.3224H27.259H27.1957H27.1325H27.0693H27.0062H26.9433H26.8804H26.8176H26.7548H26.6922H26.6297H26.5673H26.505H26.4428H26.3806H26.3186H26.2568H26.195H26.1333H26.0717H26.0103H25.949H25.8878H25.8267H25.7657H25.7049H25.6442H25.5836H25.5232H25.4629H25.4027H25.3427H25.2828H25.223H25.1634H25.104H25.0446H24.9855H24.9265H24.8676H24.8089H24.7504H24.692H24.6338H24.5757H24.5178H24.4601H24.4025H24.3451H24.2879H24.2309H24.174H24.1173H24.0608H24.0045H23.9484H23.8925H23.8367H23.7811H23.7258H23.6706H23.6156H23.5608H23.5062H23.4519H23.3977H23.3437H23.29H23.2364H23.1831H23.13H23.0771H23.0244H22.9719H22.9197H22.8676H22.8158H22.7643H22.7129H22.6618H22.611H22.5603H22.51H22.4598H22.4099H22.3602H22.3108H22.2616H22.2127H22.164H22.1156H22.0674H22.0195H21.9719H21.9245H21.8774H21.8305H21.7839H21.7376H21.6916H21.6458H21.6003H21.5551H21.5101H21.4655H21.4211H21.377H21.3332H21.2897H21.2465H21.2035H21.1609H21.1186H21.0765H21.0348H20.9933H20.9522H20.9114H20.8709H20.8306H20.7908H20.7512H20.7119H20.673H20.6343H20.596H20.5581H20.5204H20.4831H20.4461H20.4094H20.3731H20.3371H20.3015H20.2661H20.2312H20.1965H20.1623H20.1283H20.0947H20.0615H20.0286H19.9961H19.9639H19.9321H19.9007H19.8696H19.8389H19.8086H19.7786H19.749H19.7197H19.6909H19.6624H19.6343H19.6066H19.5793H19.5523H19.5257H19.4996H19.4738H19.4484H19.4234H19.3988H19.3746H19.3508H19.3274H19.3044H19.2818H19.2596H19.2379H19.2165H19.1956H19.1751H19.155H19.1353H19.116H19.0972H19.0788H19.0608H19.0432H19.0261H19.0094H18.9932H18.9774H18.962H18.9471H18.9326H18.9186H18.905H18.8918H18.8791H18.8669H18.8551H18.8438H18.8329H18.8225H18.8126H18.8031H18.7941H18.7856H18.7775H18.7699H18.7628H18.7562H18.75H18.7444H18.7392H18.7345H18.7302H18.7265H18.7233H18.7205H18.7183H18.7165H18.7153H18.7145C18.7143 1.25 18.7143 1.25 18.7143 2V1.25C16.5338 1.25 14.497 2.19001 13.0094 3.60544C11.7033 4.84813 10.7815 6.49587 10.578 8.26543L9.13042 8.29728C4.79545 8.30206 1.25 11.9819 1.25 16V51C1.25 53.0444 2.23835 54.9814 3.72368 56.3946C5.21136 57.81 7.24818 58.75 9.42861 58.75H37.2857C39.4661 58.75 41.5029 57.81 42.9906 56.3946C44.2929 55.1555 45.2132 53.5138 45.4202 51.75H46.5714C48.7518 51.75 50.7886 50.8101 52.2763 49.3946C53.7617 47.9815 54.75 46.0444 54.75 44.0001V16.042V15.7482L54.5504 15.5325L41.5504 1.49048ZM9.25222 13.3077H9.26286L9.2735 13.3074L10.5357 13.2716V44.0001C10.5357 46.0444 11.5241 47.9815 13.0094 49.3946C14.497 50.8101 16.5338 51.75 18.7143 51.75H40.1117C39.9656 52.1516 39.7076 52.5417 39.3569 52.8757C38.7912 53.4143 38.0419 53.7501 37.2857 53.7501H9.42861C8.67244 53.7501 7.92305 53.4143 7.35742 52.8757C6.78906 52.3345 6.46435 51.6459 6.46435 51V16C6.46435 14.6344 7.71304 13.3077 9.25222 13.3077ZM49.5357 44.0001C49.5357 44.6457 49.211 45.3343 48.6426 45.8755C48.077 46.4142 47.3276 46.75 46.5714 46.75H18.7143C17.9581 46.75 17.2087 46.4142 16.6431 45.8756C16.0747 45.3344 15.75 44.6458 15.75 44.0001V9.00004C15.75 8.35432 16.0747 7.66571 16.6431 7.12449C17.2087 6.58588 17.9581 6.25006 18.7143 6.25006H36.5308C36.5209 7.95225 36.5213 9.43615 36.5246 10.5355C36.5264 11.1651 36.5292 11.6687 36.5316 12.015C36.5327 12.1882 36.5338 12.3221 36.5345 12.4127L36.5354 12.5159L36.5357 12.5422L36.5357 12.5438C36.5357 12.545 36.5357 12.5462 36.5357 12.5474C36.538 16.6378 40.3879 20.2501 44.7143 20.2501H44.7144H44.7145H44.7146H44.7148H44.7151H44.7154H44.7157H44.7161H44.7165H44.717H44.7175H44.7181H44.7187H44.7193H44.72H44.7208H44.7216H44.7224H44.7233H44.7242H44.7252H44.7262H44.7272H44.7283H44.7295H44.7307H44.7319H44.7332H44.7345H44.7359H44.7373H44.7387H44.7403H44.7418H44.7434H44.745H44.7467H44.7484H44.7502H44.752H44.7539H44.7558H44.7577H44.7597H44.7618H44.7639H44.766H44.7682H44.7704H44.7726H44.7749H44.7773H44.7797H44.7821H44.7846H44.7871H44.7897H44.7923H44.795H44.7977H44.8004H44.8032H44.806H44.8089H44.8118H44.8148H44.8178H44.8209H44.824H44.8271H44.8303H44.8335H44.8368H44.8401H44.8435H44.8469H44.8504H44.8539H44.8574H44.861H44.8646H44.8683H44.872H44.8758H44.8796H44.8834H44.8873H44.8912H44.8952H44.8992H44.9033H44.9074H44.9116H44.9158H44.92H44.9243H44.9286H44.933H44.9374H44.9419H44.9464H44.9509H44.9555H44.9601H44.9648H44.9695H44.9743H44.9791H44.984H44.9888H44.9938H44.9988H45.0038H45.0089H45.014H45.0191H45.0243H45.0296H45.0348H45.0402H45.0455H45.051H45.0564H45.0619H45.0675H45.073H45.0787H45.0844H45.0901H45.0958H45.1016H45.1075H45.1134H45.1193H45.1253H45.1313H45.1374H45.1435H45.1496H45.1558H45.162H45.1683H45.1746H45.181H45.1874H45.1938H45.2003H45.2069H45.2134H45.2201H45.2267H45.2334H45.2402H45.247H45.2538H45.2607H45.2676H45.2745H45.2816H45.2886H45.2957H45.3028H45.31H45.3172H45.3245H45.3318H45.3391H45.3465H45.3539H45.3614H45.3689H45.3765H45.3841H45.3917H45.3994H45.4071H45.4149H45.4227H45.4306H45.4385H45.4464H45.4544H45.4624H45.4705H45.4786H45.4867H45.4949H45.5032H45.5114H45.5198H45.5281H45.5365H45.545H45.5535H45.562H45.5706H45.5792H45.5878H45.5965H45.6053H45.6141H45.6229H45.6317H45.6407H45.6496H45.6586H45.6676H45.6767H45.6858H45.695H45.7042H45.7134H45.7227H45.7321H45.7414H45.7508H45.7603H45.7698H45.7793H45.7889H45.7985H45.8082H45.8179H45.8276H45.8374H45.8472H45.8571H45.867H45.877H45.887H45.897H45.9071H45.9172H45.9274H45.9376H45.9478H45.9581H45.9684H45.9788H45.9892H45.9997H46.0102H46.0207H46.0313H46.0419H46.0525H46.0632H46.074H46.0848H46.0956H46.1065H46.1174H46.1283H46.1393H46.1503H46.1614H46.1725H46.1837H46.1949H46.2061H46.2174H46.2287H46.24H46.2514H46.2629H46.2744H46.2859H46.2975H46.3091H46.3207H46.3324H46.3441H46.3559H46.3677H46.3796H46.3914H46.4034H46.4154H46.4274H46.4394H46.4515H46.4637H46.4758H46.488H46.5003H46.5126H46.5249H46.5373H46.5498H46.5622H46.5747H46.5873H46.5998H46.6125H46.6251H46.6378H46.6506H46.6634H46.6762H46.6891H46.702H46.7149H46.7279H46.7409H46.754H46.7671H46.7803H46.7935H46.8067H46.82H46.8333H46.8466H46.86H46.8735H46.8869H46.9005H46.914H46.9276H46.9412H46.9549H46.9686H46.9824H46.9962H47.01H47.0239H47.0378H47.0518H47.0658H47.0798H47.0939H47.108H47.1221H47.1363H47.1506H47.1649H47.1792H47.1935H47.2079H47.2224H47.2368H47.2514H47.2659H47.2805H47.2951H47.3098H47.3245H47.3393H47.3541H47.3689H47.3838H47.3987H47.4137H47.4286H47.4437H47.4587H47.4739H47.489H47.5042H47.5194H47.5347H47.55H47.5654H47.5808H47.5962H47.6116H47.6272H47.6427H47.6583H47.6739H47.6896H47.7053H47.721H47.7368H47.7526H47.7685H47.7844H47.8003H47.8163H47.8323H47.8484H47.8645H47.8806H47.8968H47.913H47.9293H47.9456H47.9619H47.9783H47.9947H48.0111H48.0276H48.0442H48.0607H48.0773H48.094H48.1107H48.1274H48.1442H48.161H48.1778H48.1947H48.2116H48.2286H48.2456H48.2626H48.2797H48.2968H48.3139H48.3311H48.3484H48.3656H48.3829H48.4003H48.4177H48.4351H48.4525H48.47H48.4876H48.5052H48.5228H48.5404H48.5581H48.5759H48.5936H48.6114H48.6293H48.6472H48.6651H48.6831H48.7011H48.7191H48.7372H48.7553H48.7735H48.7917H48.8099H48.8282H48.8465H48.8648H48.8832H48.9016H48.9201H48.9386H48.9571H48.9757H48.9943H49.013H49.0317H49.0504H49.0692H49.088H49.1068H49.1257H49.1446H49.1636H49.1826H49.2016H49.2207H49.2398H49.259H49.2782H49.2974H49.3167H49.336H49.3553H49.3747H49.3941H49.4136H49.433H49.4526H49.4721H49.4918H49.5114H49.5311H49.5357V44.0001ZM44.7143 15.25C44.4395 15.25 44.1189 15.132 43.7624 14.8524C43.4069 14.5735 43.0581 14.1655 42.7487 13.678C42.1177 12.6836 41.75 11.5215 41.75 10.7973V10.7972V10.7971V10.7969V10.7967V10.7965V10.7962V10.7959V10.7956V10.7952V10.7947V10.7942V10.7937V10.7931V10.7925V10.7919V10.7912V10.7905V10.7897V10.7889V10.788V10.7871V10.7861V10.7852V10.7841V10.7831V10.782V10.7808V10.7796V10.7784V10.7771V10.7758V10.7744V10.773V10.7715V10.7701V10.7685V10.767V10.7653V10.7637V10.762V10.7603V10.7585V10.7567V10.7548V10.7529V10.7509V10.749V10.7469V10.7449V10.7427V10.7406V10.7384V10.7362V10.7339V10.7316V10.7292V10.7268V10.7244V10.7219V10.7193V10.7168V10.7142V10.7115V10.7088V10.7061V10.7033V10.7005V10.6976V10.6947V10.6918V10.6888V10.6858V10.6827V10.6796V10.6765V10.6733V10.6701V10.6668V10.6635V10.6601V10.6568V10.6533V10.6498V10.6463V10.6428V10.6392V10.6355V10.6319V10.6281V10.6244V10.6206V10.6167V10.6128V10.6089V10.6049V10.6009V10.5969V10.5928V10.5887V10.5845V10.5803V10.576V10.5717V10.5674V10.563V10.5586V10.5542V10.5497V10.5451V10.5405V10.5359V10.5313V10.5265V10.5218V10.517V10.5122V10.5073V10.5024V10.4975V10.4925V10.4875V10.4824V10.4773V10.4721V10.467V10.4617V10.4565V10.4511V10.4458V10.4404V10.435V10.4295V10.424V10.4184V10.4128V10.4072V10.4015V10.3958V10.39V10.3842V10.3784V10.3725V10.3666V10.3607V10.3547V10.3486V10.3425V10.3364V10.3303V10.3241V10.3178V10.3115V10.3052V10.2989V10.2925V10.286V10.2795V10.273V10.2665V10.2599V10.2532V10.2465V10.2398V10.233V10.2262V10.2194V10.2125V10.2056V10.1986V10.1916V10.1846V10.1775V10.1704V10.1632V10.156V10.1488V10.1415V10.1342V10.1268V10.1194V10.112V10.1045V10.097V10.0894V10.0818V10.0742V10.0665V10.0588V10.051V10.0432V10.0354V10.0275V10.0196V10.0116V10.0036V9.99556V9.98748V9.97937V9.97121V9.96301V9.95477V9.9465V9.93818V9.92983V9.92143V9.913V9.90452V9.89601V9.88746V9.87886V9.87023V9.86156V9.85285V9.8441V9.83531V9.82648V9.81761V9.8087V9.79976V9.79077V9.78174V9.77268V9.76357V9.75443V9.74524V9.73602V9.72676V9.71746V9.70812V9.69874V9.68932V9.67986V9.67036V9.66082V9.65125V9.64163V9.63198V9.62228V9.61255V9.60278V9.59297V9.58312V9.57323V9.5633V9.55333V9.54332V9.53328V9.52319V9.51307V9.50291V9.49271V9.48246V9.47219V9.46187V9.45151V9.44111V9.43068V9.4202V9.40969V9.39914V9.38855V9.37792V9.36725V9.35654V9.34579V9.33501V9.32419V9.31332V9.30242V9.29148V9.2805V9.26948V9.25843V9.24733V9.2362V9.22503V9.21382V9.20257V9.19128V9.17995V9.16858V9.15718V9.14574V9.13426V9.12274V9.11118V9.09958V9.08794V9.07627V9.06456V9.05281V9.04102V9.02919V9.01732V9.00542V8.99347V8.98149V8.96947V8.95741V8.94532V8.93318V8.92101V8.90879V8.89654V8.88425V8.87193V8.85956V8.84716V8.83472V8.82224V8.80972V8.79716V8.78457V8.77193V8.75926V8.74655V8.7338V8.72102V8.70819V8.69533V8.68243V8.66949V8.65652V8.6435V8.63045V8.61736V8.60423V8.59106V8.57786V8.56462V8.55134V8.53802V8.52466V8.51127V8.49783V8.48436V8.47085V8.45731V8.44372V8.4301V8.41644V8.40274V8.38901V8.37524V8.36142V8.34757V8.33369V8.31976V8.3058V8.2918V8.27776V8.26369V8.24957V8.23542V8.22123V8.20701V8.19274V8.17844V8.1641V8.14972V8.13531V8.12086V8.10637V8.09184V8.07727V8.06267V8.04803V8.03335V8.01864V8.00389V7.9891V7.97427V7.9594V7.9445V7.92956V7.91458V7.89957V7.88452V7.86943V7.8543V7.83914V7.82393V7.80869V7.79342V7.7781V7.76275V7.74736V7.73194V7.71648V7.70098V7.68544V7.66986V7.65425V7.6386V7.62292V7.60719V7.59143V7.57563V7.5598V7.54393V7.52802V7.52379L48.6159 15.25H44.7143ZM41 25.7816H24.2857C22.89 25.7816 21.6786 26.8573 21.6786 28.2798C21.6786 29.7023 22.89 30.778 24.2857 30.778H41C42.3957 30.778 43.6071 29.7022 43.6071 28.2798C43.6071 26.8573 42.3957 25.7816 41 25.7816ZM41 34.5228H24.2857C22.89 34.5228 21.6786 35.5985 21.6786 37.0209C21.6786 38.4435 22.89 39.5192 24.2857 39.5192H41C42.3957 39.5192 43.6071 38.4435 43.6071 37.0209C43.6071 35.5985 42.3957 34.5228 41 34.5228Z" fill="#FBFBED"/>
<path d="M41.5504 1.49048L41.3277 1.25H41H40.9984H40.9963H40.9937H40.9906H40.987H40.983H40.9784H40.9734H40.9679H40.9619H40.9554H40.9484H40.941H40.9331H40.9247H40.9158H40.9065H40.8967H40.8864H40.8757H40.8645H40.8529H40.8408H40.8283H40.8153H40.8018H40.7879H40.7736H40.7588H40.7436H40.7279H40.7118H40.6952H40.6782H40.6608H40.643H40.6247H40.606H40.5869H40.5673H40.5474H40.527H40.5062H40.4849H40.4633H40.4412H40.4188H40.3959H40.3727H40.349H40.3249H40.3004H40.2756H40.2503H40.2246H40.1986H40.1721H40.1453H40.1181H40.0905H40.0625H40.0342H40.0054H39.9763H39.9468H39.917H39.8867H39.8561H39.8252H39.7938H39.7621H39.7301H39.6977H39.6649H39.6318H39.5983H39.5645H39.5303H39.4958H39.4609H39.4257H39.3902H39.3543H39.3181H39.2815H39.2446H39.2074H39.1699H39.132H39.0938H39.0553H39.0164H38.9772H38.9378H38.898H38.8579H38.8174H38.7767H38.7357H38.6943H38.6527H38.6107H38.5685H38.5259H38.4831H38.44H38.3965H38.3528H38.3088H38.2645H38.22H38.1751H38.13H38.0846H38.0389H37.9929H37.9467H37.9002H37.8534H37.8064H37.7591H37.7115H37.6637H37.6156H37.5672H37.5187H37.4698H37.4207H37.3714H37.3218H37.2719H37.2219H37.1715H37.121H37.0702H37.0192H36.9679H36.9164H36.8647H36.8127H36.7606H36.7082H36.6556H36.6027H36.5497H36.4964H36.4429H36.3892H36.3353H36.2812H36.2269H36.1724H36.1177H36.0627H36.0076H35.9523H35.8968H35.8411H35.7852H35.7292H35.6729H35.6165H35.5598H35.503H35.446H35.3889H35.3316H35.274H35.2164H35.1585H35.1005H35.0424H34.984H34.9255H34.8669H34.8081H34.7491H34.69H34.6307H34.5713H34.5117H34.452H34.3922H34.3322H34.2721H34.2118H34.1514H34.0909H34.0302H33.9694H33.9085H33.8475H33.7863H33.725H33.6636H33.6021H33.5404H33.4787H33.4168H33.3549H33.2928H33.2306H33.1683H33.1059H33.0434H32.9809H32.9182H32.8554H32.7925H32.7296H32.6665H32.6034H32.5402H32.4769H32.4135H32.3501H32.2866H32.223H32.1593H32.0955H32.0317H31.9679H31.9039H31.8399H31.7759H31.7117H31.6476H31.5833H31.519H31.4547H31.3903H31.3259H31.2614H31.1969H31.1323H31.0678H31.0031H30.9385H30.8738H30.809H30.7443H30.6795H30.6147H30.5498H30.485H30.4201H30.3552H30.2903H30.2254H30.1605H30.0955H30.0306H29.9656H29.9007H29.8357H29.7708H29.7058H29.6409H29.5759H29.511H29.4461H29.3812H29.3163H29.2514H29.1866H29.1217H29.0569H28.9921H28.9273H28.8626H28.7979H28.7332H28.6686H28.604H28.5394H28.4749H28.4104H28.3459H28.2815H28.2172H28.1529H28.0886H28.0244H27.9603H27.8962H27.8322H27.7682H27.7043H27.6405H27.5768H27.5131H27.4494H27.3859H27.3224H27.259H27.1957H27.1325H27.0693H27.0062H26.9433H26.8804H26.8176H26.7548H26.6922H26.6297H26.5673H26.505H26.4428H26.3806H26.3186H26.2568H26.195H26.1333H26.0717H26.0103H25.949H25.8878H25.8267H25.7657H25.7049H25.6442H25.5836H25.5232H25.4629H25.4027H25.3427H25.2828H25.223H25.1634H25.104H25.0446H24.9855H24.9265H24.8676H24.8089H24.7504H24.692H24.6338H24.5757H24.5178H24.4601H24.4025H24.3451H24.2879H24.2309H24.174H24.1173H24.0608H24.0045H23.9484H23.8925H23.8367H23.7811H23.7258H23.6706H23.6156H23.5608H23.5062H23.4519H23.3977H23.3437H23.29H23.2364H23.1831H23.13H23.0771H23.0244H22.9719H22.9197H22.8676H22.8158H22.7643H22.7129H22.6618H22.611H22.5603H22.51H22.4598H22.4099H22.3602H22.3108H22.2616H22.2127H22.164H22.1156H22.0674H22.0195H21.9719H21.9245H21.8774H21.8305H21.7839H21.7376H21.6916H21.6458H21.6003H21.5551H21.5101H21.4655H21.4211H21.377H21.3332H21.2897H21.2465H21.2035H21.1609H21.1186H21.0765H21.0348H20.9933H20.9522H20.9114H20.8709H20.8306H20.7908H20.7512H20.7119H20.673H20.6343H20.596H20.5581H20.5204H20.4831H20.4461H20.4094H20.3731H20.3371H20.3015H20.2661H20.2312H20.1965H20.1623H20.1283H20.0947H20.0615H20.0286H19.9961H19.9639H19.9321H19.9007H19.8696H19.8389H19.8086H19.7786H19.749H19.7197H19.6909H19.6624H19.6343H19.6066H19.5793H19.5523H19.5257H19.4996H19.4738H19.4484H19.4234H19.3988H19.3746H19.3508H19.3274H19.3044H19.2818H19.2596H19.2379H19.2165H19.1956H19.1751H19.155H19.1353H19.116H19.0972H19.0788H19.0608H19.0432H19.0261H19.0094H18.9932H18.9774H18.962H18.9471H18.9326H18.9186H18.905H18.8918H18.8791H18.8669H18.8551H18.8438H18.8329H18.8225H18.8126H18.8031H18.7941H18.7856H18.7775H18.7699H18.7628H18.7562H18.75H18.7444H18.7392H18.7345H18.7302H18.7265H18.7233H18.7205H18.7183H18.7165H18.7153H18.7145C18.7143 1.25 18.7143 1.25 18.7143 2V1.25C16.5338 1.25 14.497 2.19001 13.0094 3.60544C11.7033 4.84813 10.7815 6.49587 10.578 8.26543L9.13042 8.29728C4.79545 8.30206 1.25 11.9819 1.25 16V51C1.25 53.0444 2.23835 54.9814 3.72368 56.3946C5.21136 57.81 7.24818 58.75 9.42861 58.75H37.2857C39.4661 58.75 41.5029 57.81 42.9906 56.3946C44.2929 55.1555 45.2132 53.5138 45.4202 51.75H46.5714C48.7518 51.75 50.7886 50.8101 52.2763 49.3946C53.7617 47.9815 54.75 46.0444 54.75 44.0001V16.042V15.7482L54.5504 15.5325L41.5504 1.49048ZM9.25222 13.3077H9.26286L9.2735 13.3074L10.5357 13.2716V44.0001C10.5357 46.0444 11.5241 47.9815 13.0094 49.3946C14.497 50.8101 16.5338 51.75 18.7143 51.75H40.1117C39.9656 52.1516 39.7076 52.5417 39.3569 52.8757C38.7912 53.4143 38.0419 53.7501 37.2857 53.7501H9.42861C8.67244 53.7501 7.92305 53.4143 7.35742 52.8757C6.78906 52.3345 6.46435 51.6459 6.46435 51V16C6.46435 14.6344 7.71304 13.3077 9.25222 13.3077ZM49.5357 44.0001C49.5357 44.6457 49.211 45.3343 48.6426 45.8755C48.077 46.4142 47.3276 46.75 46.5714 46.75H18.7143C17.9581 46.75 17.2087 46.4142 16.6431 45.8756C16.0747 45.3344 15.75 44.6458 15.75 44.0001V9.00004C15.75 8.35432 16.0747 7.66571 16.6431 7.12449C17.2087 6.58588 17.9581 6.25006 18.7143 6.25006H36.5308C36.5209 7.95225 36.5213 9.43615 36.5246 10.5355C36.5264 11.1651 36.5292 11.6687 36.5316 12.015C36.5327 12.1882 36.5338 12.3221 36.5345 12.4127L36.5354 12.5159L36.5357 12.5422L36.5357 12.5438C36.5357 12.545 36.5357 12.5462 36.5357 12.5474C36.538 16.6378 40.3879 20.2501 44.7143 20.2501H44.7144H44.7145H44.7146H44.7148H44.7151H44.7154H44.7157H44.7161H44.7165H44.717H44.7175H44.7181H44.7187H44.7193H44.72H44.7208H44.7216H44.7224H44.7233H44.7242H44.7252H44.7262H44.7272H44.7283H44.7295H44.7307H44.7319H44.7332H44.7345H44.7359H44.7373H44.7387H44.7403H44.7418H44.7434H44.745H44.7467H44.7484H44.7502H44.752H44.7539H44.7558H44.7577H44.7597H44.7618H44.7639H44.766H44.7682H44.7704H44.7726H44.7749H44.7773H44.7797H44.7821H44.7846H44.7871H44.7897H44.7923H44.795H44.7977H44.8004H44.8032H44.806H44.8089H44.8118H44.8148H44.8178H44.8209H44.824H44.8271H44.8303H44.8335H44.8368H44.8401H44.8435H44.8469H44.8504H44.8539H44.8574H44.861H44.8646H44.8683H44.872H44.8758H44.8796H44.8834H44.8873H44.8912H44.8952H44.8992H44.9033H44.9074H44.9116H44.9158H44.92H44.9243H44.9286H44.933H44.9374H44.9419H44.9464H44.9509H44.9555H44.9601H44.9648H44.9695H44.9743H44.9791H44.984H44.9888H44.9938H44.9988H45.0038H45.0089H45.014H45.0191H45.0243H45.0296H45.0348H45.0402H45.0455H45.051H45.0564H45.0619H45.0675H45.073H45.0787H45.0844H45.0901H45.0958H45.1016H45.1075H45.1134H45.1193H45.1253H45.1313H45.1374H45.1435H45.1496H45.1558H45.162H45.1683H45.1746H45.181H45.1874H45.1938H45.2003H45.2069H45.2134H45.2201H45.2267H45.2334H45.2402H45.247H45.2538H45.2607H45.2676H45.2745H45.2816H45.2886H45.2957H45.3028H45.31H45.3172H45.3245H45.3318H45.3391H45.3465H45.3539H45.3614H45.3689H45.3765H45.3841H45.3917H45.3994H45.4071H45.4149H45.4227H45.4306H45.4385H45.4464H45.4544H45.4624H45.4705H45.4786H45.4867H45.4949H45.5032H45.5114H45.5198H45.5281H45.5365H45.545H45.5535H45.562H45.5706H45.5792H45.5878H45.5965H45.6053H45.6141H45.6229H45.6317H45.6407H45.6496H45.6586H45.6676H45.6767H45.6858H45.695H45.7042H45.7134H45.7227H45.7321H45.7414H45.7508H45.7603H45.7698H45.7793H45.7889H45.7985H45.8082H45.8179H45.8276H45.8374H45.8472H45.8571H45.867H45.877H45.887H45.897H45.9071H45.9172H45.9274H45.9376H45.9478H45.9581H45.9684H45.9788H45.9892H45.9997H46.0102H46.0207H46.0313H46.0419H46.0525H46.0632H46.074H46.0848H46.0956H46.1065H46.1174H46.1283H46.1393H46.1503H46.1614H46.1725H46.1837H46.1949H46.2061H46.2174H46.2287H46.24H46.2514H46.2629H46.2744H46.2859H46.2975H46.3091H46.3207H46.3324H46.3441H46.3559H46.3677H46.3796H46.3914H46.4034H46.4154H46.4274H46.4394H46.4515H46.4637H46.4758H46.488H46.5003H46.5126H46.5249H46.5373H46.5498H46.5622H46.5747H46.5873H46.5998H46.6125H46.6251H46.6378H46.6506H46.6634H46.6762H46.6891H46.702H46.7149H46.7279H46.7409H46.754H46.7671H46.7803H46.7935H46.8067H46.82H46.8333H46.8466H46.86H46.8735H46.8869H46.9005H46.914H46.9276H46.9412H46.9549H46.9686H46.9824H46.9962H47.01H47.0239H47.0378H47.0518H47.0658H47.0798H47.0939H47.108H47.1221H47.1363H47.1506H47.1649H47.1792H47.1935H47.2079H47.2224H47.2368H47.2514H47.2659H47.2805H47.2951H47.3098H47.3245H47.3393H47.3541H47.3689H47.3838H47.3987H47.4137H47.4286H47.4437H47.4587H47.4739H47.489H47.5042H47.5194H47.5347H47.55H47.5654H47.5808H47.5962H47.6116H47.6272H47.6427H47.6583H47.6739H47.6896H47.7053H47.721H47.7368H47.7526H47.7685H47.7844H47.8003H47.8163H47.8323H47.8484H47.8645H47.8806H47.8968H47.913H47.9293H47.9456H47.9619H47.9783H47.9947H48.0111H48.0276H48.0442H48.0607H48.0773H48.094H48.1107H48.1274H48.1442H48.161H48.1778H48.1947H48.2116H48.2286H48.2456H48.2626H48.2797H48.2968H48.3139H48.3311H48.3484H48.3656H48.3829H48.4003H48.4177H48.4351H48.4525H48.47H48.4876H48.5052H48.5228H48.5404H48.5581H48.5759H48.5936H48.6114H48.6293H48.6472H48.6651H48.6831H48.7011H48.7191H48.7372H48.7553H48.7735H48.7917H48.8099H48.8282H48.8465H48.8648H48.8832H48.9016H48.9201H48.9386H48.9571H48.9757H48.9943H49.013H49.0317H49.0504H49.0692H49.088H49.1068H49.1257H49.1446H49.1636H49.1826H49.2016H49.2207H49.2398H49.259H49.2782H49.2974H49.3167H49.336H49.3553H49.3747H49.3941H49.4136H49.433H49.4526H49.4721H49.4918H49.5114H49.5311H49.5357V44.0001ZM44.7143 15.25C44.4395 15.25 44.1189 15.132 43.7624 14.8524C43.4069 14.5735 43.0581 14.1655 42.7487 13.678C42.1177 12.6836 41.75 11.5215 41.75 10.7973V10.7972V10.7971V10.7969V10.7967V10.7965V10.7962V10.7959V10.7956V10.7952V10.7947V10.7942V10.7937V10.7931V10.7925V10.7919V10.7912V10.7905V10.7897V10.7889V10.788V10.7871V10.7861V10.7852V10.7841V10.7831V10.782V10.7808V10.7796V10.7784V10.7771V10.7758V10.7744V10.773V10.7715V10.7701V10.7685V10.767V10.7653V10.7637V10.762V10.7603V10.7585V10.7567V10.7548V10.7529V10.7509V10.749V10.7469V10.7449V10.7427V10.7406V10.7384V10.7362V10.7339V10.7316V10.7292V10.7268V10.7244V10.7219V10.7193V10.7168V10.7142V10.7115V10.7088V10.7061V10.7033V10.7005V10.6976V10.6947V10.6918V10.6888V10.6858V10.6827V10.6796V10.6765V10.6733V10.6701V10.6668V10.6635V10.6601V10.6568V10.6533V10.6498V10.6463V10.6428V10.6392V10.6355V10.6319V10.6281V10.6244V10.6206V10.6167V10.6128V10.6089V10.6049V10.6009V10.5969V10.5928V10.5887V10.5845V10.5803V10.576V10.5717V10.5674V10.563V10.5586V10.5542V10.5497V10.5451V10.5405V10.5359V10.5313V10.5265V10.5218V10.517V10.5122V10.5073V10.5024V10.4975V10.4925V10.4875V10.4824V10.4773V10.4721V10.467V10.4617V10.4565V10.4511V10.4458V10.4404V10.435V10.4295V10.424V10.4184V10.4128V10.4072V10.4015V10.3958V10.39V10.3842V10.3784V10.3725V10.3666V10.3607V10.3547V10.3486V10.3425V10.3364V10.3303V10.3241V10.3178V10.3115V10.3052V10.2989V10.2925V10.286V10.2795V10.273V10.2665V10.2599V10.2532V10.2465V10.2398V10.233V10.2262V10.2194V10.2125V10.2056V10.1986V10.1916V10.1846V10.1775V10.1704V10.1632V10.156V10.1488V10.1415V10.1342V10.1268V10.1194V10.112V10.1045V10.097V10.0894V10.0818V10.0742V10.0665V10.0588V10.051V10.0432V10.0354V10.0275V10.0196V10.0116V10.0036V9.99556V9.98748V9.97937V9.97121V9.96301V9.95477V9.9465V9.93818V9.92983V9.92143V9.913V9.90452V9.89601V9.88746V9.87886V9.87023V9.86156V9.85285V9.8441V9.83531V9.82648V9.81761V9.8087V9.79976V9.79077V9.78174V9.77268V9.76357V9.75443V9.74524V9.73602V9.72676V9.71746V9.70812V9.69874V9.68932V9.67986V9.67036V9.66082V9.65125V9.64163V9.63198V9.62228V9.61255V9.60278V9.59297V9.58312V9.57323V9.5633V9.55333V9.54332V9.53328V9.52319V9.51307V9.50291V9.49271V9.48246V9.47219V9.46187V9.45151V9.44111V9.43068V9.4202V9.40969V9.39914V9.38855V9.37792V9.36725V9.35654V9.34579V9.33501V9.32419V9.31332V9.30242V9.29148V9.2805V9.26948V9.25843V9.24733V9.2362V9.22503V9.21382V9.20257V9.19128V9.17995V9.16858V9.15718V9.14574V9.13426V9.12274V9.11118V9.09958V9.08794V9.07627V9.06456V9.05281V9.04102V9.02919V9.01732V9.00542V8.99347V8.98149V8.96947V8.95741V8.94532V8.93318V8.92101V8.90879V8.89654V8.88425V8.87193V8.85956V8.84716V8.83472V8.82224V8.80972V8.79716V8.78457V8.77193V8.75926V8.74655V8.7338V8.72102V8.70819V8.69533V8.68243V8.66949V8.65652V8.6435V8.63045V8.61736V8.60423V8.59106V8.57786V8.56462V8.55134V8.53802V8.52466V8.51127V8.49783V8.48436V8.47085V8.45731V8.44372V8.4301V8.41644V8.40274V8.38901V8.37524V8.36142V8.34757V8.33369V8.31976V8.3058V8.2918V8.27776V8.26369V8.24957V8.23542V8.22123V8.20701V8.19274V8.17844V8.1641V8.14972V8.13531V8.12086V8.10637V8.09184V8.07727V8.06267V8.04803V8.03335V8.01864V8.00389V7.9891V7.97427V7.9594V7.9445V7.92956V7.91458V7.89957V7.88452V7.86943V7.8543V7.83914V7.82393V7.80869V7.79342V7.7781V7.76275V7.74736V7.73194V7.71648V7.70098V7.68544V7.66986V7.65425V7.6386V7.62292V7.60719V7.59143V7.57563V7.5598V7.54393V7.52802V7.52379L48.6159 15.25H44.7143ZM41 25.7816H24.2857C22.89 25.7816 21.6786 26.8573 21.6786 28.2798C21.6786 29.7023 22.89 30.778 24.2857 30.778H41C42.3957 30.778 43.6071 29.7022 43.6071 28.2798C43.6071 26.8573 42.3957 25.7816 41 25.7816ZM41 34.5228H24.2857C22.89 34.5228 21.6786 35.5985 21.6786 37.0209C21.6786 38.4435 22.89 39.5192 24.2857 39.5192H41C42.3957 39.5192 43.6071 38.4435 43.6071 37.0209C43.6071 35.5985 42.3957 34.5228 41 34.5228Z" fill="url(#paint0_linear)"/>
<path d="M41.5504 1.49048L41.3277 1.25H41H40.9984H40.9963H40.9937H40.9906H40.987H40.983H40.9784H40.9734H40.9679H40.9619H40.9554H40.9484H40.941H40.9331H40.9247H40.9158H40.9065H40.8967H40.8864H40.8757H40.8645H40.8529H40.8408H40.8283H40.8153H40.8018H40.7879H40.7736H40.7588H40.7436H40.7279H40.7118H40.6952H40.6782H40.6608H40.643H40.6247H40.606H40.5869H40.5673H40.5474H40.527H40.5062H40.4849H40.4633H40.4412H40.4188H40.3959H40.3727H40.349H40.3249H40.3004H40.2756H40.2503H40.2246H40.1986H40.1721H40.1453H40.1181H40.0905H40.0625H40.0342H40.0054H39.9763H39.9468H39.917H39.8867H39.8561H39.8252H39.7938H39.7621H39.7301H39.6977H39.6649H39.6318H39.5983H39.5645H39.5303H39.4958H39.4609H39.4257H39.3902H39.3543H39.3181H39.2815H39.2446H39.2074H39.1699H39.132H39.0938H39.0553H39.0164H38.9772H38.9378H38.898H38.8579H38.8174H38.7767H38.7357H38.6943H38.6527H38.6107H38.5685H38.5259H38.4831H38.44H38.3965H38.3528H38.3088H38.2645H38.22H38.1751H38.13H38.0846H38.0389H37.9929H37.9467H37.9002H37.8534H37.8064H37.7591H37.7115H37.6637H37.6156H37.5672H37.5187H37.4698H37.4207H37.3714H37.3218H37.2719H37.2219H37.1715H37.121H37.0702H37.0192H36.9679H36.9164H36.8647H36.8127H36.7606H36.7082H36.6556H36.6027H36.5497H36.4964H36.4429H36.3892H36.3353H36.2812H36.2269H36.1724H36.1177H36.0627H36.0076H35.9523H35.8968H35.8411H35.7852H35.7292H35.6729H35.6165H35.5598H35.503H35.446H35.3889H35.3316H35.274H35.2164H35.1585H35.1005H35.0424H34.984H34.9255H34.8669H34.8081H34.7491H34.69H34.6307H34.5713H34.5117H34.452H34.3922H34.3322H34.2721H34.2118H34.1514H34.0909H34.0302H33.9694H33.9085H33.8475H33.7863H33.725H33.6636H33.6021H33.5404H33.4787H33.4168H33.3549H33.2928H33.2306H33.1683H33.1059H33.0434H32.9809H32.9182H32.8554H32.7925H32.7296H32.6665H32.6034H32.5402H32.4769H32.4135H32.3501H32.2866H32.223H32.1593H32.0955H32.0317H31.9679H31.9039H31.8399H31.7759H31.7117H31.6476H31.5833H31.519H31.4547H31.3903H31.3259H31.2614H31.1969H31.1323H31.0678H31.0031H30.9385H30.8738H30.809H30.7443H30.6795H30.6147H30.5498H30.485H30.4201H30.3552H30.2903H30.2254H30.1605H30.0955H30.0306H29.9656H29.9007H29.8357H29.7708H29.7058H29.6409H29.5759H29.511H29.4461H29.3812H29.3163H29.2514H29.1866H29.1217H29.0569H28.9921H28.9273H28.8626H28.7979H28.7332H28.6686H28.604H28.5394H28.4749H28.4104H28.3459H28.2815H28.2172H28.1529H28.0886H28.0244H27.9603H27.8962H27.8322H27.7682H27.7043H27.6405H27.5768H27.5131H27.4494H27.3859H27.3224H27.259H27.1957H27.1325H27.0693H27.0062H26.9433H26.8804H26.8176H26.7548H26.6922H26.6297H26.5673H26.505H26.4428H26.3806H26.3186H26.2568H26.195H26.1333H26.0717H26.0103H25.949H25.8878H25.8267H25.7657H25.7049H25.6442H25.5836H25.5232H25.4629H25.4027H25.3427H25.2828H25.223H25.1634H25.104H25.0446H24.9855H24.9265H24.8676H24.8089H24.7504H24.692H24.6338H24.5757H24.5178H24.4601H24.4025H24.3451H24.2879H24.2309H24.174H24.1173H24.0608H24.0045H23.9484H23.8925H23.8367H23.7811H23.7258H23.6706H23.6156H23.5608H23.5062H23.4519H23.3977H23.3437H23.29H23.2364H23.1831H23.13H23.0771H23.0244H22.9719H22.9197H22.8676H22.8158H22.7643H22.7129H22.6618H22.611H22.5603H22.51H22.4598H22.4099H22.3602H22.3108H22.2616H22.2127H22.164H22.1156H22.0674H22.0195H21.9719H21.9245H21.8774H21.8305H21.7839H21.7376H21.6916H21.6458H21.6003H21.5551H21.5101H21.4655H21.4211H21.377H21.3332H21.2897H21.2465H21.2035H21.1609H21.1186H21.0765H21.0348H20.9933H20.9522H20.9114H20.8709H20.8306H20.7908H20.7512H20.7119H20.673H20.6343H20.596H20.5581H20.5204H20.4831H20.4461H20.4094H20.3731H20.3371H20.3015H20.2661H20.2312H20.1965H20.1623H20.1283H20.0947H20.0615H20.0286H19.9961H19.9639H19.9321H19.9007H19.8696H19.8389H19.8086H19.7786H19.749H19.7197H19.6909H19.6624H19.6343H19.6066H19.5793H19.5523H19.5257H19.4996H19.4738H19.4484H19.4234H19.3988H19.3746H19.3508H19.3274H19.3044H19.2818H19.2596H19.2379H19.2165H19.1956H19.1751H19.155H19.1353H19.116H19.0972H19.0788H19.0608H19.0432H19.0261H19.0094H18.9932H18.9774H18.962H18.9471H18.9326H18.9186H18.905H18.8918H18.8791H18.8669H18.8551H18.8438H18.8329H18.8225H18.8126H18.8031H18.7941H18.7856H18.7775H18.7699H18.7628H18.7562H18.75H18.7444H18.7392H18.7345H18.7302H18.7265H18.7233H18.7205H18.7183H18.7165H18.7153H18.7145C18.7143 1.25 18.7143 1.25 18.7143 2V1.25C16.5338 1.25 14.497 2.19001 13.0094 3.60544C11.7033 4.84813 10.7815 6.49587 10.578 8.26543L9.13042 8.29728C4.79545 8.30206 1.25 11.9819 1.25 16V51C1.25 53.0444 2.23835 54.9814 3.72368 56.3946C5.21136 57.81 7.24818 58.75 9.42861 58.75H37.2857C39.4661 58.75 41.5029 57.81 42.9906 56.3946C44.2929 55.1555 45.2132 53.5138 45.4202 51.75H46.5714C48.7518 51.75 50.7886 50.8101 52.2763 49.3946C53.7617 47.9815 54.75 46.0444 54.75 44.0001V16.042V15.7482L54.5504 15.5325L41.5504 1.49048ZM9.25222 13.3077H9.26286L9.2735 13.3074L10.5357 13.2716V44.0001C10.5357 46.0444 11.5241 47.9815 13.0094 49.3946C14.497 50.8101 16.5338 51.75 18.7143 51.75H40.1117C39.9656 52.1516 39.7076 52.5417 39.3569 52.8757C38.7912 53.4143 38.0419 53.7501 37.2857 53.7501H9.42861C8.67244 53.7501 7.92305 53.4143 7.35742 52.8757C6.78906 52.3345 6.46435 51.6459 6.46435 51V16C6.46435 14.6344 7.71304 13.3077 9.25222 13.3077ZM49.5357 44.0001C49.5357 44.6457 49.211 45.3343 48.6426 45.8755C48.077 46.4142 47.3276 46.75 46.5714 46.75H18.7143C17.9581 46.75 17.2087 46.4142 16.6431 45.8756C16.0747 45.3344 15.75 44.6458 15.75 44.0001V9.00004C15.75 8.35432 16.0747 7.66571 16.6431 7.12449C17.2087 6.58588 17.9581 6.25006 18.7143 6.25006H36.5308C36.5209 7.95225 36.5213 9.43615 36.5246 10.5355C36.5264 11.1651 36.5292 11.6687 36.5316 12.015C36.5327 12.1882 36.5338 12.3221 36.5345 12.4127L36.5354 12.5159L36.5357 12.5422L36.5357 12.5438C36.5357 12.545 36.5357 12.5462 36.5357 12.5474C36.538 16.6378 40.3879 20.2501 44.7143 20.2501H44.7144H44.7145H44.7146H44.7148H44.7151H44.7154H44.7157H44.7161H44.7165H44.717H44.7175H44.7181H44.7187H44.7193H44.72H44.7208H44.7216H44.7224H44.7233H44.7242H44.7252H44.7262H44.7272H44.7283H44.7295H44.7307H44.7319H44.7332H44.7345H44.7359H44.7373H44.7387H44.7403H44.7418H44.7434H44.745H44.7467H44.7484H44.7502H44.752H44.7539H44.7558H44.7577H44.7597H44.7618H44.7639H44.766H44.7682H44.7704H44.7726H44.7749H44.7773H44.7797H44.7821H44.7846H44.7871H44.7897H44.7923H44.795H44.7977H44.8004H44.8032H44.806H44.8089H44.8118H44.8148H44.8178H44.8209H44.824H44.8271H44.8303H44.8335H44.8368H44.8401H44.8435H44.8469H44.8504H44.8539H44.8574H44.861H44.8646H44.8683H44.872H44.8758H44.8796H44.8834H44.8873H44.8912H44.8952H44.8992H44.9033H44.9074H44.9116H44.9158H44.92H44.9243H44.9286H44.933H44.9374H44.9419H44.9464H44.9509H44.9555H44.9601H44.9648H44.9695H44.9743H44.9791H44.984H44.9888H44.9938H44.9988H45.0038H45.0089H45.014H45.0191H45.0243H45.0296H45.0348H45.0402H45.0455H45.051H45.0564H45.0619H45.0675H45.073H45.0787H45.0844H45.0901H45.0958H45.1016H45.1075H45.1134H45.1193H45.1253H45.1313H45.1374H45.1435H45.1496H45.1558H45.162H45.1683H45.1746H45.181H45.1874H45.1938H45.2003H45.2069H45.2134H45.2201H45.2267H45.2334H45.2402H45.247H45.2538H45.2607H45.2676H45.2745H45.2816H45.2886H45.2957H45.3028H45.31H45.3172H45.3245H45.3318H45.3391H45.3465H45.3539H45.3614H45.3689H45.3765H45.3841H45.3917H45.3994H45.4071H45.4149H45.4227H45.4306H45.4385H45.4464H45.4544H45.4624H45.4705H45.4786H45.4867H45.4949H45.5032H45.5114H45.5198H45.5281H45.5365H45.545H45.5535H45.562H45.5706H45.5792H45.5878H45.5965H45.6053H45.6141H45.6229H45.6317H45.6407H45.6496H45.6586H45.6676H45.6767H45.6858H45.695H45.7042H45.7134H45.7227H45.7321H45.7414H45.7508H45.7603H45.7698H45.7793H45.7889H45.7985H45.8082H45.8179H45.8276H45.8374H45.8472H45.8571H45.867H45.877H45.887H45.897H45.9071H45.9172H45.9274H45.9376H45.9478H45.9581H45.9684H45.9788H45.9892H45.9997H46.0102H46.0207H46.0313H46.0419H46.0525H46.0632H46.074H46.0848H46.0956H46.1065H46.1174H46.1283H46.1393H46.1503H46.1614H46.1725H46.1837H46.1949H46.2061H46.2174H46.2287H46.24H46.2514H46.2629H46.2744H46.2859H46.2975H46.3091H46.3207H46.3324H46.3441H46.3559H46.3677H46.3796H46.3914H46.4034H46.4154H46.4274H46.4394H46.4515H46.4637H46.4758H46.488H46.5003H46.5126H46.5249H46.5373H46.5498H46.5622H46.5747H46.5873H46.5998H46.6125H46.6251H46.6378H46.6506H46.6634H46.6762H46.6891H46.702H46.7149H46.7279H46.7409H46.754H46.7671H46.7803H46.7935H46.8067H46.82H46.8333H46.8466H46.86H46.8735H46.8869H46.9005H46.914H46.9276H46.9412H46.9549H46.9686H46.9824H46.9962H47.01H47.0239H47.0378H47.0518H47.0658H47.0798H47.0939H47.108H47.1221H47.1363H47.1506H47.1649H47.1792H47.1935H47.2079H47.2224H47.2368H47.2514H47.2659H47.2805H47.2951H47.3098H47.3245H47.3393H47.3541H47.3689H47.3838H47.3987H47.4137H47.4286H47.4437H47.4587H47.4739H47.489H47.5042H47.5194H47.5347H47.55H47.5654H47.5808H47.5962H47.6116H47.6272H47.6427H47.6583H47.6739H47.6896H47.7053H47.721H47.7368H47.7526H47.7685H47.7844H47.8003H47.8163H47.8323H47.8484H47.8645H47.8806H47.8968H47.913H47.9293H47.9456H47.9619H47.9783H47.9947H48.0111H48.0276H48.0442H48.0607H48.0773H48.094H48.1107H48.1274H48.1442H48.161H48.1778H48.1947H48.2116H48.2286H48.2456H48.2626H48.2797H48.2968H48.3139H48.3311H48.3484H48.3656H48.3829H48.4003H48.4177H48.4351H48.4525H48.47H48.4876H48.5052H48.5228H48.5404H48.5581H48.5759H48.5936H48.6114H48.6293H48.6472H48.6651H48.6831H48.7011H48.7191H48.7372H48.7553H48.7735H48.7917H48.8099H48.8282H48.8465H48.8648H48.8832H48.9016H48.9201H48.9386H48.9571H48.9757H48.9943H49.013H49.0317H49.0504H49.0692H49.088H49.1068H49.1257H49.1446H49.1636H49.1826H49.2016H49.2207H49.2398H49.259H49.2782H49.2974H49.3167H49.336H49.3553H49.3747H49.3941H49.4136H49.433H49.4526H49.4721H49.4918H49.5114H49.5311H49.5357V44.0001ZM44.7143 15.25C44.4395 15.25 44.1189 15.132 43.7624 14.8524C43.4069 14.5735 43.0581 14.1655 42.7487 13.678C42.1177 12.6836 41.75 11.5215 41.75 10.7973V10.7972V10.7971V10.7969V10.7967V10.7965V10.7962V10.7959V10.7956V10.7952V10.7947V10.7942V10.7937V10.7931V10.7925V10.7919V10.7912V10.7905V10.7897V10.7889V10.788V10.7871V10.7861V10.7852V10.7841V10.7831V10.782V10.7808V10.7796V10.7784V10.7771V10.7758V10.7744V10.773V10.7715V10.7701V10.7685V10.767V10.7653V10.7637V10.762V10.7603V10.7585V10.7567V10.7548V10.7529V10.7509V10.749V10.7469V10.7449V10.7427V10.7406V10.7384V10.7362V10.7339V10.7316V10.7292V10.7268V10.7244V10.7219V10.7193V10.7168V10.7142V10.7115V10.7088V10.7061V10.7033V10.7005V10.6976V10.6947V10.6918V10.6888V10.6858V10.6827V10.6796V10.6765V10.6733V10.6701V10.6668V10.6635V10.6601V10.6568V10.6533V10.6498V10.6463V10.6428V10.6392V10.6355V10.6319V10.6281V10.6244V10.6206V10.6167V10.6128V10.6089V10.6049V10.6009V10.5969V10.5928V10.5887V10.5845V10.5803V10.576V10.5717V10.5674V10.563V10.5586V10.5542V10.5497V10.5451V10.5405V10.5359V10.5313V10.5265V10.5218V10.517V10.5122V10.5073V10.5024V10.4975V10.4925V10.4875V10.4824V10.4773V10.4721V10.467V10.4617V10.4565V10.4511V10.4458V10.4404V10.435V10.4295V10.424V10.4184V10.4128V10.4072V10.4015V10.3958V10.39V10.3842V10.3784V10.3725V10.3666V10.3607V10.3547V10.3486V10.3425V10.3364V10.3303V10.3241V10.3178V10.3115V10.3052V10.2989V10.2925V10.286V10.2795V10.273V10.2665V10.2599V10.2532V10.2465V10.2398V10.233V10.2262V10.2194V10.2125V10.2056V10.1986V10.1916V10.1846V10.1775V10.1704V10.1632V10.156V10.1488V10.1415V10.1342V10.1268V10.1194V10.112V10.1045V10.097V10.0894V10.0818V10.0742V10.0665V10.0588V10.051V10.0432V10.0354V10.0275V10.0196V10.0116V10.0036V9.99556V9.98748V9.97937V9.97121V9.96301V9.95477V9.9465V9.93818V9.92983V9.92143V9.913V9.90452V9.89601V9.88746V9.87886V9.87023V9.86156V9.85285V9.8441V9.83531V9.82648V9.81761V9.8087V9.79976V9.79077V9.78174V9.77268V9.76357V9.75443V9.74524V9.73602V9.72676V9.71746V9.70812V9.69874V9.68932V9.67986V9.67036V9.66082V9.65125V9.64163V9.63198V9.62228V9.61255V9.60278V9.59297V9.58312V9.57323V9.5633V9.55333V9.54332V9.53328V9.52319V9.51307V9.50291V9.49271V9.48246V9.47219V9.46187V9.45151V9.44111V9.43068V9.4202V9.40969V9.39914V9.38855V9.37792V9.36725V9.35654V9.34579V9.33501V9.32419V9.31332V9.30242V9.29148V9.2805V9.26948V9.25843V9.24733V9.2362V9.22503V9.21382V9.20257V9.19128V9.17995V9.16858V9.15718V9.14574V9.13426V9.12274V9.11118V9.09958V9.08794V9.07627V9.06456V9.05281V9.04102V9.02919V9.01732V9.00542V8.99347V8.98149V8.96947V8.95741V8.94532V8.93318V8.92101V8.90879V8.89654V8.88425V8.87193V8.85956V8.84716V8.83472V8.82224V8.80972V8.79716V8.78457V8.77193V8.75926V8.74655V8.7338V8.72102V8.70819V8.69533V8.68243V8.66949V8.65652V8.6435V8.63045V8.61736V8.60423V8.59106V8.57786V8.56462V8.55134V8.53802V8.52466V8.51127V8.49783V8.48436V8.47085V8.45731V8.44372V8.4301V8.41644V8.40274V8.38901V8.37524V8.36142V8.34757V8.33369V8.31976V8.3058V8.2918V8.27776V8.26369V8.24957V8.23542V8.22123V8.20701V8.19274V8.17844V8.1641V8.14972V8.13531V8.12086V8.10637V8.09184V8.07727V8.06267V8.04803V8.03335V8.01864V8.00389V7.9891V7.97427V7.9594V7.9445V7.92956V7.91458V7.89957V7.88452V7.86943V7.8543V7.83914V7.82393V7.80869V7.79342V7.7781V7.76275V7.74736V7.73194V7.71648V7.70098V7.68544V7.66986V7.65425V7.6386V7.62292V7.60719V7.59143V7.57563V7.5598V7.54393V7.52802V7.52379L48.6159 15.25H44.7143ZM41 25.7816H24.2857C22.89 25.7816 21.6786 26.8573 21.6786 28.2798C21.6786 29.7023 22.89 30.778 24.2857 30.778H41C42.3957 30.778 43.6071 29.7022 43.6071 28.2798C43.6071 26.8573 42.3957 25.7816 41 25.7816ZM41 34.5228H24.2857C22.89 34.5228 21.6786 35.5985 21.6786 37.0209C21.6786 38.4435 22.89 39.5192 24.2857 39.5192H41C42.3957 39.5192 43.6071 38.4435 43.6071 37.0209C43.6071 35.5985 42.3957 34.5228 41 34.5228Z" stroke="#CBCBBC" stroke-width="1.5"/>
<defs>
<linearGradient id="paint0_linear" x1="43.6627" y1="2.87721" x2="43.6627" y2="58.8772" gradientUnits="userSpaceOnUse">
<stop stop-color="#F1F1DE"/>
<stop offset="1" stop-color="white" stop-opacity="0"/>
</linearGradient>
</defs>
</svg>
