<svg width="60" height="60" viewBox="0 0 60 60" fill="none" xmlns="http://www.w3.org/2000/svg">
<path d="M58.0091 12.5099L58.0091 12.5099L58.003 12.5037L47.3645 1.85053L46.8345 2.37983L47.3645 1.85053C46.9844 1.46988 46.4066 1.25 45.8488 1.25H41.7467H18.1055H5.72209C3.25148 1.25 1.25 3.26453 1.25 5.72724V54.2728C1.25 56.7443 3.26026 58.75 5.72209 58.75H13.6236H47.3615H54.2779C56.7485 58.75 58.75 56.7354 58.75 54.2728V14.0272V13.9329L58.7267 13.8415C58.6322 13.4717 58.439 12.9505 58.0091 12.5099ZM45.1622 37.7644V54.4386H15.7386V37.7644C15.7386 34.9084 18.0634 32.5818 20.913 32.5818H39.9878C42.8373 32.5818 45.1622 34.9083 45.1622 37.7644ZM39.2278 44.7788H39.2278H21.905C20.7299 44.7788 19.79 45.7216 19.79 46.8957C19.79 48.07 20.7299 49.0126 21.905 49.0126H39.3122C40.4874 49.0126 41.4273 48.07 41.4273 46.8957C41.4273 45.6898 40.4478 44.7789 39.2278 44.7788ZM39.6247 5.56834V16.6239H37.1704V5.56834H39.6247ZM32.7856 5.56834V16.6239H20.2979V5.56834H32.7856ZM54.3653 54.2797C54.3653 54.2798 54.3653 54.2798 54.3653 54.2798C54.3652 54.3059 54.3515 54.3538 54.3126 54.3951C54.2795 54.4302 54.2431 54.4457 54.2006 54.4457H49.4765V37.7644C49.4765 32.5601 45.1875 28.2636 39.9878 28.2636H20.9903C15.7907 28.2636 11.5016 32.5601 11.5016 37.7644V54.4386H5.71504C5.68993 54.4386 5.64253 54.4253 5.6013 54.3863C5.5663 54.3532 5.55035 54.3163 5.55035 54.2727V5.72724C5.55035 5.70115 5.56408 5.65321 5.60303 5.61187C5.6361 5.57678 5.67248 5.56128 5.71504 5.56128H15.9835V17.2893C15.9835 19.3032 17.6142 20.9282 19.6183 20.9282H40.2902C42.3038 20.9282 43.9251 19.2937 43.9251 17.2893V5.56834H44.989L54.3513 14.9436L54.3653 54.2797ZM39.3122 41.7132C40.4874 41.7132 41.4273 40.7704 41.4273 39.5963C41.4273 38.993 41.2049 38.4281 40.786 38.0258C40.3719 37.6282 39.8055 37.4287 39.1937 37.4794H21.905C20.7299 37.4794 19.79 38.4221 19.79 39.5963C19.79 40.7705 20.7299 41.7132 21.905 41.7132H39.3122Z" fill="#FBFBED"/>
<path d="M58.0091 12.5099L58.0091 12.5099L58.003 12.5037L47.3645 1.85053L46.8345 2.37983L47.3645 1.85053C46.9844 1.46988 46.4066 1.25 45.8488 1.25H41.7467H18.1055H5.72209C3.25148 1.25 1.25 3.26453 1.25 5.72724V54.2728C1.25 56.7443 3.26026 58.75 5.72209 58.75H13.6236H47.3615H54.2779C56.7485 58.75 58.75 56.7354 58.75 54.2728V14.0272V13.9329L58.7267 13.8415C58.6322 13.4717 58.439 12.9505 58.0091 12.5099ZM45.1622 37.7644V54.4386H15.7386V37.7644C15.7386 34.9084 18.0634 32.5818 20.913 32.5818H39.9878C42.8373 32.5818 45.1622 34.9083 45.1622 37.7644ZM39.2278 44.7788H39.2278H21.905C20.7299 44.7788 19.79 45.7216 19.79 46.8957C19.79 48.07 20.7299 49.0126 21.905 49.0126H39.3122C40.4874 49.0126 41.4273 48.07 41.4273 46.8957C41.4273 45.6898 40.4478 44.7789 39.2278 44.7788ZM39.6247 5.56834V16.6239H37.1704V5.56834H39.6247ZM32.7856 5.56834V16.6239H20.2979V5.56834H32.7856ZM54.3653 54.2797C54.3653 54.2798 54.3653 54.2798 54.3653 54.2798C54.3652 54.3059 54.3515 54.3538 54.3126 54.3951C54.2795 54.4302 54.2431 54.4457 54.2006 54.4457H49.4765V37.7644C49.4765 32.5601 45.1875 28.2636 39.9878 28.2636H20.9903C15.7907 28.2636 11.5016 32.5601 11.5016 37.7644V54.4386H5.71504C5.68993 54.4386 5.64253 54.4253 5.6013 54.3863C5.5663 54.3532 5.55035 54.3163 5.55035 54.2727V5.72724C5.55035 5.70115 5.56408 5.65321 5.60303 5.61187C5.6361 5.57678 5.67248 5.56128 5.71504 5.56128H15.9835V17.2893C15.9835 19.3032 17.6142 20.9282 19.6183 20.9282H40.2902C42.3038 20.9282 43.9251 19.2937 43.9251 17.2893V5.56834H44.989L54.3513 14.9436L54.3653 54.2797ZM39.3122 41.7132C40.4874 41.7132 41.4273 40.7704 41.4273 39.5963C41.4273 38.993 41.2049 38.4281 40.786 38.0258C40.3719 37.6282 39.8055 37.4287 39.1937 37.4794H21.905C20.7299 37.4794 19.79 38.4221 19.79 39.5963C19.79 40.7705 20.7299 41.7132 21.905 41.7132H39.3122Z" fill="url(#paint0_linear)"/>
<path d="M58.0091 12.5099L58.0091 12.5099L58.003 12.5037L47.3645 1.85053L46.8345 2.37983L47.3645 1.85053C46.9844 1.46988 46.4066 1.25 45.8488 1.25H41.7467H18.1055H5.72209C3.25148 1.25 1.25 3.26453 1.25 5.72724V54.2728C1.25 56.7443 3.26026 58.75 5.72209 58.75H13.6236H47.3615H54.2779C56.7485 58.75 58.75 56.7354 58.75 54.2728V14.0272V13.9329L58.7267 13.8415C58.6322 13.4717 58.439 12.9505 58.0091 12.5099ZM45.1622 37.7644V54.4386H15.7386V37.7644C15.7386 34.9084 18.0634 32.5818 20.913 32.5818H39.9878C42.8373 32.5818 45.1622 34.9083 45.1622 37.7644ZM39.2278 44.7788H39.2278H21.905C20.7299 44.7788 19.79 45.7216 19.79 46.8957C19.79 48.07 20.7299 49.0126 21.905 49.0126H39.3122C40.4874 49.0126 41.4273 48.07 41.4273 46.8957C41.4273 45.6898 40.4478 44.7789 39.2278 44.7788ZM39.6247 5.56834V16.6239H37.1704V5.56834H39.6247ZM32.7856 5.56834V16.6239H20.2979V5.56834H32.7856ZM54.3653 54.2797C54.3653 54.2798 54.3653 54.2798 54.3653 54.2798C54.3652 54.3059 54.3515 54.3538 54.3126 54.3951C54.2795 54.4302 54.2431 54.4457 54.2006 54.4457H49.4765V37.7644C49.4765 32.5601 45.1875 28.2636 39.9878 28.2636H20.9903C15.7907 28.2636 11.5016 32.5601 11.5016 37.7644V54.4386H5.71504C5.68993 54.4386 5.64253 54.4253 5.6013 54.3863C5.5663 54.3532 5.55035 54.3163 5.55035 54.2727V5.72724C5.55035 5.70115 5.56408 5.65321 5.60303 5.61187C5.6361 5.57678 5.67248 5.56128 5.71504 5.56128H15.9835V17.2893C15.9835 19.3032 17.6142 20.9282 19.6183 20.9282H40.2902C42.3038 20.9282 43.9251 19.2937 43.9251 17.2893V5.56834H44.989L54.3513 14.9436L54.3653 54.2797ZM39.3122 41.7132C40.4874 41.7132 41.4273 40.7704 41.4273 39.5963C41.4273 38.993 41.2049 38.4281 40.786 38.0258C40.3719 37.6282 39.8055 37.4287 39.1937 37.4794H21.905C20.7299 37.4794 19.79 38.4221 19.79 39.5963C19.79 40.7705 20.7299 41.7132 21.905 41.7132H39.3122Z" stroke="#CBCBBC" stroke-width="1.5"/>
<defs>
<linearGradient id="paint0_linear" x1="46.8675" y1="2.87721" x2="46.8675" y2="58.8772" gradientUnits="userSpaceOnUse">
<stop stop-color="#F1F1DE"/>
<stop offset="1" stop-color="white" stop-opacity="0"/>
</linearGradient>
</defs>
</svg>
