<svg width="31" height="35" viewBox="0 0 31 35" fill="none" xmlns="http://www.w3.org/2000/svg">
<path d="M1.25 2.96774V3.19786L1.37906 3.38838L11.4322 18.2287C11.4867 18.5705 11.6465 18.9029 11.8952 19.1574V32V33.3058L13.0231 32.6478L18.8295 29.2607L19.2016 29.0437V28.6129V19.1574C19.4503 18.9029 19.6101 18.5705 19.6646 18.2287L29.7177 3.38838L29.8468 3.19786V2.96774C29.8468 2.02127 29.0755 1.25 28.129 1.25H2.96774C2.02127 1.25 1.25 2.02127 1.25 2.96774Z" fill="#FBFBED"/>
<path d="M1.25 2.96774V3.19786L1.37906 3.38838L11.4322 18.2287C11.4867 18.5705 11.6465 18.9029 11.8952 19.1574V32V33.3058L13.0231 32.6478L18.8295 29.2607L19.2016 29.0437V28.6129V19.1574C19.4503 18.9029 19.6101 18.5705 19.6646 18.2287L29.7177 3.38838L29.8468 3.19786V2.96774C29.8468 2.02127 29.0755 1.25 28.129 1.25H2.96774C2.02127 1.25 1.25 2.02127 1.25 2.96774Z" fill="url(#paint0_linear)"/>
<path d="M1.25 2.96774V3.19786L1.37906 3.38838L11.4322 18.2287C11.4867 18.5705 11.6465 18.9029 11.8952 19.1574V32V33.3058L13.0231 32.6478L18.8295 29.2607L19.2016 29.0437V28.6129V19.1574C19.4503 18.9029 19.6101 18.5705 19.6646 18.2287L29.7177 3.38838L29.8468 3.19786V2.96774C29.8468 2.02127 29.0755 1.25 28.129 1.25H2.96774C2.02127 1.25 1.25 2.02127 1.25 2.96774Z" stroke="#CBCBBC" stroke-width="1.5"/>
<path d="M5.07508 4.14356L12.817 15.7565L13.129 15.5485L13.4411 15.3404L5.69912 3.72753L5.3871 3.93555L5.07508 4.14356Z" stroke="#CBCBBC" stroke-width="0.75"/>
<defs>
<linearGradient id="paint0_linear" x1="23.7101" y1="2.46993" x2="23.7101" y2="32.4699" gradientUnits="userSpaceOnUse">
<stop stop-color="#F1F1DE"/>
<stop offset="1" stop-color="white" stop-opacity="0"/>
</linearGradient>
</defs>
</svg>
