<svg id="Layer_1" xmlns="http://www.w3.org/2000/svg" viewBox="0 0 512 512"><defs><style>.cls-1{fill:#fbfbed;}.cls-2{fill:#bcbec0;}.cls-3{fill:#57c927;}.cls-4{fill:#1cb71c;}.cls-5{fill:#049e42;}.cls-6{fill:#f1662a;}.cls-7{fill:#fff200;stroke:#be1e2d;}.cls-11,.cls-7,.cls-8,.cls-9{stroke-miterlimit:10;stroke-width:2px;}.cls-8{fill:#00aeef;stroke:#fff200;}.cls-9{fill:#ed1c24;stroke:#2e3192;}.cls-10{fill:#662d91;}.cls-11{font-size:84.32px;fill:#c49a6c;stroke:#231f20;font-family:MyriadPro-Regular, Myriad Pro;letter-spacing:0em;}.cls-12{letter-spacing:0em;}.cls-13{letter-spacing:0em;}.cls-14{letter-spacing:0em;}</style></defs><title>ic_stringXmlFilterTool</title><rect class="cls-1" width="512" height="512"/><ellipse class="cls-2" cx="114.72" cy="126.26" rx="58.38" ry="51.23"/><path class="cls-3" d="M363.68,74.18v52.41c0,4.09,2.46,7.3,6.67,7.3h5.5a4,4,0,0,0-.61,2.07v14.84c0,3.88,3.72,7,7.71,7s7.71-3.15,7.71-7V136a3.81,3.81,0,0,0-.93-2.07h13.42a3.81,3.81,0,0,0-.93,2.07v14.84c0,3.88,3.71,7,7.7,7s7.71-3.15,7.71-7V136a4.05,4.05,0,0,0-.61-2.07h5.51c4.21,0,6.66-3.21,6.66-7.3V74.18h-65.5Z"/><path class="cls-3" d="M350.2,75c-4,0-7.71,3.15-7.71,7v30.08c0,3.88,3.72,7,7.71,7s7.71-3.15,7.71-7V82.06C357.91,78.18,354.19,75,350.2,75Z"/><path class="cls-3" d="M413,46.88l1.34-2L415.71,43l3-4.38a1.14,1.14,0,0,0-.33-1.62,1.21,1.21,0,0,0-1.66.33l-4.58,6.67-1.38,2a41.31,41.31,0,0,0-28.64,0l-1.37-2-1.35-2-3.22-4.7A1.23,1.23,0,0,0,374.5,37a1.16,1.16,0,0,0-.34,1.62l3,4.38,1.35,2,1.35,2c-10.22,4.63-17.13,13.81-17.13,23.45h67.41C430.14,60.69,423.23,51.51,413,46.88ZM382,61a3.52,3.52,0,1,1,3.61-3.52A3.56,3.56,0,0,1,382,61Zm28.9,0a3.52,3.52,0,1,1,3.61-3.52A3.57,3.57,0,0,1,410.88,61Z"/><path class="cls-4" d="M350.54,90.73c-3,0-6.12-2.83-8-7.33v28.73c0,3.88,3.72,7,7.71,7s7.71-3.15,7.71-7V84.91C356,88.52,353.19,90.73,350.54,90.73Z"/><path class="cls-3" d="M442.66,75c-4,0-7.71,3.15-7.71,7v30.08c0,3.88,3.72,7,7.71,7s7.71-3.15,7.71-7V82.06C450.37,78.18,446.65,75,442.66,75Z"/><path class="cls-4" d="M443,90.73c-3,0-6.12-2.83-8-7.33v28.73c0,3.88,3.72,7,7.71,7s7.71-3.15,7.71-7V84.91C448.44,88.52,445.66,90.73,443,90.73Z"/><path class="cls-4" d="M396.43,79.93c-15.24,0-28.9-1.76-32.75-4.26v50.92c0,4.09,2.46,7.3,6.67,7.3h5.5a4,4,0,0,0-.61,2.07v14.84c0,3.88,3.72,7,7.71,7s7.71-3.15,7.71-7V136a3.81,3.81,0,0,0-.93-2.07h13.42a3.81,3.81,0,0,0-.93,2.07v14.84c0,3.88,3.71,7,7.7,7s7.71-3.15,7.71-7V136a4.05,4.05,0,0,0-.61-2.07h5.51c4.21,0,6.66-3.21,6.66-7.3V75.67C425.33,78.17,411.67,79.93,396.43,79.93Z"/><path class="cls-4" d="M414.49,57.45a3.62,3.62,0,0,1-7.23,0,3.44,3.44,0,0,1,1.24-2.63,74.5,74.5,0,0,0-24.14,0,3.44,3.44,0,0,1,1.24,2.63,3.61,3.61,0,0,1-7.23,0,3.44,3.44,0,0,1,.3-1.4,43.69,43.69,0,0,0-14.48,6.46,25.56,25.56,0,0,0-1.47,7.82h67.41a25.58,25.58,0,0,0-1.46-7.81,43.61,43.61,0,0,0-14.48-6.46A3.49,3.49,0,0,1,414.49,57.45Z"/><path class="cls-5" d="M396.43,100c-13,0-25-2.56-32.75-6.76v33.31c0,4.09,2.46,7.3,6.67,7.3h5.5a4,4,0,0,0-.61,2.07v14.84c0,3.88,3.72,7,7.71,7s7.71-3.15,7.71-7V136a3.81,3.81,0,0,0-.93-2.07h13.42a3.81,3.81,0,0,0-.93,2.07v14.84c0,3.88,3.71,7,7.7,7s7.71-3.15,7.71-7V136a4.05,4.05,0,0,0-.61-2.07h5.51c4.21,0,6.66-3.21,6.66-7.3V93.28C421.47,97.48,409.41,100,396.43,100Z"/><path class="cls-6" d="M425.42,481.28l5.76,5.76,19.19-19.19-19.19-19.19-5.76,5.76,13.44,13.43Z"/><path class="cls-6" d="M402.4,454.41l-5.76-5.76-19.19,19.19L396.64,487l5.76-5.76L389,467.84Z"/><path class="cls-6" d="M417.58,446.17l4.17,1.14-11.51,42.21-4.17-1.14Z"/><polygon class="cls-7" points="223.79 251.97 198.25 296.25 172.7 251.97 155.67 251.97 189.73 311.58 155.67 371.18 172.7 371.18 198.25 326.9 223.79 371.18 240.82 371.18 206.76 311.58 240.82 251.97 223.79 251.97"/><path d="M427.84,197.85H307.15V144.59L216.63,20.31h-166c-16.6,0-30.17,16-30.17,35.51V464.16c0,19.53,13.58,35.51,30.17,35.51H277c16.59,0,30.17-16,30.17-35.51V428.65H427.84c25.65,0,45.26-23.08,45.26-53.26V251.11C473.1,220.93,453.49,197.85,427.84,197.85ZM216.63,46.94l70.91,97.65H231.72c-7.54,0-15.09-8.88-15.09-17.75Zm75.43,417.22c0,8.88-6,17.75-15.09,17.75H50.68c-7.54,0-15.09-7.1-15.09-17.75V55.82c0-8.88,6-17.75,15.09-17.75H201.54v88.77c0,19.53,13.58,35.51,30.17,35.51h60.35v35.51H171.37c-25.65,0-45.26,23.08-45.26,53.26V375.39c0,30.18,19.61,53.26,45.26,53.26H292.06Zm166-88.77c0,19.53-13.58,35.51-30.17,35.51H171.37c-16.6,0-30.17-16-30.17-35.51V251.11c0-19.53,13.58-35.51,30.17-35.51H427.84c16.59,0,30.17,16,30.17,35.51Z"/><polygon class="cls-8" points="324.71 251.97 299.17 303.06 273.62 251.97 265.11 251.97 256.59 251.97 256.59 371.18 273.62 371.18 273.62 286.03 290.65 320.09 299.17 320.09 307.68 320.09 324.71 286.03 324.71 371.18 341.74 371.18 341.74 251.97 333.23 251.97 324.71 251.97"/><polygon class="cls-9" points="374.55 251.97 357.52 251.97 357.52 371.18 442.67 371.18 442.67 354.15 374.55 354.15 374.55 251.97"/><path class="cls-10" d="M107.45,123.93,92.06,139.4a1.15,1.15,0,0,1-1,.31,11.37,11.37,0,0,0-5.32.13A11.66,11.66,0,0,0,77.45,148a11.33,11.33,0,0,0-.31,4.21,2.32,2.32,0,0,0,3.94,1.35l3.21-3.28a1.15,1.15,0,0,1,1.63,0h0l3.26,3.26a1.16,1.16,0,0,1,0,1.64L86,158.46a2.31,2.31,0,0,0,1.36,3.93,11.9,11.9,0,0,0,1.28.07,11.53,11.53,0,0,0,11.15-8.61,11.31,11.31,0,0,0,.13-5.31,1.15,1.15,0,0,1,.25-1.07l15.47-15.38.83.82h0a3.46,3.46,0,0,0,0,4.89h0l1.63,1.59h0a1.15,1.15,0,0,0,.33.23h.2l4.67,1.15a3.46,3.46,0,0,0,.51,4.38l16.32,16.28a3.46,3.46,0,0,0,4.89,0l4.89-4.89a3.46,3.46,0,0,0,0-4.89l-16.28-16.32a3.55,3.55,0,0,0-4.23-.48l-1.15-4.68V130a1.15,1.15,0,0,0-.23-.33h0L126.34,128a3.46,3.46,0,0,0-4.89,0h0l-.82-.83,15.27-15.42a1.15,1.15,0,0,1,1-.31,11.37,11.37,0,0,0,5.32-.13,11.66,11.66,0,0,0,8.22-8.22,11.33,11.33,0,0,0,.31-4.21h0a2.31,2.31,0,0,0-3.94-1.35l-3.21,3.28a1.15,1.15,0,0,1-1.63,0h0l-3.23-3.26a1.2,1.2,0,0,1,0-1.67L142,92.62a2.29,2.29,0,0,0-1.36-3.9,11.53,11.53,0,0,0-12.43,8.55,11.31,11.31,0,0,0-.13,5.31,1.15,1.15,0,0,1-.25,1.07L112.35,119,93.48,100.19l-.6-3a3.46,3.46,0,0,0-.95-1.78l-6-6a2.31,2.31,0,0,0-3.26,0h0l-4.89,4.89a2.31,2.31,0,0,0,0,3.26h0l6,6a3.46,3.46,0,0,0,1.78.95l3,.6,18.86,18.87m21.95-18.69a3.46,3.46,0,0,0,.93-3.15,9.11,9.11,0,0,1,.09-4.21A9.31,9.31,0,0,1,137,91.27,8.73,8.73,0,0,1,140.4,91l-3.26,3.28a3.46,3.46,0,0,0,0,4.89h0l3.26,3.29a3.46,3.46,0,0,0,4.89,0h0l3.28-3.33h0a9,9,0,0,1-.31,3.33,9.32,9.32,0,0,1-6.57,6.57,9,9,0,0,1-4.24.09,3.46,3.46,0,0,0-3.16.93l-15.42,15.47L114,120.67Zm-20.31,20.32,4.89,4.89L98.56,145.88a3.46,3.46,0,0,0-.93,3.15,9.11,9.11,0,0,1-.09,4.21A9.31,9.31,0,0,1,91,159.81a8.73,8.73,0,0,1-3.36.24l3.22-3.29a3.46,3.46,0,0,0,0-4.89l-3.26-3.25a3.46,3.46,0,0,0-4.89,0h0l-3.22,3.32a9,9,0,0,1,.25-3.32A9.32,9.32,0,0,1,86.3,142a9.11,9.11,0,0,1,4.24-.09A3.46,3.46,0,0,0,93.7,141l15.38-15.42m14.68,3.75a1.15,1.15,0,0,1,.82.33l.82.82L118.88,137l-.82-.82a1.15,1.15,0,0,1,0-1.63l4.9-4.9A1.15,1.15,0,0,1,123.77,129.31ZM84.27,91l2,2-4.88,4.88-2-2Zm1.15,10.92-3.19-3.17,4.9-4.9L90.3,97a1.15,1.15,0,0,1,.32.59l.55,2.79-2.39,2.39L86,102.21a1.15,1.15,0,0,1-.59-.32ZM90.81,104l1.63-1.63,27.31,27.26-1.68,1.68Zm35.61,28.72,1,3.91-2.31,2.31-3.91-1Zm21.82,22.2h0l-4.9,4.9a1.15,1.15,0,0,1-1.63,0L125.41,143.5a1.16,1.16,0,0,1,0-1.63L130.3,137a1.16,1.16,0,0,1,1.63,0l16.32,16.31a1.16,1.16,0,0,1,0,1.63Z"/><path class="cls-10" d="M128.25,142.28a.57.57,0,0,0-.81.82h0l14.67,14.68a.59.59,0,0,0,.42.17.57.57,0,0,0,.4-.17.58.58,0,0,0,0-.82h0Z"/><path class="cls-10" d="M129.89,140.65a.58.58,0,0,0-.82.82h0l14.68,14.67a.57.57,0,0,0,.4.17.54.54,0,0,0,.4-.17.55.55,0,0,0,0-.78l0,0Z"/><path class="cls-10" d="M131.52,139a.58.58,0,0,0-.82,0h0a.58.58,0,0,0,0,.81l14.68,14.68a.59.59,0,0,0,.42.17.58.58,0,0,0,.4-.17.59.59,0,0,0,0-.82Z"/><text class="cls-11" transform="translate(104.38 416.79) rotate(-90)">S<tspan class="cls-12" x="41.32" y="0">t</tspan><tspan class="cls-13" x="69.23" y="0">r</tspan><tspan class="cls-14" x="97.14" y="0">ing</tspan></text></svg>