<?xml version="1.0" encoding="utf-8"?>
<!-- Generator: Adobe Illustrator 21.0.0, SVG Export Plug-In . SVG Version: 6.00 Build 0)  -->
<svg version="1.1" id="Layer_1" xmlns="http://www.w3.org/2000/svg" x="0px" y="0px" viewBox="0 0 78.4 60.4" style="enable-background:new 0 0 78.4 60.4;" xml:space="preserve">
<style type="text/css">
	.st0{fill:#C9C9C9;}
	.st1{fill:#FBFBED;}
	.st2{fill:url(#SVGID_1_);}
	.st3{fill:url(#SVGID_2_);}
</style>
<path class="st0" d="M68.8,60.4c-2.5,0-4.9-0.8-6.6-2.1L44.4,44.7l2.7-2.1l-2.1-1.6c-4.8,2.5-10.3,3.8-16.1,3.8c0,0,0,0,0,0
	c-7.7,0-14.9-2.3-20.4-6.5C3.1,34.1,0,28.5,0,22.4c0-6.1,3.1-11.7,8.6-16C14.1,2.3,21.3,0,29,0c7.7,0,14.9,2.3,20.4,6.5
	c5.1,3.9,8.1,9,8.6,14.5c0.4,4.8-1.2,9.6-4.6,13.6l2.2,1.7l2.7-2.1l17.3,13.2c1.9,1.4,2.9,3.4,2.9,5.5c0,2.1-1,4-2.9,5.5
	C73.7,59.6,71.3,60.4,68.8,60.4L68.8,60.4z M29,7.6c-10.9,0-19.8,6.6-19.8,14.8c0,3.9,2,7.6,5.7,10.4c3.8,2.9,8.8,4.4,14.1,4.4
	c5.3,0,10.4-1.6,14.1-4.4c3.7-2.8,5.7-6.5,5.7-10.4C48.8,14.2,39.9,7.6,29,7.6z"/>
<path class="st0" d="M68.8,60.4c-2.5,0-4.9-0.8-6.6-2.1L44.4,44.7l2.7-2.1l-2.1-1.6c-4.8,2.5-10.3,3.8-16.1,3.8c0,0,0,0,0,0
	c-7.7,0-14.9-2.3-20.4-6.5C3.1,34.1,0,28.5,0,22.4c0-6.1,3.1-11.7,8.6-16C14.1,2.3,21.3,0,29,0c7.7,0,14.9,2.3,20.4,6.5
	c5.1,3.9,8.1,9,8.6,14.5c0.4,4.8-1.2,9.6-4.6,13.6l2.2,1.7l2.7-2.1l17.3,13.2c1.9,1.4,2.9,3.4,2.9,5.5c0,2.1-1,4-2.9,5.5
	C73.7,59.6,71.3,60.4,68.8,60.4L68.8,60.4z M29,7.6c-10.9,0-19.8,6.6-19.8,14.8c0,3.9,2,7.6,5.7,10.4c3.8,2.9,8.8,4.4,14.1,4.4
	c5.3,0,10.4-1.6,14.1-4.4c3.7-2.8,5.7-6.5,5.7-10.4C48.8,14.2,39.9,7.6,29,7.6z"/>
<path class="st1" d="M58.2,35.7l16.5,12.6c1.6,1.2,2.4,2.8,2.4,4.5c0,1.7-0.9,3.3-2.4,4.5c-1.6,1.2-3.8,1.9-5.9,1.9
	c-2.1,0-4.3-0.6-5.9-1.9L46.4,44.7l2.7-2.1l-3.9-3c-11,6-26.2,5.1-35.9-2.2c-10.8-8.3-10.8-21.7,0-30c5.2-4,12.2-6.2,19.7-6.2
	c7.4,0,14.4,2.2,19.7,6.2c9.7,7.4,10.8,19,2.9,27.4l3.9,3L58.2,35.7z M29,6.4c-11.6,0-21,7.2-21,16c0,4.3,2.2,8.3,6.1,11.3
	c4,3,9.2,4.7,14.8,4.7c5.6,0,10.9-1.7,14.8-4.7c4-3,6.1-7,6.1-11.3C50,13.6,40.6,6.4,29,6.4z"/>
<path class="st0" d="M13,23.6v-1.2c0-3.4,1.7-6.6,4.8-8.9c3-2.3,7-3.6,11.2-3.6h1.2l0,4.4H29c-3,0-5.8,0.9-7.9,2.5
	c-2,1.5-3.1,3.5-3.1,5.6v1.2H13z"/>
<linearGradient id="SVGID_1_" gradientUnits="userSpaceOnUse" x1="39.2002" y1="60.2917" x2="39.2002" y2="2.2917" gradientTransform="matrix(1 0 0 -1 0 62.4004)">
	<stop  offset="0" style="stop-color:#F1F1DE"/>
	<stop  offset="1" style="stop-color:#FFFFFF;stop-opacity:0"/>
</linearGradient>
<path class="st2" d="M58.2,35.7l16.5,12.6c1.6,1.2,2.4,2.8,2.4,4.5c0,1.7-0.9,3.3-2.4,4.5c-1.6,1.2-3.8,1.9-5.9,1.9
	c-2.1,0-4.3-0.6-5.9-1.9L46.4,44.7l2.7-2.1l-3.9-3c-11,6-26.2,5.1-35.9-2.2c-10.8-8.3-10.8-21.7,0-30c5.2-4,12.2-6.2,19.7-6.2
	c7.4,0,14.4,2.2,19.7,6.2c9.7,7.4,10.8,19,2.9,27.4l3.9,3L58.2,35.7z M29,6.4c-11.6,0-21,7.2-21,16c0,4.3,2.2,8.3,6.1,11.3
	c4,3,9.2,4.7,14.8,4.7c5.6,0,10.9-1.7,14.8-4.7c4-3,6.1-7,6.1-11.3C50,13.6,40.6,6.4,29,6.4z"/>
<path class="st0" d="M13,23.6v-1.2c0-3.4,1.7-6.6,4.8-8.9c3-2.3,7-3.6,11.2-3.6h1.2l0,4.4H29c-3,0-5.8,0.9-7.9,2.5
	c-2,1.5-3.1,3.5-3.1,5.6v1.2H13z"/>
<path class="st1" d="M18.5,14.4c-2.8,2.1-4.3,5-4.3,8h2.6c0-2.5,1.3-4.8,3.6-6.6c2.3-1.8,5.4-2.7,8.6-2.7h0v-2h0
	C25,11.1,21.3,12.3,18.5,14.4z"/>
<linearGradient id="SVGID_2_" gradientUnits="userSpaceOnUse" x1="21.5708" y1="51.1225" x2="21.5708" y2="39.8132" gradientTransform="matrix(1 0 0 -1 0 62.4004)">
	<stop  offset="0" style="stop-color:#F1F1DE"/>
	<stop  offset="1" style="stop-color:#FFFFFF;stop-opacity:0"/>
</linearGradient>
<path class="st3" d="M18.5,14.4c-2.8,2.1-4.3,5-4.3,8h2.6c0-2.5,1.3-4.8,3.6-6.6c2.3-1.8,5.4-2.7,8.6-2.7h0v-2h0
	C25,11.1,21.3,12.3,18.5,14.4z"/>
</svg>
