<svg width="76" height="58" viewBox="0 0 76 58" fill="none" xmlns="http://www.w3.org/2000/svg">
<path fill-rule="evenodd" clip-rule="evenodd" d="M57.0077 34.4948L73.5522 47.119C75.1307 48.3229 76 49.9246 76 51.6274C75.9993 53.3307 75.13 54.9315 73.5522 56.135C71.9241 57.3779 69.7833 57.9991 67.6443 58C65.5047 58 63.3658 57.3779 61.737 56.135L45.1928 43.5116L47.9211 41.4289L43.9935 38.4335C33.0082 44.4711 17.789 43.5789 8.12797 36.2052C-2.70932 27.9368 -2.70932 14.4817 8.12797 6.21185C13.376 2.2063 20.3575 0 27.7804 0C35.2045 0 42.1848 2.2063 47.4347 6.21238C57.0965 13.5855 58.2657 25.1984 50.3539 33.5802L54.2807 36.5757L57.0077 34.4948ZM27.7811 5.19727C16.21 5.19727 6.79663 12.3796 6.79663 21.2085C6.79663 25.4858 8.97905 29.5069 12.9417 32.5311C16.905 35.5553 22.1749 37.221 27.7809 37.221C33.3848 37.221 38.6542 35.5557 42.618 32.5311C46.5825 29.506 48.7654 25.4854 48.7654 21.2089C48.7656 12.3801 39.3522 5.19727 27.7811 5.19727Z" fill="#FBFBED"/>
<path fill-rule="evenodd" clip-rule="evenodd" d="M57.0077 34.4948L73.5522 47.119C75.1307 48.3229 76 49.9246 76 51.6274C75.9993 53.3307 75.13 54.9315 73.5522 56.135C71.9241 57.3779 69.7833 57.9991 67.6443 58C65.5047 58 63.3658 57.3779 61.737 56.135L45.1928 43.5116L47.9211 41.4289L43.9935 38.4335C33.0082 44.4711 17.789 43.5789 8.12797 36.2052C-2.70932 27.9368 -2.70932 14.4817 8.12797 6.21185C13.376 2.2063 20.3575 0 27.7804 0C35.2045 0 42.1848 2.2063 47.4347 6.21238C57.0965 13.5855 58.2657 25.1984 50.3539 33.5802L54.2807 36.5757L57.0077 34.4948ZM27.7811 5.19727C16.21 5.19727 6.79663 12.3796 6.79663 21.2085C6.79663 25.4858 8.97905 29.5069 12.9417 32.5311C16.905 35.5553 22.1749 37.221 27.7809 37.221C33.3848 37.221 38.6542 35.5557 42.618 32.5311C46.5825 29.506 48.7654 25.4854 48.7654 21.2089C48.7656 12.3801 39.3522 5.19727 27.7811 5.19727Z" fill="url(#paint0_linear)"/>
<path d="M17.3054 13.2159C14.5032 15.3546 12.96 18.1932 12.96 21.2098H15.6014C15.6014 18.7316 16.8698 16.3989 19.1738 14.6414C21.4771 12.8839 24.5329 11.916 27.78 11.916H27.7812V9.90051H27.78C23.8267 9.90064 20.107 11.0781 17.3054 13.2159Z" fill="#FBFBED"/>
<path d="M17.3054 13.2159C14.5032 15.3546 12.96 18.1932 12.96 21.2098H15.6014C15.6014 18.7316 16.8698 16.3989 19.1738 14.6414C21.4771 12.8839 24.5329 11.916 27.78 11.916H27.7812V9.90051H27.78C23.8267 9.90064 20.107 11.0781 17.3054 13.2159Z" fill="url(#paint1_linear)"/>
<defs>
<linearGradient id="paint0_linear" x1="60.8916" y1="0.908538" x2="60.8916" y2="58.9085" gradientUnits="userSpaceOnUse">
<stop stop-color="#F1F1DE"/>
<stop offset="1" stop-color="white" stop-opacity="0"/>
</linearGradient>
<linearGradient id="paint1_linear" x1="24.8348" y1="10.0777" x2="24.8348" y2="21.3869" gradientUnits="userSpaceOnUse">
<stop stop-color="#F1F1DE"/>
<stop offset="1" stop-color="white" stop-opacity="0"/>
</linearGradient>
</defs>
</svg>
