<svg width="70" height="58" viewBox="0 0 70 58" fill="none" xmlns="http://www.w3.org/2000/svg">
<mask id="path-1-inside-1" fill="white">
<path fill-rule="evenodd" clip-rule="evenodd" d="M36.0566 0.78214L68.6205 26.1903C69.4988 26.8724 69.9999 27.8957 70 28.9966C70 30.0984 69.4924 31.1213 68.6121 31.8042L36.0417 57.2103C35.3891 57.7196 34.5575 58 33.7238 58C33.1658 58 32.6021 57.8801 32.0988 57.6449C30.8291 57.0481 29.9573 55.7762 29.9573 54.404V44.8459H3.87138C1.83715 44.8459 0 43.0383 0 41.056V16.9347C0 14.9519 1.83715 13.1415 3.87138 13.1415H29.9572V3.5863C29.9572 2.21472 30.8285 0.943136 32.097 0.345755C33.3398 -0.243263 34.9734 -0.0679958 36.0566 0.78214ZM37.2327 41.056V46.9213L60.2092 28.9966L37.2327 11.0694V16.9347C37.2327 18.9172 35.7828 20.6504 33.7495 20.6504H7.70337V37.3371H33.7495C35.7828 37.3371 37.2327 39.0737 37.2327 41.056Z"/>
</mask>
<path fill-rule="evenodd" clip-rule="evenodd" d="M36.0566 0.78214L68.6205 26.1903C69.4988 26.8724 69.9999 27.8957 70 28.9966C70 30.0984 69.4924 31.1213 68.6121 31.8042L36.0417 57.2103C35.3891 57.7196 34.5575 58 33.7238 58C33.1658 58 32.6021 57.8801 32.0988 57.6449C30.8291 57.0481 29.9573 55.7762 29.9573 54.404V44.8459H3.87138C1.83715 44.8459 0 43.0383 0 41.056V16.9347C0 14.9519 1.83715 13.1415 3.87138 13.1415H29.9572V3.5863C29.9572 2.21472 30.8285 0.943136 32.097 0.345755C33.3398 -0.243263 34.9734 -0.0679958 36.0566 0.78214ZM37.2327 41.056V46.9213L60.2092 28.9966L37.2327 11.0694V16.9347C37.2327 18.9172 35.7828 20.6504 33.7495 20.6504H7.70337V37.3371H33.7495C35.7828 37.3371 37.2327 39.0737 37.2327 41.056Z" fill="#FBFBED"/>
<path fill-rule="evenodd" clip-rule="evenodd" d="M36.0566 0.78214L68.6205 26.1903C69.4988 26.8724 69.9999 27.8957 70 28.9966C70 30.0984 69.4924 31.1213 68.6121 31.8042L36.0417 57.2103C35.3891 57.7196 34.5575 58 33.7238 58C33.1658 58 32.6021 57.8801 32.0988 57.6449C30.8291 57.0481 29.9573 55.7762 29.9573 54.404V44.8459H3.87138C1.83715 44.8459 0 43.0383 0 41.056V16.9347C0 14.9519 1.83715 13.1415 3.87138 13.1415H29.9572V3.5863C29.9572 2.21472 30.8285 0.943136 32.097 0.345755C33.3398 -0.243263 34.9734 -0.0679958 36.0566 0.78214ZM37.2327 41.056V46.9213L60.2092 28.9966L37.2327 11.0694V16.9347C37.2327 18.9172 35.7828 20.6504 33.7495 20.6504H7.70337V37.3371H33.7495C35.7828 37.3371 37.2327 39.0737 37.2327 41.056Z" fill="url(#paint0_linear)"/>
<path d="M68.6205 26.1903L67.6977 27.3729L67.7004 27.375L68.6205 26.1903ZM36.0566 0.78214L35.1305 1.96211L35.1338 1.96475L36.0566 0.78214ZM70 28.9966H71.5V28.9964L70 28.9966ZM68.6121 31.8042L67.6927 30.6191L67.6896 30.6215L68.6121 31.8042ZM36.0417 57.2103L35.1191 56.0276L35.1189 56.0277L36.0417 57.2103ZM32.0988 57.6449L31.4607 59.0024L31.4636 59.0038L32.0988 57.6449ZM29.9573 44.8459H31.4573V43.3459H29.9573V44.8459ZM29.9572 13.1415V14.6415H31.4572V13.1415H29.9572ZM32.097 0.345755L32.7361 1.7028L32.7394 1.70123L32.097 0.345755ZM37.2327 46.9213H35.7327V49.9939L38.1553 48.1039L37.2327 46.9213ZM60.2092 28.9966L61.1318 30.1793L62.6477 28.9967L61.1319 27.814L60.2092 28.9966ZM37.2327 11.0694L38.1554 9.88675L35.7327 7.99643V11.0694H37.2327ZM7.70337 20.6504V19.1504H6.20337V20.6504H7.70337ZM7.70337 37.3371H6.20337V38.8371H7.70337V37.3371ZM69.5432 25.0077L36.9793 -0.400467L35.1338 1.96475L67.6977 27.3729L69.5432 25.0077ZM71.5 28.9964C71.4998 27.4297 70.7826 25.9702 69.5405 25.0056L67.7004 27.375C68.215 27.7746 68.4999 28.3617 68.5 28.9968L71.5 28.9964ZM69.5316 32.9894C70.771 32.0279 71.5 30.5708 71.5 28.9966H68.5C68.5 29.626 68.2138 30.2148 67.6927 30.6191L69.5316 32.9894ZM36.9643 58.393L69.5347 32.987L67.6896 30.6215L35.1191 56.0276L36.9643 58.393ZM33.7238 59.5C34.8839 59.5 36.042 59.1128 36.9645 58.3928L35.1189 56.0277C34.7361 56.3264 34.2312 56.5 33.7238 56.5V59.5ZM31.4636 59.0038C32.1748 59.3362 32.9565 59.5 33.7238 59.5V56.5C33.375 56.5 33.0294 56.4241 32.734 56.286L31.4636 59.0038ZM28.4573 54.404C28.4573 56.411 29.7152 58.1819 31.4607 59.0024L32.7369 56.2874C31.943 55.9142 31.4573 55.1413 31.4573 54.404H28.4573ZM28.4573 44.8459V54.404H31.4573V44.8459H28.4573ZM3.87138 46.3459H29.9573V43.3459H3.87138V46.3459ZM-1.5 41.056C-1.5 43.8943 1.03664 46.3459 3.87138 46.3459V43.3459C2.63767 43.3459 1.5 42.1822 1.5 41.056H-1.5ZM-1.5 16.9347V41.056H1.5V16.9347H-1.5ZM3.87138 11.6415C1.03507 11.6415 -1.5 14.0974 -1.5 16.9347H1.5C1.5 15.8065 2.63924 14.6415 3.87138 14.6415V11.6415ZM29.9572 11.6415H3.87138V14.6415H29.9572V11.6415ZM28.4572 3.5863V13.1415H31.4572V3.5863H28.4572ZM31.4579 -1.01128C29.7144 -0.190188 28.4572 1.58002 28.4572 3.5863H31.4572C31.4572 2.84941 31.9427 2.07646 32.7361 1.70279L31.4579 -1.01128ZM36.9827 -0.397827C35.4476 -1.60267 33.2059 -1.83973 31.4546 -1.00972L32.7394 1.70123C33.4738 1.35321 34.4992 1.46668 35.1305 1.96211L36.9827 -0.397827ZM38.7327 46.9213V41.056H35.7327V46.9213H38.7327ZM59.2865 27.8139L36.3101 45.7386L38.1553 48.1039L61.1318 30.1793L59.2865 27.8139ZM36.31 12.252L59.2864 30.1792L61.1319 27.814L38.1554 9.88675L36.31 12.252ZM38.7327 16.9347V11.0694H35.7327V16.9347H38.7327ZM33.7495 22.1504C36.7482 22.1504 38.7327 19.6017 38.7327 16.9347H35.7327C35.7327 18.2326 34.8175 19.1504 33.7495 19.1504V22.1504ZM7.70337 22.1504H33.7495V19.1504H7.70337V22.1504ZM9.20337 37.3371V20.6504H6.20337V37.3371H9.20337ZM33.7495 35.8371H7.70337V38.8371H33.7495V35.8371ZM38.7327 41.056C38.7327 38.3909 36.7498 35.8371 33.7495 35.8371V38.8371C34.8159 38.8371 35.7327 39.7565 35.7327 41.056H38.7327Z" fill="#CBCBBC" mask="url(#path-1-inside-1)"/>
<defs>
<linearGradient id="paint0_linear" x1="56.0843" y1="0.908538" x2="56.0843" y2="58.9085" gradientUnits="userSpaceOnUse">
<stop stop-color="#F1F1DE"/>
<stop offset="1" stop-color="white" stop-opacity="0"/>
</linearGradient>
</defs>
</svg>
