<svg width="76" height="58" viewBox="0 0 76 58" fill="none" xmlns="http://www.w3.org/2000/svg">
<path d="M27.7812 5.19724C16.2101 5.19724 6.79672 12.3796 6.79672 21.2084C6.79672 25.4857 8.97914 29.5069 12.9418 32.5311C16.9051 35.5553 22.175 37.221 27.781 37.221C33.3849 37.221 38.6543 35.5557 42.6181 32.5311C46.5826 29.506 48.7655 25.4854 48.7655 21.2088C48.7657 12.3801 39.3523 5.19724 27.7812 5.19724ZM40.7511 31.1055C37.2861 33.7491 32.6802 35.2056 27.7812 35.2056C22.8805 35.2056 18.2734 33.7491 14.8096 31.1065C11.3459 28.4629 9.43829 24.9484 9.43829 21.209C9.43829 13.4918 17.6677 7.21327 27.7814 7.21327C37.8956 7.21327 46.1245 13.4918 46.1245 21.2094C46.1243 24.947 44.2165 28.462 40.7511 31.1055Z" fill="#FBFBED"/>
<path d="M27.7812 5.19724C16.2101 5.19724 6.79672 12.3796 6.79672 21.2084C6.79672 25.4857 8.97914 29.5069 12.9418 32.5311C16.9051 35.5553 22.175 37.221 27.781 37.221C33.3849 37.221 38.6543 35.5557 42.6181 32.5311C46.5826 29.506 48.7655 25.4854 48.7655 21.2088C48.7657 12.3801 39.3523 5.19724 27.7812 5.19724ZM40.7511 31.1055C37.2861 33.7491 32.6802 35.2056 27.7812 35.2056C22.8805 35.2056 18.2734 33.7491 14.8096 31.1065C11.3459 28.4629 9.43829 24.9484 9.43829 21.209C9.43829 13.4918 17.6677 7.21327 27.7814 7.21327C37.8956 7.21327 46.1245 13.4918 46.1245 21.2094C46.1243 24.947 44.2165 28.462 40.7511 31.1055Z" fill="url(#paint0_linear)"/>
<path d="M73.5522 47.119L57.0077 34.4948L54.2807 36.5757L50.3539 33.5802C58.2657 25.1984 57.0965 13.5855 47.4347 6.21238C42.1848 2.2063 35.2045 0 27.7804 0C27.7799 0 27.7809 0 27.7799 0C20.357 0 13.376 2.2063 8.12797 6.21185C-2.70932 14.4817 -2.70932 27.9368 8.12797 36.2052C17.789 43.5789 33.0082 44.471 43.9935 38.4335L47.9211 41.4289L45.1928 43.5116L61.737 56.135C63.3658 57.3779 65.5047 58 67.6443 58C69.7833 57.9991 71.9241 57.3779 73.5522 56.135C75.13 54.9315 75.9993 53.3307 76 51.6274C76 49.9246 75.1307 48.3229 73.5522 47.119ZM71.6857 54.7098C69.4569 56.4096 65.8318 56.4096 63.6042 54.7098L48.9274 43.5117L52.9671 40.4276L51.0993 39.0024L49.7874 40.0039L44.2198 35.7569L43.2995 36.3096C33.3086 42.3019 18.9911 41.6449 9.99552 34.7805C0.188303 27.2975 0.188303 15.1208 9.99552 7.63701C14.7461 4.01172 21.0624 2.01551 27.7809 2.01551C34.4995 2.01551 40.8165 4.01225 45.5668 7.6374C54.5629 14.5022 55.4239 25.4277 47.5702 33.0512L46.8464 33.7534L54.2817 39.426L57.0088 37.3451L71.6855 48.5433C72.7645 49.3674 73.3596 50.4615 73.3596 51.627C73.3591 52.7914 72.7646 53.8866 71.6857 54.7098Z" fill="#FBFBED"/>
<path d="M73.5522 47.119L57.0077 34.4948L54.2807 36.5757L50.3539 33.5802C58.2657 25.1984 57.0965 13.5855 47.4347 6.21238C42.1848 2.2063 35.2045 0 27.7804 0C27.7799 0 27.7809 0 27.7799 0C20.357 0 13.376 2.2063 8.12797 6.21185C-2.70932 14.4817 -2.70932 27.9368 8.12797 36.2052C17.789 43.5789 33.0082 44.471 43.9935 38.4335L47.9211 41.4289L45.1928 43.5116L61.737 56.135C63.3658 57.3779 65.5047 58 67.6443 58C69.7833 57.9991 71.9241 57.3779 73.5522 56.135C75.13 54.9315 75.9993 53.3307 76 51.6274C76 49.9246 75.1307 48.3229 73.5522 47.119ZM71.6857 54.7098C69.4569 56.4096 65.8318 56.4096 63.6042 54.7098L48.9274 43.5117L52.9671 40.4276L51.0993 39.0024L49.7874 40.0039L44.2198 35.7569L43.2995 36.3096C33.3086 42.3019 18.9911 41.6449 9.99552 34.7805C0.188303 27.2975 0.188303 15.1208 9.99552 7.63701C14.7461 4.01172 21.0624 2.01551 27.7809 2.01551C34.4995 2.01551 40.8165 4.01225 45.5668 7.6374C54.5629 14.5022 55.4239 25.4277 47.5702 33.0512L46.8464 33.7534L54.2817 39.426L57.0088 37.3451L71.6855 48.5433C72.7645 49.3674 73.3596 50.4615 73.3596 51.627C73.3591 52.7914 72.7646 53.8866 71.6857 54.7098Z" fill="url(#paint1_linear)"/>
<path d="M67.3405 51.8599L63.6144 49.0157L61.746 50.4409L65.4733 53.286C66.2563 53.8826 67.1698 53.9717 67.6446 53.9717C68.12 53.9717 69.0339 53.8826 69.8182 53.2841L67.9505 51.859C67.7825 51.9874 67.5066 51.9866 67.3405 51.8599Z" fill="#FBFBED"/>
<path d="M67.3405 51.8599L63.6144 49.0157L61.746 50.4409L65.4733 53.286C66.2563 53.8826 67.1698 53.9717 67.6446 53.9717C68.12 53.9717 69.0339 53.8826 69.8182 53.2841L67.9505 51.859C67.7825 51.9874 67.5066 51.9866 67.3405 51.8599Z" fill="url(#paint2_linear)"/>
<path d="M17.3054 13.2158C14.5032 15.3546 12.96 18.1932 12.96 21.2098H15.6014C15.6014 18.7316 16.8698 16.3989 19.1738 14.6414C21.4771 12.8839 24.5329 11.916 27.78 11.916H27.7812V9.90048C27.7812 9.90048 27.7807 9.90048 27.78 9.90048C23.8267 9.90061 20.107 11.078 17.3054 13.2158Z" fill="#FBFBED"/>
<path d="M17.3054 13.2158C14.5032 15.3546 12.96 18.1932 12.96 21.2098H15.6014C15.6014 18.7316 16.8698 16.3989 19.1738 14.6414C21.4771 12.8839 24.5329 11.916 27.78 11.916H27.7812V9.90048C27.7812 9.90048 27.7807 9.90048 27.78 9.90048C23.8267 9.90061 20.107 11.078 17.3054 13.2158Z" fill="url(#paint3_linear)"/>
<defs>
<linearGradient id="paint0_linear" x1="40.4223" y1="5.69887" x2="40.4223" y2="37.7226" gradientUnits="userSpaceOnUse">
<stop stop-color="#F1F1DE"/>
<stop offset="1" stop-color="white" stop-opacity="0"/>
</linearGradient>
<linearGradient id="paint1_linear" x1="60.8916" y1="0.908538" x2="60.8916" y2="58.9085" gradientUnits="userSpaceOnUse">
<stop stop-color="#F1F1DE"/>
<stop offset="1" stop-color="white" stop-opacity="0"/>
</linearGradient>
<linearGradient id="paint2_linear" x1="68.2135" y1="49.0934" x2="68.2135" y2="54.0493" gradientUnits="userSpaceOnUse">
<stop stop-color="#F1F1DE"/>
<stop offset="1" stop-color="white" stop-opacity="0"/>
</linearGradient>
<linearGradient id="paint3_linear" x1="24.8348" y1="10.0776" x2="24.8348" y2="21.3869" gradientUnits="userSpaceOnUse">
<stop stop-color="#F1F1DE"/>
<stop offset="1" stop-color="white" stop-opacity="0"/>
</linearGradient>
</defs>
</svg>
