<?xml version="1.0" encoding="utf-8"?>
<!-- Generator: Adobe Illustrator 21.0.0, SVG Export Plug-In . SVG Version: 6.00 Build 0)  -->
<svg version="1.1" id="Layer_1" xmlns="http://www.w3.org/2000/svg" x="0px" y="0px" viewBox="0 0 78 60" style="enable-background:new 0 0 78 60;" xml:space="preserve">
<style type="text/css">
	.st0{fill:#CBCBBC;}
	.st1{fill:#FBFBED;}
	.st2{fill:url(#SVGID_1_);}
	.st3{fill:url(#SVGID_2_);}
	.st4{fill:url(#SVGID_3_);}
	.st5{fill:url(#SVGID_4_);}
</style>
<path class="st0" d="M28.8,39.2c-5.8,0-11.3-1.7-15.4-4.9c-4.2-3.2-6.5-7.5-6.5-12.1c0-9.4,9.9-17,22-17s22,7.6,22,17
	c0,4.6-2.3,8.9-6.5,12.1C40.1,37.5,34.6,39.2,28.8,39.2z M28.8,9.2c-9.6,0-17.3,5.8-17.3,13c0,3.4,1.8,6.7,5,9.1
	c3.3,2.5,7.7,3.9,12.4,3.9c4.7,0,9.1-1.4,12.4-3.9c3.2-2.4,5-5.7,5-9.1C46.1,15,38.3,9.2,28.8,9.2z"/>
<path class="st0" d="M28.8,39.2c-5.8,0-11.3-1.7-15.4-4.9c-4.2-3.2-6.5-7.5-6.5-12.1c0-9.4,9.9-17,22-17s22,7.6,22,17
	c0,4.6-2.3,8.9-6.5,12.1C40.1,37.5,34.6,39.2,28.8,39.2z M28.8,9.2c-9.6,0-17.3,5.8-17.3,13c0,3.4,1.8,6.7,5,9.1
	c3.3,2.5,7.7,3.9,12.4,3.9c4.7,0,9.1-1.4,12.4-3.9c3.2-2.4,5-5.7,5-9.1C46.1,15,38.3,9.2,28.8,9.2z"/>
<path class="st1" d="M28.8,6.2c-11.6,0-21,7.2-21,16c0,4.3,2.2,8.3,6.1,11.3c4,3,9.2,4.7,14.8,4.7c5.6,0,10.9-1.7,14.8-4.7
	c4-3,6.1-7,6.1-11.3C49.8,13.4,40.4,6.2,28.8,6.2z M41.8,32.1c-3.5,2.6-8.1,4.1-13,4.1c-4.9,0-9.5-1.5-13-4.1
	c-3.5-2.6-5.4-6.2-5.4-9.9c0-7.7,8.2-14,18.3-14c10.1,0,18.3,6.3,18.3,14C47.1,25.9,45.2,29.5,41.8,32.1z"/>
<path class="st0" d="M68.6,60c-2.5,0-4.8-0.7-6.5-2.1L44.5,44.5l2.7-2.1l-2.4-1.8c-4.8,2.5-10.3,3.8-16.1,3.8
	c-7.7,0-14.9-2.3-20.3-6.4C3,33.8,0,28.2,0,22.2c0-6,3-11.6,8.5-15.8C13.9,2.3,21.1,0,28.8,0S43.6,2.3,49,6.4c5,3.8,8,8.9,8.5,14.4
	c0.4,4.8-1.3,9.6-4.7,13.6l2.5,1.9l2.7-2.1l17.2,13.1c1.8,1.4,2.8,3.3,2.8,5.3c0,2-1,3.9-2.8,5.3C73.4,59.3,71.1,60,68.6,60L68.6,60
	z M65.2,54.9c0.9,0.7,2.1,1.1,3.4,1.1c1.3,0,2.5-0.4,3.4-1.1c0.8-0.6,1.3-1.4,1.3-2.3s-0.5-1.7-1.3-2.3L58,39.6l-6.4,4.9L65.2,54.9z
	 M28.8,4c-6.5,0-12.6,1.9-17.2,5.4c-4.5,3.4-7,8-7,12.8s2.5,9.4,7,12.8c4.6,3.5,10.7,5.4,17.2,5.4c5.4,0,10.7-1.4,15-3.9l1.5-0.9
	l5.5,4.2l1-0.7l-5.4-4.2l1.6-1.5c3.5-3.4,5.3-7.6,5-11.9c-0.3-4.5-2.7-8.8-6.9-12C41.4,5.9,35.3,4,28.8,4z"/>
<linearGradient id="SVGID_1_" gradientUnits="userSpaceOnUse" x1="28.7811" y1="55.3011" x2="28.7811" y2="23.2774" gradientTransform="matrix(1 0 0 -1 0 62)">
	<stop  offset="0" style="stop-color:#F1F1DE"/>
	<stop  offset="1" style="stop-color:#FFFFFF;stop-opacity:0"/>
</linearGradient>
<path class="st2" d="M28.8,6.2c-11.6,0-21,7.2-21,16c0,4.3,2.2,8.3,6.1,11.3c4,3,9.2,4.7,14.8,4.7c5.6,0,10.9-1.7,14.8-4.7
	c4-3,6.1-7,6.1-11.3C49.8,13.4,40.4,6.2,28.8,6.2z M41.8,32.1c-3.5,2.6-8.1,4.1-13,4.1c-4.9,0-9.5-1.5-13-4.1
	c-3.5-2.6-5.4-6.2-5.4-9.9c0-7.7,8.2-14,18.3-14c10.1,0,18.3,6.3,18.3,14C47.1,25.9,45.2,29.5,41.8,32.1z"/>
<path class="st0" d="M68.6,60c-2.5,0-4.8-0.7-6.5-2.1L44.5,44.5l2.7-2.1l-2.4-1.8c-4.8,2.5-10.3,3.8-16.1,3.8
	c-7.7,0-14.9-2.3-20.3-6.4C3,33.8,0,28.2,0,22.2c0-6,3-11.6,8.5-15.8C13.9,2.3,21.1,0,28.8,0S43.6,2.3,49,6.4c5,3.8,8,8.9,8.5,14.4
	c0.4,4.8-1.3,9.6-4.7,13.6l2.5,1.9l2.7-2.1l17.2,13.1c1.8,1.4,2.8,3.3,2.8,5.3c0,2-1,3.9-2.8,5.3C73.4,59.3,71.1,60,68.6,60L68.6,60
	z M65.2,54.9c0.9,0.7,2.1,1.1,3.4,1.1c1.3,0,2.5-0.4,3.4-1.1c0.8-0.6,1.3-1.4,1.3-2.3s-0.5-1.7-1.3-2.3L58,39.6l-6.4,4.9L65.2,54.9z
	 M28.8,4c-6.5,0-12.6,1.9-17.2,5.4c-4.5,3.4-7,8-7,12.8s2.5,9.4,7,12.8c4.6,3.5,10.7,5.4,17.2,5.4c5.4,0,10.7-1.4,15-3.9l1.5-0.9
	l5.5,4.2l1-0.7l-5.4-4.2l1.6-1.5c3.5-3.4,5.3-7.6,5-11.9c-0.3-4.5-2.7-8.8-6.9-12C41.4,5.9,35.3,4,28.8,4z"/>
<path class="st1" d="M74.6,48.1L58,35.5l-2.7,2.1l-3.9-3c7.9-8.4,6.7-20-2.9-27.4C43.2,3.2,36.2,1,28.8,1c0,0,0,0,0,0
	C21.4,1,14.4,3.2,9.1,7.2c-10.8,8.3-10.8,21.7,0,30c9.7,7.4,24.9,8.3,35.9,2.2l3.9,3l-2.7,2.1l16.5,12.6c1.6,1.2,3.8,1.9,5.9,1.9
	c2.1,0,4.3-0.6,5.9-1.9c1.6-1.2,2.4-2.8,2.4-4.5C77,50.9,76.1,49.3,74.6,48.1z M72.7,55.7c-2.2,1.7-5.9,1.7-8.1,0L49.9,44.5l4-3.1
	L52.1,40l-1.3,1l-5.6-4.2l-0.9,0.6c-10,6-24.3,5.3-33.3-1.5c-9.8-7.5-9.8-19.7,0-27.1C15.7,5,22.1,3,28.8,3c6.7,0,13,2,17.8,5.6
	c9,6.9,9.9,17.8,2,25.4l-0.7,0.7l7.4,5.7l2.7-2.1l14.7,11.2c1.1,0.8,1.7,1.9,1.7,3.1C74.4,53.8,73.8,54.9,72.7,55.7z"/>
<path class="st0" d="M68.6,56c-0.6,0-1.8-0.1-2.8-0.9l-4.8-3.6l3.5-2.7l4,3.1l0.3-0.2l3.5,2.7l-1,0.8C70.4,55.9,69.2,56,68.6,56z"/>
<linearGradient id="SVGID_2_" gradientUnits="userSpaceOnUse" x1="39" y1="60.0915" x2="39" y2="2.0915" gradientTransform="matrix(1 0 0 -1 0 62)">
	<stop  offset="0" style="stop-color:#F1F1DE"/>
	<stop  offset="1" style="stop-color:#FFFFFF;stop-opacity:0"/>
</linearGradient>
<path class="st3" d="M74.6,48.1L58,35.5l-2.7,2.1l-3.9-3c7.9-8.4,6.7-20-2.9-27.4C43.2,3.2,36.2,1,28.8,1c0,0,0,0,0,0
	C21.4,1,14.4,3.2,9.1,7.2c-10.8,8.3-10.8,21.7,0,30c9.7,7.4,24.9,8.3,35.9,2.2l3.9,3l-2.7,2.1l16.5,12.6c1.6,1.2,3.8,1.9,5.9,1.9
	c2.1,0,4.3-0.6,5.9-1.9c1.6-1.2,2.4-2.8,2.4-4.5C77,50.9,76.1,49.3,74.6,48.1z M72.7,55.7c-2.2,1.7-5.9,1.7-8.1,0L49.9,44.5l4-3.1
	L52.1,40l-1.3,1l-5.6-4.2l-0.9,0.6c-10,6-24.3,5.3-33.3-1.5c-9.8-7.5-9.8-19.7,0-27.1C15.7,5,22.1,3,28.8,3c6.7,0,13,2,17.8,5.6
	c9,6.9,9.9,17.8,2,25.4l-0.7,0.7l7.4,5.7l2.7-2.1l14.7,11.2c1.1,0.8,1.7,1.9,1.7,3.1C74.4,53.8,73.8,54.9,72.7,55.7z"/>
<path class="st0" d="M68.6,56c-0.6,0-1.8-0.1-2.8-0.9l-4.8-3.6l3.5-2.7l4,3.1l0.3-0.2l3.5,2.7l-1,0.8C70.4,55.9,69.2,56,68.6,56z"/>
<path class="st1" d="M68.3,52.9L64.6,50l-1.9,1.4l3.7,2.8c0.8,0.6,1.7,0.7,2.2,0.7c0.5,0,1.4-0.1,2.2-0.7L69,52.9
	C68.8,53,68.5,53,68.3,52.9z"/>
<path class="st0" d="M13,23.2v-1c0-3.3,1.7-6.5,4.7-8.8c3-2.3,6.9-3.5,11.1-3.5h1l0,4h-1c-3,0-5.9,0.9-8,2.5c-2,1.6-3.2,3.6-3.2,5.8
	v1H13z"/>
<linearGradient id="SVGID_3_" gradientUnits="userSpaceOnUse" x1="66.7821" y1="11.9066" x2="66.7821" y2="6.9506" gradientTransform="matrix(1 0 0 -1 0 62)">
	<stop  offset="0" style="stop-color:#F1F1DE"/>
	<stop  offset="1" style="stop-color:#FFFFFF;stop-opacity:0"/>
</linearGradient>
<path class="st4" d="M68.3,52.9L64.6,50l-1.9,1.4l3.7,2.8c0.8,0.6,1.7,0.7,2.2,0.7c0.5,0,1.4-0.1,2.2-0.7L69,52.9
	C68.8,53,68.5,53,68.3,52.9z"/>
<path class="st0" d="M13,23.2v-1c0-3.3,1.7-6.5,4.7-8.8c3-2.3,6.9-3.5,11.1-3.5h1l0,4h-1c-3,0-5.9,0.9-8,2.5c-2,1.6-3.2,3.6-3.2,5.8
	v1H13z"/>
<path class="st1" d="M18.3,14.2c-2.8,2.1-4.3,5-4.3,8h2.6c0-2.5,1.3-4.8,3.6-6.6c2.3-1.8,5.4-2.7,8.6-2.7h0v-2c0,0,0,0,0,0
	C24.8,10.9,21.1,12.1,18.3,14.2z"/>
<linearGradient id="SVGID_4_" gradientUnits="userSpaceOnUse" x1="21.3706" y1="50.9224" x2="21.3706" y2="39.6131" gradientTransform="matrix(1 0 0 -1 0 62)">
	<stop  offset="0" style="stop-color:#F1F1DE"/>
	<stop  offset="1" style="stop-color:#FFFFFF;stop-opacity:0"/>
</linearGradient>
<path class="st5" d="M18.3,14.2c-2.8,2.1-4.3,5-4.3,8h2.6c0-2.5,1.3-4.8,3.6-6.6c2.3-1.8,5.4-2.7,8.6-2.7h0v-2c0,0,0,0,0,0
	C24.8,10.9,21.1,12.1,18.3,14.2z"/>
</svg>
