<svg width="54" height="62" viewBox="0 0 54 62" fill="none" xmlns="http://www.w3.org/2000/svg">
<path d="M45.4592 12.675V4.525C45.4592 2.5875 43.8097 1 41.7674 1H4.69184C2.64955 1 1 2.575 1 4.525V12.6875C1 14.625 2.64955 16.2125 4.69184 16.2125H41.7674C43.8097 16.2 45.4592 14.625 45.4592 12.675Z" fill="#FBFBED"/>
<path d="M45.4592 12.675V4.525C45.4592 2.5875 43.8097 1 41.7674 1H4.69184C2.64955 1 1 2.575 1 4.525V12.6875C1 14.625 2.64955 16.2125 4.69184 16.2125H41.7674C43.8097 16.2 45.4592 14.625 45.4592 12.675Z" fill="url(#paint0_linear)"/>
<path d="M45.4592 12.675V4.525C45.4592 2.5875 43.8097 1 41.7674 1H4.69184C2.64955 1 1 2.575 1 4.525V12.6875C1 14.625 2.64955 16.2125 4.69184 16.2125H41.7674C43.8097 16.2 45.4592 14.625 45.4592 12.675Z" stroke="#CBCBBC" stroke-width="1.5" stroke-miterlimit="10" stroke-linecap="round" stroke-linejoin="round"/>
<path d="M48.2609 6.8125H45.4331V10.0125H48.2609C49.0202 10.0125 49.6486 10.6 49.6486 11.3375V20.0875C49.6486 20.8125 49.0333 21.4125 48.2609 21.4125H26.3455C23.7402 21.4125 21.6194 23.4375 21.6194 25.925V33.5125C21.6194 33.5125 24.9316 33.5125 24.9708 33.5125V25.925C24.9708 25.2 25.5862 24.6 26.3586 24.6H48.274C50.8792 24.6 53.0001 22.575 53.0001 20.0875V11.3375C53.0001 8.85 50.8661 6.8125 48.2609 6.8125Z" fill="#FBFBED"/>
<path d="M48.2609 6.8125H45.4331V10.0125H48.2609C49.0202 10.0125 49.6486 10.6 49.6486 11.3375V20.0875C49.6486 20.8125 49.0333 21.4125 48.2609 21.4125H26.3455C23.7402 21.4125 21.6194 23.4375 21.6194 25.925V33.5125C21.6194 33.5125 24.9316 33.5125 24.9708 33.5125V25.925C24.9708 25.2 25.5862 24.6 26.3586 24.6H48.274C50.8792 24.6 53.0001 22.575 53.0001 20.0875V11.3375C53.0001 8.85 50.8661 6.8125 48.2609 6.8125Z" fill="url(#paint1_linear)"/>
<path d="M48.2609 6.8125H45.4331V10.0125H48.2609C49.0202 10.0125 49.6486 10.6 49.6486 11.3375V20.0875C49.6486 20.8125 49.0333 21.4125 48.2609 21.4125H26.3455C23.7402 21.4125 21.6194 23.4375 21.6194 25.925V33.5125C21.6194 33.5125 24.9316 33.5125 24.9708 33.5125V25.925C24.9708 25.2 25.5862 24.6 26.3586 24.6H48.274C50.8792 24.6 53.0001 22.575 53.0001 20.0875V11.3375C53.0001 8.85 50.8661 6.8125 48.2609 6.8125Z" stroke="#CBCBBC" stroke-width="1.5" stroke-miterlimit="10" stroke-linecap="round" stroke-linejoin="round"/>
<path d="M24.8399 33.4875H21.6194C20.1007 33.4875 18.8701 34.6625 18.8701 36.1125V58.3751C18.8701 59.8251 20.1007 61.0001 21.6194 61.0001H24.8399C26.3585 61.0001 27.5892 59.8251 27.5892 58.3751V36.1125C27.5892 34.6625 26.3585 33.4875 24.8399 33.4875Z" fill="#FBFBED"/>
<path d="M24.8399 33.4875H21.6194C20.1007 33.4875 18.8701 34.6625 18.8701 36.1125V58.3751C18.8701 59.8251 20.1007 61.0001 21.6194 61.0001H24.8399C26.3585 61.0001 27.5892 59.8251 27.5892 58.3751V36.1125C27.5892 34.6625 26.3585 33.4875 24.8399 33.4875Z" fill="url(#paint2_linear)"/>
<path d="M24.8399 33.4875H21.6194C20.1007 33.4875 18.8701 34.6625 18.8701 36.1125V58.3751C18.8701 59.8251 20.1007 61.0001 21.6194 61.0001H24.8399C26.3585 61.0001 27.5892 59.8251 27.5892 58.3751V36.1125C27.5892 34.6625 26.3585 33.4875 24.8399 33.4875Z" stroke="#CBCBBC" stroke-width="1.5" stroke-miterlimit="10" stroke-linecap="round" stroke-linejoin="round"/>
<defs>
<linearGradient id="paint0_linear" x1="36.6209" y1="1.2383" x2="36.6209" y2="16.4508" gradientUnits="userSpaceOnUse">
<stop stop-color="#F1F1DE"/>
<stop offset="1" stop-color="white" stop-opacity="0"/>
</linearGradient>
<linearGradient id="paint1_linear" x1="46.7617" y1="7.23074" x2="46.7617" y2="33.9307" gradientUnits="userSpaceOnUse">
<stop stop-color="#F1F1DE"/>
<stop offset="1" stop-color="white" stop-opacity="0"/>
</linearGradient>
<linearGradient id="paint2_linear" x1="25.8558" y1="33.9185" x2="25.8558" y2="61.431" gradientUnits="userSpaceOnUse">
<stop stop-color="#F1F1DE"/>
<stop offset="1" stop-color="white" stop-opacity="0"/>
</linearGradient>
</defs>
</svg>
