<?xml version="1.0" encoding="utf-8"?>
<!-- Generator: Adobe Illustrator 21.0.0, SVG Export Plug-In . SVG Version: 6.00 Build 0)  -->
<svg version="1.0" id="Layer_1" xmlns="http://www.w3.org/2000/svg" xmlns:xlink="http://www.w3.org/1999/xlink" x="0px" y="0px"
	 viewBox="0 0 60 60" style="enable-background:new 0 0 60 60;" xml:space="preserve">
<style type="text/css">
	.st0{fill:#FBFBED;}
	.st1{fill:url(#SVGID_1_);}
	.st2{fill:#FFFFFF;filter:url(#Adobe_OpacityMaskFilter);}
	.st3{mask:url(#path-1-outside-1);fill:#CBCBBC;}
</style>
<path class="st0" d="M58,30c0-5.5-1.6-11-4.7-15.6c-3.1-4.6-7.4-8.2-12.6-10.3C35.6,2,30,1.5,24.5,2.5c-5.4,1.1-10.4,3.7-14.3,7.7
	c-3.9,3.9-6.6,8.9-7.7,14.3C1.5,30,2,35.6,4.1,40.7c2.1,5.1,5.7,9.5,10.3,12.6C19,56.4,24.5,58,30,58c7.4,0,14.5-3,19.8-8.2
	C55,44.5,58,37.4,58,30z M5.7,30c0-4.8,1.4-9.5,4.1-13.5c2.7-4,6.5-7.1,10.9-8.9c4.4-1.8,9.3-2.3,14-1.4c4.7,0.9,9,3.2,12.4,6.6
	c3.4,3.4,5.7,7.7,6.6,12.4s0.5,9.6-1.4,14c-1.8,4.4-4.9,8.2-8.9,10.9c-4,2.7-8.7,4.1-13.5,4.1c-6.4,0-12.6-2.6-17.2-7.1
	C8.3,42.6,5.7,36.4,5.7,30z M31.9,39.3H18.8c-0.5,0-1,0.2-1.3,0.5c-0.4,0.3-0.5,0.8-0.5,1.3c0,0.5,0.2,1,0.5,1.3
	c0.4,0.4,0.8,0.5,1.3,0.5h13.1c3,0,5.8-1.2,7.9-3.3c2.1-2.1,3.3-4.9,3.3-7.9c0-3-1.2-5.8-3.3-7.9c-2.1-2.1-4.9-3.3-7.9-3.3h-8.6
	l4.3-4.3c0.4-0.4,0.5-0.8,0.5-1.3s-0.2-1-0.5-1.3c-0.4-0.3-0.8-0.5-1.3-0.5c-0.5,0-1,0.2-1.3,0.5l-7.4,7.4c0,0,0,0,0,0
	c-0.4,0.4-0.5,0.8-0.5,1.3c0,0.5,0.2,1,0.5,1.3c0,0,0,0,0,0l7.5,7.5c0.4,0.3,0.8,0.5,1.3,0.5c0.5,0,1-0.2,1.3-0.5
	c0.3-0.3,0.5-0.8,0.5-1.3c0-0.5-0.2-1-0.5-1.3l-4.3-4.3h8.6c2,0,3.9,0.8,5.3,2.2c1.4,1.4,2.2,3.3,2.2,5.3s-0.8,3.9-2.2,5.3
	C35.7,38.5,33.8,39.3,31.9,39.3z"/>
<linearGradient id="SVGID_1_" gradientUnits="userSpaceOnUse" x1="30" y1="59.1228" x2="30" y2="3.1228" gradientTransform="matrix(1 0 0 -1 0 62)">
	<stop  offset="0" style="stop-color:#F1F1DE"/>
	<stop  offset="1" style="stop-color:#FFFFFF;stop-opacity:0"/>
</linearGradient>
<path class="st1" d="M58,30c0-5.5-1.6-11-4.7-15.6c-3.1-4.6-7.4-8.2-12.6-10.3C35.6,2,30,1.5,24.5,2.5c-5.4,1.1-10.4,3.7-14.3,7.7
	c-3.9,3.9-6.6,8.9-7.7,14.3C1.5,30,2,35.6,4.1,40.7c2.1,5.1,5.7,9.5,10.3,12.6C19,56.4,24.5,58,30,58c7.4,0,14.5-3,19.8-8.2
	C55,44.5,58,37.4,58,30z M5.7,30c0-4.8,1.4-9.5,4.1-13.5c2.7-4,6.5-7.1,10.9-8.9c4.4-1.8,9.3-2.3,14-1.4c4.7,0.9,9,3.2,12.4,6.6
	c3.4,3.4,5.7,7.7,6.6,12.4s0.5,9.6-1.4,14c-1.8,4.4-4.9,8.2-8.9,10.9c-4,2.7-8.7,4.1-13.5,4.1c-6.4,0-12.6-2.6-17.2-7.1
	C8.3,42.6,5.7,36.4,5.7,30z M31.9,39.3H18.8c-0.5,0-1,0.2-1.3,0.5c-0.4,0.3-0.5,0.8-0.5,1.3c0,0.5,0.2,1,0.5,1.3
	c0.4,0.4,0.8,0.5,1.3,0.5h13.1c3,0,5.8-1.2,7.9-3.3c2.1-2.1,3.3-4.9,3.3-7.9c0-3-1.2-5.8-3.3-7.9c-2.1-2.1-4.9-3.3-7.9-3.3h-8.6
	l4.3-4.3c0.4-0.4,0.5-0.8,0.5-1.3s-0.2-1-0.5-1.3c-0.4-0.3-0.8-0.5-1.3-0.5c-0.5,0-1,0.2-1.3,0.5l-7.4,7.4c0,0,0,0,0,0
	c-0.4,0.4-0.5,0.8-0.5,1.3c0,0.5,0.2,1,0.5,1.3c0,0,0,0,0,0l7.5,7.5c0.4,0.3,0.8,0.5,1.3,0.5c0.5,0,1-0.2,1.3-0.5
	c0.3-0.3,0.5-0.8,0.5-1.3c0-0.5-0.2-1-0.5-1.3l-4.3-4.3h8.6c2,0,3.9,0.8,5.3,2.2c1.4,1.4,2.2,3.3,2.2,5.3s-0.8,3.9-2.2,5.3
	C35.7,38.5,33.8,39.3,31.9,39.3z"/>
<defs>
	<filter id="Adobe_OpacityMaskFilter" filterUnits="userSpaceOnUse" x="0.5" y="0.5" width="59" height="59">
		<feColorMatrix  type="matrix" values="1 0 0 0 0  0 1 0 0 0  0 0 1 0 0  0 0 0 1 0"/>
	</filter>
</defs>
<mask maskUnits="userSpaceOnUse" x="0.5" y="0.5" width="59" height="59" id="path-1-outside-1">
	<rect class="st2" width="60" height="60"/>
	<path d="M58,30c0-5.5-1.6-11-4.7-15.6c-3.1-4.6-7.4-8.2-12.6-10.3C35.6,2,30,1.5,24.5,2.5c-5.4,1.1-10.4,3.7-14.3,7.7
		c-3.9,3.9-6.6,8.9-7.7,14.3C1.5,30,2,35.6,4.1,40.7c2.1,5.1,5.7,9.5,10.3,12.6C19,56.4,24.5,58,30,58c7.4,0,14.5-3,19.8-8.2
		C55,44.5,58,37.4,58,30z M5.7,30c0-4.8,1.4-9.5,4.1-13.5c2.7-4,6.5-7.1,10.9-8.9c4.4-1.8,9.3-2.3,14-1.4c4.7,0.9,9,3.2,12.4,6.6
		c3.4,3.4,5.7,7.7,6.6,12.4s0.5,9.6-1.4,14c-1.8,4.4-4.9,8.2-8.9,10.9c-4,2.7-8.7,4.1-13.5,4.1c-6.4,0-12.6-2.6-17.2-7.1
		C8.3,42.6,5.7,36.4,5.7,30z M31.9,39.3H18.8c-0.5,0-1,0.2-1.3,0.5c-0.4,0.3-0.5,0.8-0.5,1.3c0,0.5,0.2,1,0.5,1.3
		c0.4,0.4,0.8,0.5,1.3,0.5h13.1c3,0,5.8-1.2,7.9-3.3c2.1-2.1,3.3-4.9,3.3-7.9c0-3-1.2-5.8-3.3-7.9c-2.1-2.1-4.9-3.3-7.9-3.3h-8.6
		l4.3-4.3c0.4-0.4,0.5-0.8,0.5-1.3s-0.2-1-0.5-1.3c-0.4-0.3-0.8-0.5-1.3-0.5c-0.5,0-1,0.2-1.3,0.5l-7.4,7.4c0,0,0,0,0,0
		c-0.4,0.4-0.5,0.8-0.5,1.3c0,0.5,0.2,1,0.5,1.3c0,0,0,0,0,0l7.5,7.5c0.4,0.3,0.8,0.5,1.3,0.5c0.5,0,1-0.2,1.3-0.5
		c0.3-0.3,0.5-0.8,0.5-1.3c0-0.5-0.2-1-0.5-1.3l-4.3-4.3h8.6c2,0,3.9,0.8,5.3,2.2c1.4,1.4,2.2,3.3,2.2,5.3s-0.8,3.9-2.2,5.3
		C35.7,38.5,33.8,39.3,31.9,39.3z"/>
</mask>
<path class="st3" d="M58,30l1.5,0v0H58z M40.7,4.1l0.6-1.4L40.7,4.1z M24.5,2.5L24.8,4L24.5,2.5z M10.2,10.2L9.1,9.1l0,0L10.2,10.2z
	 M2.5,24.5L4,24.8L2.5,24.5z M4.1,40.7l-1.4,0.6L4.1,40.7z M30,58v1.5h0L30,58z M49.8,49.8l1.1,1.1L49.8,49.8z M9.8,16.5l1.2,0.8
	L9.8,16.5z M5.7,30H4.2l0,0L5.7,30z M34.7,6.2l-0.3,1.5L34.7,6.2z M47.2,12.8l-1.1,1.1L47.2,12.8z M53.8,25.3l-1.5,0.3l0,0
	L53.8,25.3z M52.4,39.3L51,38.7l0,0L52.4,39.3z M43.5,50.2l-0.8-1.2L43.5,50.2z M30,54.3l0,1.5h0V54.3z M12.8,47.2l-1.1,1.1
	L12.8,47.2z M17.5,39.9l-1.1-1.1l0,0L17.5,39.9z M17.5,42.5l-1.1,1.1l0,0L17.5,42.5z M31.9,43.1v1.5l0,0V43.1z M39.8,23.9l1.1-1.1
	L39.8,23.9z M23.3,20.7l-1.1-1.1l-2.6,2.6h3.6V20.7z M27.6,16.4l1.1,1.1l0,0L27.6,16.4z M27.6,13.7l1.1-1.1l0,0L27.6,13.7z
	 M24.9,13.7l-1.1-1.1l0,0L24.9,13.7z M17.5,21.2l1,1.1l0,0l0,0L17.5,21.2z M17.5,21.2l-1.1-1.1l0,0L17.5,21.2z M17.5,23.9l1.1-1.1
	l0,0l0,0L17.5,23.9z M24.9,31.3l-1.1,1.1l0,0l0,0L24.9,31.3z M26.3,31.8l0-1.5L26.3,31.8z M28.1,30l1.5,0L28.1,30z M27.6,28.7l1.1-1
	l0,0l0,0L27.6,28.7z M23.3,24.4v-1.5h-3.6l2.6,2.6L23.3,24.4z M37.1,26.6l-1.1,1.1L37.1,26.6z M37.1,37.1l-1.1-1.1l0,0L37.1,37.1z
	 M52,15.3c2.9,4.4,4.5,9.5,4.5,14.7h3c0-5.8-1.7-11.5-5-16.4L52,15.3z M40.1,5.5c4.8,2,9,5.4,11.9,9.8l2.5-1.7
	C51.3,8.8,46.7,5,41.3,2.7L40.1,5.5z M24.8,4C30,3,35.3,3.5,40.1,5.5l1.1-2.8c-5.4-2.2-11.3-2.8-17-1.7L24.8,4z M11.3,11.3
	C15,7.6,19.7,5,24.8,4l-0.6-2.9C18.5,2.2,13.3,5,9.1,9.1L11.3,11.3z M4,24.8c1-5.1,3.5-9.9,7.3-13.6L9.1,9.1
	C5,13.3,2.2,18.5,1.1,24.2L4,24.8z M5.5,40.1C3.5,35.3,3,30,4,24.8l-2.9-0.6c-1.1,5.7-0.6,11.7,1.7,17L5.5,40.1z M15.3,52
	c-4.4-2.9-7.8-7.1-9.8-11.9l-2.8,1.1c2.2,5.4,6,10,10.9,13.2L15.3,52z M30,56.5c-5.2,0-10.4-1.6-14.7-4.5l-1.7,2.5
	c4.9,3.2,10.6,5,16.4,5V56.5z M48.7,48.7c-5,5-11.7,7.8-18.7,7.8l0,3c7.8,0,15.3-3.1,20.8-8.6L48.7,48.7z M56.5,30
	c0,7-2.8,13.8-7.8,18.7l2.1,2.1c5.5-5.5,8.6-13,8.6-20.8L56.5,30z M8.6,15.7C5.7,19.9,4.2,24.9,4.2,30h3c0-4.5,1.3-8.9,3.8-12.6
	L8.6,15.7z M20.1,6.2c-4.7,2-8.7,5.3-11.6,9.5l2.5,1.7c2.5-3.7,6.1-6.7,10.2-8.4L20.1,6.2z M35,4.7c-5-1-10.2-0.5-14.9,1.5L21.3,9
	c4.2-1.7,8.7-2.2,13.2-1.3L35,4.7z M48.2,11.8C44.6,8.2,40,5.7,35,4.7l-0.6,2.9c4.4,0.9,8.5,3,11.7,6.2L48.2,11.8z M55.3,25
	c-1-5-3.4-9.6-7.1-13.2l-2.1,2.1c3.2,3.2,5.4,7.2,6.2,11.7L55.3,25z M53.8,39.9c2-4.7,2.5-9.9,1.5-14.9l-2.9,0.6
	c0.9,4.4,0.4,9-1.3,13.2L53.8,39.9z M44.3,51.4c4.2-2.8,7.5-6.9,9.5-11.6L51,38.7c-1.7,4.2-4.6,7.7-8.4,10.2L44.3,51.4z M30,55.8
	c5.1,0,10.1-1.5,14.3-4.3l-1.7-2.5c-3.7,2.5-8.1,3.8-12.6,3.8V55.8z M11.8,48.2c4.8,4.8,11.4,7.5,18.2,7.6l0-3
	c-6,0-11.8-2.4-16.1-6.7L11.8,48.2z M4.2,30c0,6.8,2.7,13.4,7.6,18.2l2.1-2.1C9.6,41.8,7.2,36,7.2,30L4.2,30z M18.8,40.8h13.1v-3
	H18.8V40.8z M18.5,40.9c0.1-0.1,0.2-0.1,0.3-0.1v-3c-0.9,0-1.7,0.4-2.4,1L18.5,40.9z M18.4,41.2c0-0.1,0-0.2,0.1-0.3l-2.1-2.1
	c-0.6,0.6-1,1.5-1,2.4H18.4z M18.5,41.5c-0.1-0.1-0.1-0.2-0.1-0.3h-3c0,0.9,0.4,1.7,1,2.4L18.5,41.5z M18.8,41.6
	c-0.1,0-0.2,0-0.3-0.1l-2.1,2.1c0.6,0.6,1.5,1,2.4,1V41.6z M31.9,41.6H18.8v3h13.1V41.6z M38.7,38.7c-1.8,1.8-4.3,2.8-6.9,2.8v3
	c3.4,0,6.6-1.3,9-3.7L38.7,38.7z M41.6,31.9c0,2.6-1,5-2.8,6.9l2.1,2.1c2.4-2.4,3.7-5.6,3.7-9H41.6z M38.7,25
	c1.8,1.8,2.8,4.3,2.8,6.9h3c0-3.4-1.3-6.6-3.7-9L38.7,25z M31.9,22.2c2.6,0,5,1,6.9,2.8l2.1-2.1c-2.4-2.4-5.6-3.7-9-3.7V22.2z
	 M23.3,22.2h8.6v-3h-8.6V22.2z M24.4,21.7l4.3-4.3l-2.1-2.1l-4.3,4.3L24.4,21.7z M28.6,17.4c0.6-0.6,1-1.5,1-2.4h-3
	c0,0.1,0,0.2-0.1,0.3L28.6,17.4z M29.6,15.1c0-0.9-0.4-1.7-1-2.4l-2.1,2.1c0.1,0.1,0.1,0.2,0.1,0.3H29.6z M28.6,12.7
	c-0.6-0.6-1.5-1-2.4-1v3c0.1,0,0.2,0,0.3,0.1L28.6,12.7z M26.3,11.7c-0.9,0-1.7,0.4-2.4,1l2.1,2.1c0.1-0.1,0.2-0.1,0.3-0.1V11.7z
	 M23.9,12.7l-7.4,7.4l2.1,2.1l7.4-7.4L23.9,12.7z M18.5,22.3C18.5,22.3,18.5,22.3,18.5,22.3l-2.1-2.2c0,0,0,0,0,0L18.5,22.3z
	 M18.4,22.5c0-0.1,0-0.2,0.1-0.3l-2.1-2.1c-0.6,0.6-1,1.5-1,2.4H18.4z M18.5,22.8c-0.1-0.1-0.1-0.2-0.1-0.3h-3c0,0.9,0.4,1.7,1,2.4
	L18.5,22.8z M18.5,22.8C18.5,22.8,18.5,22.8,18.5,22.8l-2.1,2.1c0,0,0,0,0,0L18.5,22.8z M16.4,24.9l7.5,7.5l2.1-2.1l-7.5-7.5
	L16.4,24.9z M23.9,32.4c0.6,0.6,1.5,1,2.4,0.9l0-3c-0.1,0-0.2,0-0.3-0.1L23.9,32.4z M26.3,33.3c0.9,0,1.7-0.4,2.4-1l-2.1-2.1
	c-0.1,0.1-0.2,0.1-0.3,0.1L26.3,33.3z M28.6,32.4c0.6-0.6,1-1.5,1-2.4l-3,0c0,0.1,0,0.2-0.1,0.3L28.6,32.4z M29.6,30
	c0-0.9-0.3-1.7-0.9-2.4l-2.2,2.1c0.1,0.1,0.1,0.2,0.1,0.3L29.6,30z M28.6,27.6l-4.3-4.3l-2.1,2.1l4.3,4.3L28.6,27.6z M31.9,22.9
	h-8.6v3h8.6V22.9z M38.2,25.5c-1.7-1.7-4-2.6-6.3-2.6v3c1.6,0,3.1,0.6,4.2,1.7L38.2,25.5z M40.8,31.9c0-2.4-0.9-4.7-2.6-6.3
	l-2.1,2.1c1.1,1.1,1.7,2.6,1.7,4.2H40.8z M38.2,38.2c1.7-1.7,2.6-4,2.6-6.3h-3c0,1.6-0.6,3.1-1.7,4.2L38.2,38.2z M31.9,40.8
	c2.4,0,4.7-0.9,6.3-2.6l-2.1-2.1c-1.1,1.1-2.6,1.7-4.2,1.7V40.8z"/>
</svg>
