<svg width="60" height="60" viewBox="0 0 60 60" fill="none" xmlns="http://www.w3.org/2000/svg">
<mask id="path-1-outside-1" maskUnits="userSpaceOnUse" x="0" y="0" width="60" height="60" fill="black">
<rect fill="white" width="60" height="60"/>
<path fill-rule="evenodd" clip-rule="evenodd" d="M58 30C58 24.4621 56.3578 19.0486 53.2812 14.444C50.2045 9.83947 45.8315 6.25064 40.7151 4.13139C35.5988 2.01213 29.9689 1.45764 24.5375 2.53802C19.106 3.61841 14.1169 6.28515 10.201 10.201C6.28515 14.1169 3.61841 19.106 2.53802 24.5375C1.45764 29.9689 2.01213 35.5988 4.13139 40.7151C6.25064 45.8315 9.83947 50.2045 14.444 53.2812C19.0486 56.3578 24.4621 58 30 58C37.4235 57.9918 44.5407 55.0392 49.7899 49.7899C55.0392 44.5407 57.9918 37.4235 58 30ZM5.73334 30C5.73334 25.2005 7.15656 20.5088 9.82301 16.5182C12.4895 12.5275 16.2794 9.41722 20.7136 7.58053C25.1477 5.74385 30.0269 5.26329 34.7342 6.19962C39.4415 7.13596 43.7654 9.44713 47.1591 12.8409C50.5529 16.2346 52.8641 20.5585 53.8004 25.2658C54.7367 29.9731 54.2562 34.8523 52.4195 39.2865C50.5828 43.7206 47.4725 47.5105 43.4818 50.177C39.4912 52.8435 34.7995 54.2667 30 54.2667C23.5664 54.2593 17.3983 51.7002 12.8491 47.1509C8.29979 42.6017 5.74076 36.4336 5.73334 30ZM31.8666 39.3333H18.7999C18.3048 39.3333 17.83 39.53 17.48 39.8801C17.1299 40.2301 16.9332 40.7049 16.9332 41.2C16.9332 41.6951 17.1299 42.1699 17.48 42.5199C17.83 42.87 18.3048 43.0667 18.7999 43.0667H31.8666C34.837 43.0667 37.6857 41.8867 39.7861 39.7863C41.8866 37.6859 43.0665 34.8371 43.0665 31.8667C43.0665 28.8962 41.8866 26.0475 39.7861 23.9471C37.6857 21.8467 34.837 20.6667 31.8666 20.6667H23.3059L27.5861 16.3864C27.9361 16.0364 28.1327 15.5617 28.1327 15.0667C28.1327 14.5717 27.9361 14.097 27.5861 13.747C27.2361 13.397 26.7614 13.2004 26.2664 13.2004C25.7714 13.2004 25.2967 13.397 24.9467 13.747L17.4991 21.1945C17.4927 21.2008 17.4863 21.2071 17.48 21.2134C17.1299 21.5635 16.9332 22.0383 16.9332 22.5333C16.9332 23.0284 17.1299 23.5032 17.48 23.8533C17.4854 23.8587 17.4908 23.864 17.4963 23.8694L24.9467 31.3198C25.2987 31.6598 25.7702 31.848 26.2597 31.8437C26.7491 31.8394 27.2173 31.6431 27.5634 31.297C27.9095 30.9509 28.1058 30.4828 28.11 29.9933C28.1143 29.5039 27.9262 29.0324 27.5861 28.6803L23.3058 24.4H31.8666C33.8468 24.4 35.746 25.1867 37.1463 26.5869C38.5466 27.9872 39.3332 29.8864 39.3332 31.8667C39.3332 33.847 38.5466 35.7461 37.1463 37.1464C35.746 38.5467 33.8468 39.3333 31.8666 39.3333Z"/>
</mask>
<path fill-rule="evenodd" clip-rule="evenodd" d="M58 30C58 24.4621 56.3578 19.0486 53.2812 14.444C50.2045 9.83947 45.8315 6.25064 40.7151 4.13139C35.5988 2.01213 29.9689 1.45764 24.5375 2.53802C19.106 3.61841 14.1169 6.28515 10.201 10.201C6.28515 14.1169 3.61841 19.106 2.53802 24.5375C1.45764 29.9689 2.01213 35.5988 4.13139 40.7151C6.25064 45.8315 9.83947 50.2045 14.444 53.2812C19.0486 56.3578 24.4621 58 30 58C37.4235 57.9918 44.5407 55.0392 49.7899 49.7899C55.0392 44.5407 57.9918 37.4235 58 30ZM5.73334 30C5.73334 25.2005 7.15656 20.5088 9.82301 16.5182C12.4895 12.5275 16.2794 9.41722 20.7136 7.58053C25.1477 5.74385 30.0269 5.26329 34.7342 6.19962C39.4415 7.13596 43.7654 9.44713 47.1591 12.8409C50.5529 16.2346 52.8641 20.5585 53.8004 25.2658C54.7367 29.9731 54.2562 34.8523 52.4195 39.2865C50.5828 43.7206 47.4725 47.5105 43.4818 50.177C39.4912 52.8435 34.7995 54.2667 30 54.2667C23.5664 54.2593 17.3983 51.7002 12.8491 47.1509C8.29979 42.6017 5.74076 36.4336 5.73334 30ZM31.8666 39.3333H18.7999C18.3048 39.3333 17.83 39.53 17.48 39.8801C17.1299 40.2301 16.9332 40.7049 16.9332 41.2C16.9332 41.6951 17.1299 42.1699 17.48 42.5199C17.83 42.87 18.3048 43.0667 18.7999 43.0667H31.8666C34.837 43.0667 37.6857 41.8867 39.7861 39.7863C41.8866 37.6859 43.0665 34.8371 43.0665 31.8667C43.0665 28.8962 41.8866 26.0475 39.7861 23.9471C37.6857 21.8467 34.837 20.6667 31.8666 20.6667H23.3059L27.5861 16.3864C27.9361 16.0364 28.1327 15.5617 28.1327 15.0667C28.1327 14.5717 27.9361 14.097 27.5861 13.747C27.2361 13.397 26.7614 13.2004 26.2664 13.2004C25.7714 13.2004 25.2967 13.397 24.9467 13.747L17.4991 21.1945C17.4927 21.2008 17.4863 21.2071 17.48 21.2134C17.1299 21.5635 16.9332 22.0383 16.9332 22.5333C16.9332 23.0284 17.1299 23.5032 17.48 23.8533C17.4854 23.8587 17.4908 23.864 17.4963 23.8694L24.9467 31.3198C25.2987 31.6598 25.7702 31.848 26.2597 31.8437C26.7491 31.8394 27.2173 31.6431 27.5634 31.297C27.9095 30.9509 28.1058 30.4828 28.11 29.9933C28.1143 29.5039 27.9262 29.0324 27.5861 28.6803L23.3058 24.4H31.8666C33.8468 24.4 35.746 25.1867 37.1463 26.5869C38.5466 27.9872 39.3332 29.8864 39.3332 31.8667C39.3332 33.847 38.5466 35.7461 37.1463 37.1464C35.746 38.5467 33.8468 39.3333 31.8666 39.3333Z" fill="#FBFBED"/>
<path fill-rule="evenodd" clip-rule="evenodd" d="M58 30C58 24.4621 56.3578 19.0486 53.2812 14.444C50.2045 9.83947 45.8315 6.25064 40.7151 4.13139C35.5988 2.01213 29.9689 1.45764 24.5375 2.53802C19.106 3.61841 14.1169 6.28515 10.201 10.201C6.28515 14.1169 3.61841 19.106 2.53802 24.5375C1.45764 29.9689 2.01213 35.5988 4.13139 40.7151C6.25064 45.8315 9.83947 50.2045 14.444 53.2812C19.0486 56.3578 24.4621 58 30 58C37.4235 57.9918 44.5407 55.0392 49.7899 49.7899C55.0392 44.5407 57.9918 37.4235 58 30ZM5.73334 30C5.73334 25.2005 7.15656 20.5088 9.82301 16.5182C12.4895 12.5275 16.2794 9.41722 20.7136 7.58053C25.1477 5.74385 30.0269 5.26329 34.7342 6.19962C39.4415 7.13596 43.7654 9.44713 47.1591 12.8409C50.5529 16.2346 52.8641 20.5585 53.8004 25.2658C54.7367 29.9731 54.2562 34.8523 52.4195 39.2865C50.5828 43.7206 47.4725 47.5105 43.4818 50.177C39.4912 52.8435 34.7995 54.2667 30 54.2667C23.5664 54.2593 17.3983 51.7002 12.8491 47.1509C8.29979 42.6017 5.74076 36.4336 5.73334 30ZM31.8666 39.3333H18.7999C18.3048 39.3333 17.83 39.53 17.48 39.8801C17.1299 40.2301 16.9332 40.7049 16.9332 41.2C16.9332 41.6951 17.1299 42.1699 17.48 42.5199C17.83 42.87 18.3048 43.0667 18.7999 43.0667H31.8666C34.837 43.0667 37.6857 41.8867 39.7861 39.7863C41.8866 37.6859 43.0665 34.8371 43.0665 31.8667C43.0665 28.8962 41.8866 26.0475 39.7861 23.9471C37.6857 21.8467 34.837 20.6667 31.8666 20.6667H23.3059L27.5861 16.3864C27.9361 16.0364 28.1327 15.5617 28.1327 15.0667C28.1327 14.5717 27.9361 14.097 27.5861 13.747C27.2361 13.397 26.7614 13.2004 26.2664 13.2004C25.7714 13.2004 25.2967 13.397 24.9467 13.747L17.4991 21.1945C17.4927 21.2008 17.4863 21.2071 17.48 21.2134C17.1299 21.5635 16.9332 22.0383 16.9332 22.5333C16.9332 23.0284 17.1299 23.5032 17.48 23.8533C17.4854 23.8587 17.4908 23.864 17.4963 23.8694L24.9467 31.3198C25.2987 31.6598 25.7702 31.848 26.2597 31.8437C26.7491 31.8394 27.2173 31.6431 27.5634 31.297C27.9095 30.9509 28.1058 30.4828 28.11 29.9933C28.1143 29.5039 27.9262 29.0324 27.5861 28.6803L23.3058 24.4H31.8666C33.8468 24.4 35.746 25.1867 37.1463 26.5869C38.5466 27.9872 39.3332 29.8864 39.3332 31.8667C39.3332 33.847 38.5466 35.7461 37.1463 37.1464C35.746 38.5467 33.8468 39.3333 31.8666 39.3333Z" fill="url(#paint0_linear)"/>
<path d="M58 30L59.5 30.0017V30H58ZM40.7151 4.13139L41.2892 2.74557L40.7151 4.13139ZM24.5375 2.53802L24.8301 4.0092L24.5375 2.53802ZM10.201 10.201L9.14036 9.14036L9.14036 9.14036L10.201 10.201ZM2.53802 24.5375L4.0092 24.8301L2.53802 24.5375ZM4.13139 40.7151L2.74557 41.2892L4.13139 40.7151ZM30 58V59.5H30.0017L30 58ZM49.7899 49.7899L50.8506 50.8506L49.7899 49.7899ZM9.82301 16.5182L11.0702 17.3515L9.82301 16.5182ZM5.73334 30H4.23334L4.23335 30.0017L5.73334 30ZM34.7342 6.19962L34.4416 7.6708L34.7342 6.19962ZM47.1591 12.8409L46.0985 13.9015L47.1591 12.8409ZM53.8004 25.2658L52.3292 25.5585L52.3292 25.5585L53.8004 25.2658ZM52.4195 39.2865L51.0337 38.7124V38.7124L52.4195 39.2865ZM43.4818 50.177L42.6485 48.9298L43.4818 50.177ZM30 54.2667L29.9983 55.7667H30V54.2667ZM12.8491 47.1509L11.7884 48.2116L12.8491 47.1509ZM17.48 39.8801L16.4193 38.8194L16.4193 38.8194L17.48 39.8801ZM17.48 42.5199L16.4193 43.5806H16.4193L17.48 42.5199ZM31.8666 43.0667V44.5667H31.8666L31.8666 43.0667ZM39.7861 23.9471L40.8468 22.8864L39.7861 23.9471ZM23.3059 20.6667L22.2452 19.606L19.6846 22.1667H23.3059V20.6667ZM27.5861 16.3864L28.6468 17.4471L28.6469 17.4469L27.5861 16.3864ZM27.5861 13.747L28.6469 12.6865L28.6466 12.6862L27.5861 13.747ZM24.9467 13.747L23.8862 12.6862L23.886 12.6863L24.9467 13.747ZM17.4991 21.1945L18.5445 22.2703L18.5522 22.2628L18.5598 22.2552L17.4991 21.1945ZM17.48 21.2134L16.4193 20.1528L16.4193 20.1528L17.48 21.2134ZM17.4963 23.8694L18.5569 22.8087L18.5504 22.8022L18.5438 22.7958L17.4963 23.8694ZM24.9467 31.3198L23.886 32.3804L23.8952 32.3897L23.9046 32.3987L24.9467 31.3198ZM26.2597 31.8437L26.2466 30.3438L26.2597 31.8437ZM28.11 29.9933L29.61 30.0064L28.11 29.9933ZM27.5861 28.6803L28.6651 27.6382L28.656 27.6289L28.6468 27.6196L27.5861 28.6803ZM23.3058 24.4V22.9H19.6845L22.2452 25.4607L23.3058 24.4ZM37.1463 26.5869L36.0856 27.6476L37.1463 26.5869ZM37.1463 37.1464L36.0856 36.0857L36.0856 36.0857L37.1463 37.1464ZM52.0339 15.2774C54.9458 19.6353 56.5 24.7588 56.5 30H59.5C59.5 24.1655 57.7699 18.4619 54.5284 13.6107L52.0339 15.2774ZM40.1411 5.5172C44.9834 7.52293 49.1221 10.9195 52.0339 15.2774L54.5284 13.6107C51.2869 8.75944 46.6796 4.97835 41.2892 2.74557L40.1411 5.5172ZM24.8301 4.0092C29.9706 2.98669 35.2989 3.51148 40.1411 5.5172L41.2892 2.74557C35.8987 0.512782 29.9673 -0.0714171 24.2448 1.06685L24.8301 4.0092ZM11.2617 11.2617C14.9678 7.55559 19.6896 5.03171 24.8301 4.0092L24.2448 1.06685C18.5224 2.20511 13.266 5.01471 9.14036 9.14036L11.2617 11.2617ZM4.0092 24.8301C5.03171 19.6896 7.55559 14.9678 11.2617 11.2617L9.14036 9.14036C5.01471 13.266 2.20511 18.5224 1.06685 24.2448L4.0092 24.8301ZM5.5172 40.1411C3.51148 35.2989 2.98669 29.9706 4.0092 24.8301L1.06685 24.2448C-0.0714171 29.9673 0.512782 35.8987 2.74557 41.2892L5.5172 40.1411ZM15.2774 52.0339C10.9195 49.1221 7.52293 44.9834 5.5172 40.1411L2.74557 41.2892C4.97835 46.6796 8.75944 51.2869 13.6107 54.5284L15.2774 52.0339ZM30 56.5C24.7588 56.5 19.6353 54.9458 15.2774 52.0339L13.6107 54.5284C18.4619 57.7699 24.1655 59.5 30 59.5V56.5ZM48.7293 48.7293C43.7609 53.6976 37.0246 56.4922 29.9983 56.5L30.0017 59.5C37.8225 59.4914 45.3205 56.3807 50.8506 50.8506L48.7293 48.7293ZM56.5 29.9983C56.4922 37.0246 53.6976 43.7609 48.7293 48.7293L50.8506 50.8506C56.3807 45.3205 59.4914 37.8225 59.5 30.0017L56.5 29.9983ZM8.57581 15.6848C5.74453 19.9221 4.23334 24.9038 4.23334 30H7.23334C7.23334 25.4972 8.56859 21.0955 11.0702 17.3515L8.57581 15.6848ZM20.1395 6.19472C15.4313 8.14493 11.4071 11.4475 8.57581 15.6848L11.0702 17.3515C13.5719 13.6076 17.1275 10.6895 21.2876 8.96635L20.1395 6.19472ZM35.0268 4.72844C30.0286 3.73423 24.8478 4.2445 20.1395 6.19472L21.2876 8.96635C25.4476 7.2432 30.0253 6.79234 34.4416 7.6708L35.0268 4.72844ZM48.2198 11.7802C44.6163 8.17669 40.0251 5.72266 35.0268 4.72844L34.4416 7.6708C38.8579 8.54926 42.9145 10.7176 46.0985 13.9015L48.2198 11.7802ZM55.2716 24.9732C54.2774 19.9749 51.8233 15.3838 48.2198 11.7802L46.0985 13.9015C49.2824 17.0855 51.4508 21.1422 52.3292 25.5585L55.2716 24.9732ZM53.8053 39.8605C55.7555 35.1522 56.2658 29.9714 55.2716 24.9732L52.3292 25.5585C53.2077 29.9748 52.7568 34.5524 51.0337 38.7124L53.8053 39.8605ZM44.3152 51.4242C48.5525 48.5929 51.8551 44.5687 53.8053 39.8605L51.0337 38.7124C49.3105 42.8725 46.3924 46.4282 42.6485 48.9298L44.3152 51.4242ZM30 55.7667C35.0962 55.7667 40.0779 54.2555 44.3152 51.4242L42.6485 48.9298C38.9045 51.4314 34.5028 52.7667 30 52.7667V55.7667ZM11.7884 48.2116C16.6186 53.0418 23.1674 55.7588 29.9983 55.7667L30.0017 52.7667C23.9653 52.7597 18.1781 50.3587 13.9097 46.0903L11.7884 48.2116ZM4.23335 30.0017C4.24121 36.8326 6.95825 43.3814 11.7884 48.2116L13.9097 46.0903C9.64134 41.8219 7.2403 36.0347 7.23334 29.9983L4.23335 30.0017ZM18.7999 40.8333H31.8666V37.8333H18.7999V40.8333ZM18.5406 40.9407C18.6094 40.872 18.7026 40.8333 18.7999 40.8333V37.8333C17.907 37.8333 17.0507 38.188 16.4193 38.8194L18.5406 40.9407ZM18.4332 41.2C18.4332 41.1028 18.4719 41.0095 18.5406 40.9407L16.4193 38.8194C15.7879 39.4508 15.4332 40.3071 15.4332 41.2H18.4332ZM18.5406 41.4593C18.4719 41.3905 18.4332 41.2973 18.4332 41.2H15.4332C15.4332 42.0929 15.7879 42.9492 16.4193 43.5806L18.5406 41.4593ZM18.7999 41.5667C18.7026 41.5667 18.6094 41.528 18.5406 41.4593L16.4193 43.5806C17.0507 44.212 17.907 44.5667 18.7999 44.5667V41.5667ZM31.8666 41.5667H18.7999V44.5667H31.8666V41.5667ZM38.7255 38.7256C36.9064 40.5447 34.4392 41.5667 31.8666 41.5667L31.8666 44.5667C35.2348 44.5667 38.4651 43.2286 40.8468 40.8469L38.7255 38.7256ZM41.5665 31.8667C41.5665 34.4393 40.5446 36.9065 38.7255 38.7256L40.8468 40.8469C43.2285 38.4652 44.5665 35.2349 44.5665 31.8667H41.5665ZM38.7255 25.0077C40.5446 26.8268 41.5665 29.2941 41.5665 31.8667H44.5665C44.5665 28.4984 43.2285 25.2681 40.8468 22.8864L38.7255 25.0077ZM31.8666 22.1667C34.4392 22.1667 36.9064 23.1886 38.7255 25.0077L40.8468 22.8864C38.4651 20.5047 35.2348 19.1667 31.8666 19.1667V22.1667ZM23.3059 22.1667H31.8666V19.1667H23.3059V22.1667ZM24.3666 21.7273L28.6468 17.4471L26.5255 15.3258L22.2452 19.606L24.3666 21.7273ZM28.6469 17.4469C29.2781 16.8156 29.6327 15.9594 29.6327 15.0667H26.6327C26.6327 15.1639 26.594 15.2572 26.5253 15.3259L28.6469 17.4469ZM29.6327 15.0667C29.6327 14.174 29.2781 13.3178 28.6469 12.6865L26.5253 14.8075C26.594 14.8762 26.6327 14.9695 26.6327 15.0667H29.6327ZM28.6466 12.6862C28.0153 12.055 27.1591 11.7004 26.2664 11.7004V14.7004C26.3636 14.7004 26.4569 14.7391 26.5256 14.8078L28.6466 12.6862ZM26.2664 11.7004C25.3737 11.7004 24.5175 12.055 23.8862 12.6862L26.0072 14.8078C26.0759 14.7391 26.1692 14.7004 26.2664 14.7004V11.7004ZM23.886 12.6863L16.4385 20.1338L18.5598 22.2552L26.0073 14.8076L23.886 12.6863ZM18.5406 22.2741C18.5418 22.2729 18.5431 22.2716 18.5445 22.2703L16.4538 20.1187C16.4423 20.1299 16.4308 20.1412 16.4193 20.1528L18.5406 22.2741ZM18.4332 22.5333C18.4332 22.4361 18.4719 22.3428 18.5406 22.2741L16.4193 20.1528C15.7879 20.7841 15.4332 21.6404 15.4332 22.5333H18.4332ZM18.5406 22.7926C18.4719 22.7239 18.4332 22.6306 18.4332 22.5333H15.4332C15.4332 23.4262 15.7879 24.2826 16.4193 24.9139L18.5406 22.7926ZM18.5438 22.7958C18.5428 22.7948 18.5417 22.7937 18.5406 22.7926L16.4193 24.9139C16.429 24.9236 16.4388 24.9333 16.4487 24.943L18.5438 22.7958ZM16.4356 24.93L23.886 32.3804L26.0073 30.2591L18.5569 22.8087L16.4356 24.93ZM23.9046 32.3987C24.5396 33.012 25.39 33.3513 26.2727 33.3436L26.2466 30.3438C26.1505 30.3446 26.0579 30.3076 25.9887 30.2408L23.9046 32.3987ZM26.2727 33.3436C27.1554 33.336 27.9998 32.9819 28.624 32.3577L26.5027 30.2364C26.4347 30.3044 26.3428 30.3429 26.2466 30.3438L26.2727 33.3436ZM28.624 32.3577C29.2483 31.7335 29.6023 30.8891 29.61 30.0064L26.6101 29.9803C26.6093 30.0764 26.5707 30.1684 26.5027 30.2364L28.624 32.3577ZM29.61 30.0064C29.6177 29.1236 29.2783 28.2732 28.6651 27.6382L26.5072 29.7224C26.574 29.7915 26.6109 29.8842 26.6101 29.9803L29.61 30.0064ZM28.6468 27.6196L24.3665 23.3393L22.2452 25.4607L26.5255 29.741L28.6468 27.6196ZM31.8666 22.9H23.3058V25.9H31.8666V22.9ZM38.2069 25.5263C36.5254 23.8447 34.2447 22.9 31.8666 22.9V25.9C33.449 25.9 34.9667 26.5286 36.0856 27.6476L38.2069 25.5263ZM40.8332 31.8667C40.8332 29.4886 39.8885 27.2079 38.2069 25.5263L36.0856 27.6476C37.2046 28.7666 37.8332 30.2842 37.8332 31.8667H40.8332ZM38.2069 38.2071C39.8885 36.5255 40.8332 34.2448 40.8332 31.8667H37.8332C37.8332 33.4491 37.2046 34.9668 36.0856 36.0857L38.2069 38.2071ZM31.8666 40.8333C34.2447 40.8333 36.5254 39.8886 38.2069 38.2071L36.0856 36.0857C34.9667 37.2047 33.449 37.8333 31.8666 37.8333V40.8333Z" fill="#CBCBBC" mask="url(#path-1-outside-1)"/>
<defs>
<linearGradient id="paint0_linear" x1="46.8675" y1="2.87721" x2="46.8675" y2="58.8772" gradientUnits="userSpaceOnUse">
<stop stop-color="#F1F1DE"/>
<stop offset="1" stop-color="white" stop-opacity="0"/>
</linearGradient>
</defs>
</svg>
