<svg width="70" height="58" viewBox="0 0 70 58" fill="none" xmlns="http://www.w3.org/2000/svg">
<mask id="path-1-inside-1" fill="white">
<path fill-rule="evenodd" clip-rule="evenodd" d="M33.9434 57.2179L1.37952 31.8097C0.501205 31.1276 0.000114441 30.1043 0 29.0034C0 27.9016 0.507614 26.8787 1.38787 26.1958L33.9583 0.789707C34.6109 0.280407 35.4425 3.10784e-10 36.2762 3.10784e-10C36.8342 3.10784e-10 37.3979 0.11985 37.9012 0.355103C39.1709 0.951927 40.0427 2.22384 40.0427 3.59599V13.1541L66.1286 13.1541C68.1628 13.1541 70 14.9617 70 16.944V41.0653C70 43.0481 68.1628 44.8585 66.1286 44.8585H40.0428V54.4137C40.0428 55.7853 39.1715 57.0569 37.903 57.6542C36.6602 58.2433 35.0266 58.068 33.9434 57.2179ZM32.7675 16.944V11.0787L9.79108 29.0034L32.7675 46.9306V41.0653C32.7675 39.0828 34.2174 37.3496 36.2507 37.3496H62.2969L62.2969 20.6629L36.2507 20.6629C34.2174 20.6629 32.7675 18.9263 32.7675 16.944Z"/>
</mask>
<path fill-rule="evenodd" clip-rule="evenodd" d="M33.9434 57.2179L1.37952 31.8097C0.501205 31.1276 0.000114441 30.1043 0 29.0034C0 27.9016 0.507614 26.8787 1.38787 26.1958L33.9583 0.789707C34.6109 0.280407 35.4425 3.10784e-10 36.2762 3.10784e-10C36.8342 3.10784e-10 37.3979 0.11985 37.9012 0.355103C39.1709 0.951927 40.0427 2.22384 40.0427 3.59599V13.1541L66.1286 13.1541C68.1628 13.1541 70 14.9617 70 16.944V41.0653C70 43.0481 68.1628 44.8585 66.1286 44.8585H40.0428V54.4137C40.0428 55.7853 39.1715 57.0569 37.903 57.6542C36.6602 58.2433 35.0266 58.068 33.9434 57.2179ZM32.7675 16.944V11.0787L9.79108 29.0034L32.7675 46.9306V41.0653C32.7675 39.0828 34.2174 37.3496 36.2507 37.3496H62.2969L62.2969 20.6629L36.2507 20.6629C34.2174 20.6629 32.7675 18.9263 32.7675 16.944Z" fill="#FBFBED"/>
<path fill-rule="evenodd" clip-rule="evenodd" d="M33.9434 57.2179L1.37952 31.8097C0.501205 31.1276 0.000114441 30.1043 0 29.0034C0 27.9016 0.507614 26.8787 1.38787 26.1958L33.9583 0.789707C34.6109 0.280407 35.4425 3.10784e-10 36.2762 3.10784e-10C36.8342 3.10784e-10 37.3979 0.11985 37.9012 0.355103C39.1709 0.951927 40.0427 2.22384 40.0427 3.59599V13.1541L66.1286 13.1541C68.1628 13.1541 70 14.9617 70 16.944V41.0653C70 43.0481 68.1628 44.8585 66.1286 44.8585H40.0428V54.4137C40.0428 55.7853 39.1715 57.0569 37.903 57.6542C36.6602 58.2433 35.0266 58.068 33.9434 57.2179ZM32.7675 16.944V11.0787L9.79108 29.0034L32.7675 46.9306V41.0653C32.7675 39.0828 34.2174 37.3496 36.2507 37.3496H62.2969L62.2969 20.6629L36.2507 20.6629C34.2174 20.6629 32.7675 18.9263 32.7675 16.944Z" fill="url(#paint0_linear)"/>
<path d="M1.37952 31.8097L2.30226 30.6271L2.29958 30.625L1.37952 31.8097ZM33.9434 57.2179L34.8695 56.0379L34.8662 56.0353L33.9434 57.2179ZM0 29.0034H-1.5V29.0036L0 29.0034ZM1.38787 26.1958L2.30732 27.3809L2.31045 27.3785L1.38787 26.1958ZM33.9583 0.789707L34.8809 1.97244L34.8811 1.97225L33.9583 0.789707ZM37.9012 0.355103L38.5393 -1.00241L38.5364 -1.00376L37.9012 0.355103ZM40.0427 13.1541H38.5427L38.5427 14.6541H40.0427L40.0427 13.1541ZM40.0428 44.8585V43.3585H38.5428V44.8585H40.0428ZM37.903 57.6542L37.2639 56.2972L37.2606 56.2988L37.903 57.6542ZM32.7675 11.0787H34.2675V8.00608L31.8449 9.89606L32.7675 11.0787ZM9.79108 29.0034L8.86844 27.8207L7.35255 29.0033L8.86836 30.186L9.79108 29.0034ZM32.7675 46.9306L31.8448 48.1132L34.2675 50.0036V46.9306H32.7675ZM62.2969 37.3496V38.8496H63.7969V37.3496H62.2969ZM62.2969 20.6629H63.7969V19.1629H62.2969V20.6629ZM0.456787 32.9923L33.0207 58.4005L34.8662 56.0353L2.30226 30.6271L0.456787 32.9923ZM-1.5 29.0036C-1.49984 30.5703 -0.782593 32.0298 0.459473 32.9944L2.29958 30.625C1.785 30.2254 1.50007 29.6383 1.5 29.0032L-1.5 29.0036ZM0.46843 25.0106C-0.770996 25.9721 -1.5 27.4292 -1.5 29.0034H1.5C1.5 28.374 1.78622 27.7852 2.30731 27.3809L0.46843 25.0106ZM33.0357 -0.393024L0.465294 25.013L2.31045 27.3785L34.8809 1.97244L33.0357 -0.393024ZM36.2762 -1.5C35.1161 -1.5 33.958 -1.11275 33.0355 -0.392838L34.8811 1.97225C35.2639 1.67357 35.7688 1.5 36.2762 1.5V-1.5ZM38.5364 -1.00376C37.8252 -1.33621 37.0435 -1.5 36.2762 -1.5V1.5C36.625 1.5 36.9706 1.57591 37.266 1.71397L38.5364 -1.00376ZM41.5427 3.59599C41.5427 1.58898 40.2848 -0.181946 38.5393 -1.00241L37.2631 1.71262C38.057 2.0858 38.5427 2.8587 38.5427 3.59599L41.5427 3.59599ZM41.5427 13.1541V3.59599L38.5427 3.59599V13.1541L41.5427 13.1541ZM66.1286 11.6541L40.0427 11.6541L40.0427 14.6541L66.1286 14.6541V11.6541ZM71.5 16.944C71.5 14.1057 68.9634 11.6541 66.1286 11.6541V14.6541C67.3623 14.6541 68.5 15.8178 68.5 16.944H71.5ZM71.5 41.0653V16.944H68.5V41.0653H71.5ZM66.1286 46.3585C68.9649 46.3585 71.5 43.9026 71.5 41.0653H68.5C68.5 42.1935 67.3608 43.3585 66.1286 43.3585V46.3585ZM40.0428 46.3585H66.1286V43.3585H40.0428V46.3585ZM41.5428 54.4137V44.8585H38.5428V54.4137H41.5428ZM38.5421 59.0113C40.2856 58.1902 41.5428 56.42 41.5428 54.4137H38.5428C38.5428 55.1506 38.0573 55.9235 37.2639 56.2972L38.5421 59.0113ZM33.0173 58.3978C34.5524 59.6027 36.7941 59.8397 38.5454 59.0097L37.2606 56.2988C36.5262 56.6468 35.5008 56.5333 34.8695 56.0379L33.0173 58.3978ZM31.2675 11.0787V16.944H34.2675V11.0787H31.2675ZM10.7137 30.1861L33.6902 12.2614L31.8449 9.89606L8.86844 27.8207L10.7137 30.1861ZM33.6903 45.748L10.7138 27.8208L8.86836 30.186L31.8448 48.1132L33.6903 45.748ZM31.2675 41.0653V46.9306H34.2675V41.0653H31.2675ZM36.2507 35.8496C33.2521 35.8496 31.2675 38.3983 31.2675 41.0653H34.2675C34.2675 39.7674 35.1827 38.8496 36.2507 38.8496V35.8496ZM62.2969 35.8496H36.2507V38.8496H62.2969V35.8496ZM60.7969 20.6629L60.7969 37.3496H63.7969L63.7969 20.6629H60.7969ZM36.2507 22.1629L62.2969 22.1629V19.1629L36.2507 19.1629V22.1629ZM31.2675 16.944C31.2675 19.6091 33.2505 22.1629 36.2507 22.1629V19.1629C35.1844 19.1629 34.2675 18.2435 34.2675 16.944H31.2675Z" fill="#CBCBBC" mask="url(#path-1-inside-1)"/>
<defs>
<linearGradient id="paint0_linear" x1="13.9157" y1="57.0915" x2="13.9157" y2="-0.908525" gradientUnits="userSpaceOnUse">
<stop stop-color="#F1F1DE"/>
<stop offset="1" stop-color="white" stop-opacity="0"/>
</linearGradient>
</defs>
</svg>
