<svg width="68" height="34" viewBox="0 0 68 34" fill="none" xmlns="http://www.w3.org/2000/svg">
<g id="Translate-Picture">
<g id="Union">
<mask id="path-1-outside-1" maskUnits="userSpaceOnUse" x="44" y="1" width="24" height="33" fill="black">
<rect fill="white" x="44" y="1" width="24" height="33"/>
<path fill-rule="evenodd" clip-rule="evenodd" d="M55.4708 2.12323C55.6363 2.04501 55.8142 2.00326 55.9944 2.00018C56.1783 1.99704 56.3608 2.03424 56.5312 2.10968C56.7016 2.18513 56.8564 2.29718 56.9864 2.43927C57.1165 2.58136 57.2192 2.7507 57.2882 2.93695C57.3572 3.1232 57.3913 3.3227 57.3884 3.52362V8.00049H65.6078C65.7897 7.99767 65.9704 8.0344 66.1391 8.10852C66.3079 8.18264 66.4615 8.29268 66.591 8.43225C66.7205 8.57182 66.8234 8.73812 66.8936 8.92151C66.9638 9.10489 67 9.3017 67 9.50049C67 9.69927 66.9638 9.89608 66.8936 10.0795C66.8234 10.2629 66.7205 10.4292 66.591 10.5687C66.4615 10.7083 66.3079 10.8183 66.1391 10.8925C65.9704 10.9666 65.7897 11.0033 65.6078 11.0005H61.3533C60.9336 15.1061 59.6625 19.0073 57.6834 22.4298C59.5731 25.174 62.0081 27.4852 64.8675 29.1584C65.0322 29.2478 65.1788 29.3724 65.2986 29.525C65.4184 29.6775 65.5088 29.855 65.5647 30.0464C65.6205 30.2379 65.6407 30.4396 65.6238 30.6397C65.6069 30.8398 65.5534 31.0343 65.4665 31.2114C65.3795 31.3885 65.2607 31.5446 65.1175 31.6706C64.9742 31.7966 64.8093 31.8899 64.6324 31.9449C64.4555 31.9999 64.2704 32.0154 64.0879 31.9907C63.9054 31.9659 63.7292 31.9015 63.57 31.801C60.615 30.0718 58.0624 27.735 56.0183 24.9709C54.485 27.0458 52.662 28.8835 50.5898 30.4065C50.2876 30.6287 49.9172 30.7107 49.5597 30.6343C49.2023 30.5579 48.8873 30.3295 48.684 29.9993C48.4806 29.6691 48.4057 29.2642 48.4755 28.8735C48.5454 28.4829 48.7543 28.1385 49.0564 27.9163C51.1147 26.4035 52.8963 24.5424 54.351 22.4286C52.3756 19.0154 51.0989 15.1175 50.6775 11.0005H46.3922C46.2103 11.0033 46.0296 10.9666 45.8609 10.8925C45.6921 10.8183 45.5385 10.7083 45.409 10.5687C45.2795 10.4292 45.1766 10.2629 45.1064 10.0795C45.0362 9.89608 45 9.69927 45 9.50049C45 9.3017 45.0362 9.10489 45.1064 8.92151C45.1766 8.73812 45.2795 8.57182 45.409 8.43225C45.5385 8.29268 45.6921 8.18264 45.8609 8.10852C46.0296 8.0344 46.2103 7.99767 46.3922 8.00049H54.6433V3.52362C54.6405 3.32664 54.6733 3.13074 54.7396 2.94757C54.806 2.76441 54.9047 2.59758 55.0302 2.45612C55.1556 2.31466 55.3054 2.20145 55.4708 2.12323ZM55.6841 11.0005H53.4417C53.7946 14.0637 54.6801 16.9834 56.0163 19.6208C57.3545 16.9775 58.2372 14.0562 58.589 11.0005H56.3476C56.2393 11.0299 56.1279 11.0449 56.0158 11.0449C55.9038 11.0449 55.7924 11.0299 55.6841 11.0005Z"/>
</mask>
<path fill-rule="evenodd" clip-rule="evenodd" d="M55.4708 2.12323C55.6363 2.04501 55.8142 2.00326 55.9944 2.00018C56.1783 1.99704 56.3608 2.03424 56.5312 2.10968C56.7016 2.18513 56.8564 2.29718 56.9864 2.43927C57.1165 2.58136 57.2192 2.7507 57.2882 2.93695C57.3572 3.1232 57.3913 3.3227 57.3884 3.52362V8.00049H65.6078C65.7897 7.99767 65.9704 8.0344 66.1391 8.10852C66.3079 8.18264 66.4615 8.29268 66.591 8.43225C66.7205 8.57182 66.8234 8.73812 66.8936 8.92151C66.9638 9.10489 67 9.3017 67 9.50049C67 9.69927 66.9638 9.89608 66.8936 10.0795C66.8234 10.2629 66.7205 10.4292 66.591 10.5687C66.4615 10.7083 66.3079 10.8183 66.1391 10.8925C65.9704 10.9666 65.7897 11.0033 65.6078 11.0005H61.3533C60.9336 15.1061 59.6625 19.0073 57.6834 22.4298C59.5731 25.174 62.0081 27.4852 64.8675 29.1584C65.0322 29.2478 65.1788 29.3724 65.2986 29.525C65.4184 29.6775 65.5088 29.855 65.5647 30.0464C65.6205 30.2379 65.6407 30.4396 65.6238 30.6397C65.6069 30.8398 65.5534 31.0343 65.4665 31.2114C65.3795 31.3885 65.2607 31.5446 65.1175 31.6706C64.9742 31.7966 64.8093 31.8899 64.6324 31.9449C64.4555 31.9999 64.2704 32.0154 64.0879 31.9907C63.9054 31.9659 63.7292 31.9015 63.57 31.801C60.615 30.0718 58.0624 27.735 56.0183 24.9709C54.485 27.0458 52.662 28.8835 50.5898 30.4065C50.2876 30.6287 49.9172 30.7107 49.5597 30.6343C49.2023 30.5579 48.8873 30.3295 48.684 29.9993C48.4806 29.6691 48.4057 29.2642 48.4755 28.8735C48.5454 28.4829 48.7543 28.1385 49.0564 27.9163C51.1147 26.4035 52.8963 24.5424 54.351 22.4286C52.3756 19.0154 51.0989 15.1175 50.6775 11.0005H46.3922C46.2103 11.0033 46.0296 10.9666 45.8609 10.8925C45.6921 10.8183 45.5385 10.7083 45.409 10.5687C45.2795 10.4292 45.1766 10.2629 45.1064 10.0795C45.0362 9.89608 45 9.69927 45 9.50049C45 9.3017 45.0362 9.10489 45.1064 8.92151C45.1766 8.73812 45.2795 8.57182 45.409 8.43225C45.5385 8.29268 45.6921 8.18264 45.8609 8.10852C46.0296 8.0344 46.2103 7.99767 46.3922 8.00049H54.6433V3.52362C54.6405 3.32664 54.6733 3.13074 54.7396 2.94757C54.806 2.76441 54.9047 2.59758 55.0302 2.45612C55.1556 2.31466 55.3054 2.20145 55.4708 2.12323ZM55.6841 11.0005H53.4417C53.7946 14.0637 54.6801 16.9834 56.0163 19.6208C57.3545 16.9775 58.2372 14.0562 58.589 11.0005H56.3476C56.2393 11.0299 56.1279 11.0449 56.0158 11.0449C55.9038 11.0449 55.7924 11.0299 55.6841 11.0005Z" fill="#FBFBED"/>
<path fill-rule="evenodd" clip-rule="evenodd" d="M55.4708 2.12323C55.6363 2.04501 55.8142 2.00326 55.9944 2.00018C56.1783 1.99704 56.3608 2.03424 56.5312 2.10968C56.7016 2.18513 56.8564 2.29718 56.9864 2.43927C57.1165 2.58136 57.2192 2.7507 57.2882 2.93695C57.3572 3.1232 57.3913 3.3227 57.3884 3.52362V8.00049H65.6078C65.7897 7.99767 65.9704 8.0344 66.1391 8.10852C66.3079 8.18264 66.4615 8.29268 66.591 8.43225C66.7205 8.57182 66.8234 8.73812 66.8936 8.92151C66.9638 9.10489 67 9.3017 67 9.50049C67 9.69927 66.9638 9.89608 66.8936 10.0795C66.8234 10.2629 66.7205 10.4292 66.591 10.5687C66.4615 10.7083 66.3079 10.8183 66.1391 10.8925C65.9704 10.9666 65.7897 11.0033 65.6078 11.0005H61.3533C60.9336 15.1061 59.6625 19.0073 57.6834 22.4298C59.5731 25.174 62.0081 27.4852 64.8675 29.1584C65.0322 29.2478 65.1788 29.3724 65.2986 29.525C65.4184 29.6775 65.5088 29.855 65.5647 30.0464C65.6205 30.2379 65.6407 30.4396 65.6238 30.6397C65.6069 30.8398 65.5534 31.0343 65.4665 31.2114C65.3795 31.3885 65.2607 31.5446 65.1175 31.6706C64.9742 31.7966 64.8093 31.8899 64.6324 31.9449C64.4555 31.9999 64.2704 32.0154 64.0879 31.9907C63.9054 31.9659 63.7292 31.9015 63.57 31.801C60.615 30.0718 58.0624 27.735 56.0183 24.9709C54.485 27.0458 52.662 28.8835 50.5898 30.4065C50.2876 30.6287 49.9172 30.7107 49.5597 30.6343C49.2023 30.5579 48.8873 30.3295 48.684 29.9993C48.4806 29.6691 48.4057 29.2642 48.4755 28.8735C48.5454 28.4829 48.7543 28.1385 49.0564 27.9163C51.1147 26.4035 52.8963 24.5424 54.351 22.4286C52.3756 19.0154 51.0989 15.1175 50.6775 11.0005H46.3922C46.2103 11.0033 46.0296 10.9666 45.8609 10.8925C45.6921 10.8183 45.5385 10.7083 45.409 10.5687C45.2795 10.4292 45.1766 10.2629 45.1064 10.0795C45.0362 9.89608 45 9.69927 45 9.50049C45 9.3017 45.0362 9.10489 45.1064 8.92151C45.1766 8.73812 45.2795 8.57182 45.409 8.43225C45.5385 8.29268 45.6921 8.18264 45.8609 8.10852C46.0296 8.0344 46.2103 7.99767 46.3922 8.00049H54.6433V3.52362C54.6405 3.32664 54.6733 3.13074 54.7396 2.94757C54.806 2.76441 54.9047 2.59758 55.0302 2.45612C55.1556 2.31466 55.3054 2.20145 55.4708 2.12323ZM55.6841 11.0005H53.4417C53.7946 14.0637 54.6801 16.9834 56.0163 19.6208C57.3545 16.9775 58.2372 14.0562 58.589 11.0005H56.3476C56.2393 11.0299 56.1279 11.0449 56.0158 11.0449C55.9038 11.0449 55.7924 11.0299 55.6841 11.0005Z" fill="url(#paint0_linear)"/>
<path d="M55.9944 2.00018L56.0114 3.00004L56.0115 3.00004L55.9944 2.00018ZM55.4708 2.12323L55.0434 1.21918L55.0434 1.21918L55.4708 2.12323ZM56.5312 2.10968L56.1264 3.02409L56.1264 3.02409L56.5312 2.10968ZM56.9864 2.43927L56.2487 3.11435L56.9864 2.43927ZM57.2882 2.93695L56.3505 3.28452L56.3505 3.28452L57.2882 2.93695ZM57.3884 3.52362L56.3885 3.50933L56.3884 3.51647V3.52362H57.3884ZM57.3884 8.00049H56.3884V9.00049H57.3884V8.00049ZM65.6078 8.00049V9.00049H65.6156L65.6233 9.00037L65.6078 8.00049ZM66.1391 8.10852L65.737 9.02412L65.737 9.02412L66.1391 8.10852ZM66.591 8.43225L65.858 9.1125L65.858 9.1125L66.591 8.43225ZM66.8936 8.92151L67.8275 8.564L67.8275 8.56399L66.8936 8.92151ZM66.8936 10.0795L67.8275 10.437L67.8275 10.437L66.8936 10.0795ZM66.591 10.5687L65.858 9.88847L65.858 9.88847L66.591 10.5687ZM65.6078 11.0005L65.6233 10.0006L65.6156 10.0005H65.6078V11.0005ZM61.3533 11.0005V10.0005H60.4503L60.3585 10.8988L61.3533 11.0005ZM57.6834 22.4298L56.8177 21.9292L56.5013 22.4764L56.8598 22.997L57.6834 22.4298ZM64.8675 29.1584L64.3624 30.0215L64.3763 30.0296L64.3904 30.0373L64.8675 29.1584ZM65.2986 29.525L66.0851 28.9074L66.0851 28.9074L65.2986 29.525ZM65.5647 30.0464L66.5246 29.7664L66.5246 29.7664L65.5647 30.0464ZM65.6238 30.6397L64.6273 30.5556L64.6273 30.5557L65.6238 30.6397ZM65.4665 31.2114L66.3641 31.6521L66.3641 31.6521L65.4665 31.2114ZM65.1175 31.6706L65.7779 32.4214L65.7779 32.4214L65.1175 31.6706ZM64.6324 31.9449L64.9293 32.8998L64.9293 32.8998L64.6324 31.9449ZM64.0879 31.9907L64.2223 30.9997L64.0879 31.9907ZM63.57 31.801L64.104 30.9555L64.0897 30.9464L64.075 30.9379L63.57 31.801ZM56.0183 24.9709L56.8223 24.3764L56.018 23.2887L55.2141 24.3766L56.0183 24.9709ZM50.5898 30.4065L49.9976 29.6007L49.9975 29.6008L50.5898 30.4065ZM49.0564 27.9163L48.4642 27.1105L48.4639 27.1107L49.0564 27.9163ZM54.351 22.4286L55.1748 22.9955L55.5332 22.4748L55.2165 21.9277L54.351 22.4286ZM50.6775 11.0005L51.6723 10.8986L51.5803 10.0005H50.6775V11.0005ZM46.3922 11.0005V10.0005H46.3844L46.3767 10.0006L46.3922 11.0005ZM45.8609 10.8925L46.2629 9.97685L46.2629 9.97685L45.8609 10.8925ZM45.409 10.5687L44.676 11.249L44.676 11.249L45.409 10.5687ZM45.1064 10.0795L46.0403 9.72195L45.1064 10.0795ZM45.1064 8.92151L46.0403 9.27902L45.1064 8.92151ZM45.409 8.43225L44.676 7.752L44.676 7.752L45.409 8.43225ZM45.8609 8.10852L46.2629 9.02412L46.263 9.02412L45.8609 8.10852ZM46.3922 8.00049L46.3767 9.00037L46.3844 9.00049H46.3922V8.00049ZM54.6433 8.00049V9.00049H55.6433V8.00049H54.6433ZM54.6433 3.52362H55.6433V3.51648L55.6432 3.50933L54.6433 3.52362ZM55.0302 2.45612L54.282 1.79258V1.79258L55.0302 2.45612ZM55.6841 11.0005L55.9464 10.0355L55.8176 10.0005H55.6841V11.0005ZM53.4417 11.0005V10.0005H52.3199L52.4483 11.1149L53.4417 11.0005ZM56.0163 19.6208L55.1243 20.0728L56.0166 21.8342L56.9085 20.0725L56.0163 19.6208ZM58.589 11.0005L59.5825 11.1149L59.7108 10.0005H58.589V11.0005ZM56.3476 11.0005V10.0005H56.2141L56.0853 10.0355L56.3476 11.0005ZM55.9774 1.00033C55.6532 1.00586 55.3355 1.08106 55.0434 1.21918L55.8982 3.02728C55.937 3.00896 55.9752 3.00066 56.0114 3.00004L55.9774 1.00033ZM56.936 1.19527C56.6345 1.06179 56.3081 0.994675 55.9773 1.00033L56.0115 3.00004C56.0484 2.99941 56.0871 3.00668 56.1264 3.02409L56.936 1.19527ZM57.7242 1.76419C57.5041 1.52364 57.237 1.3285 56.936 1.19527L56.1264 3.02409C56.1663 3.04175 56.2088 3.07072 56.2487 3.11435L57.7242 1.76419ZM58.2259 2.58939C58.1133 2.28587 57.9441 2.00446 57.7242 1.76419L56.2487 3.11435C56.2889 3.15826 56.325 3.21554 56.3505 3.28452L58.2259 2.58939ZM58.3883 3.53792C58.3929 3.21525 58.3384 2.89295 58.2259 2.58938L56.3505 3.28452C56.3761 3.35345 56.3896 3.43014 56.3885 3.50933L58.3883 3.53792ZM58.3884 8.00049V3.52362H56.3884V8.00049H58.3884ZM65.6078 7.00049H57.3884V9.00049H65.6078V7.00049ZM66.5412 7.19292C66.2427 7.06182 65.9198 6.99554 65.5924 7.00061L65.6233 9.00037C65.6596 8.9998 65.698 9.00697 65.737 9.02412L66.5412 7.19292ZM67.324 7.752C67.1046 7.51564 66.8395 7.3239 66.5412 7.19292L65.737 9.02412C65.7764 9.04138 65.8183 9.06973 65.858 9.1125L67.324 7.752ZM67.8275 8.56399C67.713 8.26495 67.5432 7.98823 67.324 7.75199L65.858 9.1125C65.8979 9.1554 65.9338 9.21129 65.9597 9.27902L67.8275 8.56399ZM68 9.50049C68 9.1809 67.9419 8.86282 67.8275 8.564L65.9597 9.27902C65.9857 9.34696 66 9.42249 66 9.50049H68ZM67.8275 10.437C67.9419 10.1381 68 9.82007 68 9.50049H66C66 9.57848 65.9857 9.65401 65.9597 9.72196L67.8275 10.437ZM67.324 11.249C67.5432 11.0127 67.713 10.736 67.8275 10.437L65.9597 9.72195C65.9338 9.78968 65.8979 9.84557 65.858 9.88847L67.324 11.249ZM66.5412 11.8081C66.8395 11.6771 67.1046 11.4853 67.324 11.249L65.858 9.88847C65.8183 9.93125 65.7763 9.9596 65.737 9.97685L66.5412 11.8081ZM65.5924 12.0004C65.9198 12.0054 66.2427 11.9391 66.5412 11.8081L65.737 9.97685C65.698 9.994 65.6596 10.0012 65.6233 10.0006L65.5924 12.0004ZM61.3533 12.0005H65.6078V10.0005H61.3533V12.0005ZM58.5491 22.9304C60.5999 19.384 61.9142 15.3466 62.3481 11.1022L60.3585 10.8988C59.9529 14.8656 58.7252 18.6306 56.8177 21.9292L58.5491 22.9304ZM65.3725 28.2953C62.6465 26.7001 60.318 24.4926 58.507 21.8627L56.8598 22.997C58.8282 25.8554 61.3698 28.2702 64.3624 30.0215L65.3725 28.2953ZM66.0851 28.9074C65.884 28.6513 65.6332 28.4362 65.3445 28.2795L64.3904 30.0373C64.4311 30.0594 64.4736 30.0936 64.5121 30.1426L66.0851 28.9074ZM66.5246 29.7664C66.4342 29.4565 66.2863 29.1636 66.0851 28.9074L64.5121 30.1426C64.5504 30.1914 64.5834 30.2535 64.6047 30.3265L66.5246 29.7664ZM66.6203 30.7238C66.6474 30.4016 66.6151 30.0765 66.5246 29.7664L64.6047 30.3265C64.6259 30.3994 64.6339 30.4775 64.6273 30.5556L66.6203 30.7238ZM66.3641 31.6521C66.507 31.3612 66.5931 31.0455 66.6203 30.7238L64.6273 30.5557C64.6207 30.6342 64.5999 30.7074 64.5688 30.7706L66.3641 31.6521ZM65.7779 32.4214C66.0228 32.2061 66.221 31.9436 66.3641 31.6521L64.5688 30.7706C64.538 30.8333 64.4987 30.8831 64.457 30.9197L65.7779 32.4214ZM64.9293 32.8998C65.2446 32.8018 65.5325 32.6373 65.7779 32.4214L64.457 30.9197C64.4159 30.9559 64.374 30.978 64.3356 30.99L64.9293 32.8998ZM63.9535 32.9816C64.2814 33.026 64.6137 32.9979 64.9293 32.8998L64.3356 30.99C64.2974 31.0018 64.2594 31.0048 64.2223 30.9997L63.9535 32.9816ZM63.036 32.6464C63.3143 32.8222 63.6264 32.9372 63.9535 32.9816L64.2223 30.9997C64.1844 30.9946 64.1442 30.9808 64.104 30.9555L63.036 32.6464ZM55.2143 25.5655C57.3347 28.4328 59.9873 30.8631 63.0649 32.6641L64.075 30.9379C61.2427 29.2805 58.7901 27.0372 56.8223 24.3764L55.2143 25.5655ZM51.182 31.2123C53.3381 29.6276 55.2318 27.7177 56.8225 25.5653L55.2141 24.3766C53.7381 26.3738 51.9858 28.1394 49.9976 29.6007L51.182 31.2123ZM49.3507 31.6122C49.9961 31.7501 50.6569 31.5984 51.1822 31.2122L49.9975 29.6008C49.9184 29.6589 49.8382 29.6712 49.7688 29.6564L49.3507 31.6122ZM47.8324 30.5236C48.1693 31.0706 48.7085 31.4749 49.3507 31.6122L49.7688 29.6564C49.6961 29.6408 49.6053 29.5884 49.5355 29.475L47.8324 30.5236ZM47.4912 28.6975C47.3792 29.3237 47.497 29.9789 47.8324 30.5236L49.5355 29.475C49.4643 29.3593 49.4322 29.2046 49.4599 29.0496L47.4912 28.6975ZM48.4639 27.1107C47.9423 27.4944 47.6032 28.0709 47.4912 28.6975L49.4599 29.0496C49.4876 28.8949 49.5663 28.7826 49.649 28.7218L48.4639 27.1107ZM53.5273 21.8617C52.1332 23.8873 50.4289 25.6666 48.4642 27.1105L49.6486 28.722C51.8005 27.1405 53.6594 25.1975 55.1748 22.9955L53.5273 21.8617ZM49.6827 11.1023C50.1184 15.3588 51.4386 19.3929 53.4855 22.9295L55.2165 21.9277C53.3125 18.638 52.0795 14.8763 51.6723 10.8986L49.6827 11.1023ZM46.3922 12.0005H50.6775V10.0005H46.3922V12.0005ZM45.4588 11.8081C45.7573 11.9391 46.0802 12.0054 46.4076 12.0004L46.3767 10.0006C46.3404 10.0012 46.302 9.994 46.2629 9.97685L45.4588 11.8081ZM44.676 11.249C44.8954 11.4853 45.1605 11.6771 45.4588 11.8081L46.2629 9.97685C46.2237 9.9596 46.1817 9.93125 46.142 9.88847L44.676 11.249ZM44.1725 10.437C44.287 10.736 44.4568 11.0127 44.676 11.249L46.142 9.88847C46.1021 9.84557 46.0662 9.78968 46.0403 9.72195L44.1725 10.437ZM44 9.50049C44 9.82007 44.0581 10.1381 44.1725 10.437L46.0403 9.72195C46.0143 9.65401 46 9.57848 46 9.50049H44ZM44.1725 8.56399C44.0581 8.86282 44 9.1809 44 9.50049H46C46 9.42249 46.0143 9.34696 46.0403 9.27902L44.1725 8.56399ZM44.676 7.752C44.4568 7.98823 44.287 8.26495 44.1725 8.56399L46.0403 9.27902C46.0662 9.21129 46.1021 9.1554 46.142 9.1125L44.676 7.752ZM45.4588 7.19292C45.1605 7.3239 44.8954 7.51564 44.676 7.752L46.142 9.1125C46.1817 9.06972 46.2237 9.04138 46.2629 9.02412L45.4588 7.19292ZM46.4076 7.00061C46.0802 6.99554 45.7573 7.06182 45.4588 7.19292L46.263 9.02412C46.302 9.00697 46.3404 8.9998 46.3767 9.00037L46.4076 7.00061ZM54.6433 7.00049H46.3922V9.00049H54.6433V7.00049ZM53.6433 3.52362V8.00049H55.6433V3.52362H53.6433ZM53.7995 2.60687C53.6914 2.90499 53.6389 3.22126 53.6434 3.53791L55.6432 3.50933C55.6421 3.43202 55.6551 3.35648 55.6798 3.28827L53.7995 2.60687ZM54.282 1.79258C54.0704 2.03121 53.9077 2.30831 53.7995 2.60687L55.6798 3.28827C55.7044 3.2205 55.739 3.16394 55.7783 3.11965L54.282 1.79258ZM55.0434 1.21918C54.7515 1.35719 54.4938 1.55383 54.282 1.79258L55.7783 3.11965C55.8175 3.07548 55.8592 3.04572 55.8982 3.02728L55.0434 1.21918ZM55.6841 10.0005H53.4417V12.0005H55.6841V10.0005ZM52.4483 11.1149C52.8147 14.2951 53.7343 17.3291 55.1243 20.0728L56.9084 19.1689C55.626 16.6377 54.7746 13.8323 54.4351 10.886L52.4483 11.1149ZM56.9085 20.0725C58.3006 17.3227 59.2172 14.2871 59.5825 11.1149L57.5956 10.8861C57.2571 13.8253 56.4085 16.6322 55.1241 19.1692L56.9085 20.0725ZM58.589 10.0005H56.3476V12.0005H58.589V10.0005ZM56.0158 12.0449C56.217 12.0449 56.4166 12.018 56.6099 11.9655L56.0853 10.0355C56.062 10.0418 56.0388 10.0449 56.0158 10.0449V12.0449ZM55.4218 11.9655C55.6151 12.018 55.8147 12.0449 56.0158 12.0449V10.0449C55.9929 10.0449 55.9696 10.0418 55.9464 10.0355L55.4218 11.9655Z" fill="#CBCBBC" mask="url(#path-1-outside-1)"/>
</g>
<g id="Subtract">
<mask id="path-3-outside-2" maskUnits="userSpaceOnUse" x="22" y="0" width="26" height="33" fill="black">
<rect fill="white" x="22" width="26" height="33"/>
<path fill-rule="evenodd" clip-rule="evenodd" d="M35.3623 2.40456L46.527 15.5467C46.8282 15.8995 47 16.4288 47 16.9982C47 17.5681 46.826 18.0972 46.5242 18.4505L35.3572 31.5915C35.1334 31.855 34.8483 32 34.5625 32C34.3711 32 34.1779 31.938 34.0053 31.8163C33.57 31.5076 33.2711 30.8497 33.2711 30.14V25.1962H24.3273C23.6299 25.1962 23 24.2612 23 23.2359V10.7593C23 9.73375 23.6299 8.79732 24.3273 8.79732H33.271V3.85499C33.271 3.14554 33.5698 2.48783 34.0047 2.17884C34.4308 1.87417 34.9909 1.96483 35.3623 2.40456ZM35.7657 23.2359V26.2696L43.6433 16.9982L35.7657 7.72552V10.7593C35.7657 11.7847 35.2686 12.6812 34.5714 12.6812H25.6413V21.3123H34.5714C35.2686 21.3123 35.7657 22.2105 35.7657 23.2359Z"/>
</mask>
<path fill-rule="evenodd" clip-rule="evenodd" d="M35.3623 2.40456L46.527 15.5467C46.8282 15.8995 47 16.4288 47 16.9982C47 17.5681 46.826 18.0972 46.5242 18.4505L35.3572 31.5915C35.1334 31.855 34.8483 32 34.5625 32C34.3711 32 34.1779 31.938 34.0053 31.8163C33.57 31.5076 33.2711 30.8497 33.2711 30.14V25.1962H24.3273C23.6299 25.1962 23 24.2612 23 23.2359V10.7593C23 9.73375 23.6299 8.79732 24.3273 8.79732H33.271V3.85499C33.271 3.14554 33.5698 2.48783 34.0047 2.17884C34.4308 1.87417 34.9909 1.96483 35.3623 2.40456ZM35.7657 23.2359V26.2696L43.6433 16.9982L35.7657 7.72552V10.7593C35.7657 11.7847 35.2686 12.6812 34.5714 12.6812H25.6413V21.3123H34.5714C35.2686 21.3123 35.7657 22.2105 35.7657 23.2359Z" fill="#FBFBED"/>
<path fill-rule="evenodd" clip-rule="evenodd" d="M35.3623 2.40456L46.527 15.5467C46.8282 15.8995 47 16.4288 47 16.9982C47 17.5681 46.826 18.0972 46.5242 18.4505L35.3572 31.5915C35.1334 31.855 34.8483 32 34.5625 32C34.3711 32 34.1779 31.938 34.0053 31.8163C33.57 31.5076 33.2711 30.8497 33.2711 30.14V25.1962H24.3273C23.6299 25.1962 23 24.2612 23 23.2359V10.7593C23 9.73375 23.6299 8.79732 24.3273 8.79732H33.271V3.85499C33.271 3.14554 33.5698 2.48783 34.0047 2.17884C34.4308 1.87417 34.9909 1.96483 35.3623 2.40456ZM35.7657 23.2359V26.2696L43.6433 16.9982L35.7657 7.72552V10.7593C35.7657 11.7847 35.2686 12.6812 34.5714 12.6812H25.6413V21.3123H34.5714C35.2686 21.3123 35.7657 22.2105 35.7657 23.2359Z" fill="url(#paint1_linear)"/>
<path d="M46.527 15.5467L45.7649 16.1942L45.7664 16.1959L46.527 15.5467ZM35.3623 2.40456L34.5983 3.04979L34.6001 3.052L35.3623 2.40456ZM47 16.9982H48V16.9982L47 16.9982ZM46.5242 18.4505L45.7639 17.8009L45.7621 17.8029L46.5242 18.4505ZM35.3572 31.5915L34.5951 30.944L34.595 30.9441L35.3572 31.5915ZM34.0053 31.8163L33.4269 32.6321L33.429 32.6336L34.0053 31.8163ZM33.2711 25.1962H34.2711V24.1962H33.2711V25.1962ZM33.271 8.79732V9.79732H34.271V8.79732H33.271ZM34.0047 2.17884L34.5839 2.99404L34.5863 2.99231L34.0047 2.17884ZM35.7657 26.2696H34.7657V28.9909L36.5277 26.9171L35.7657 26.2696ZM43.6433 16.9982L44.4054 17.6457L44.9555 16.9983L44.4054 16.3508L43.6433 16.9982ZM35.7657 7.72552L36.5278 7.07807L34.7657 5.00391V7.72552H35.7657ZM25.6413 12.6812V11.6812H24.6413V12.6812H25.6413ZM25.6413 21.3123H24.6413V22.3123H25.6413V21.3123ZM47.2891 14.8993L36.1244 1.75711L34.6001 3.052L45.7649 16.1942L47.2891 14.8993ZM48 16.9982C48 16.2485 47.777 15.4709 47.2876 14.8975L45.7664 16.1959C45.8793 16.3282 46 16.6091 46 16.9983L48 16.9982ZM47.2844 19.1001C47.7731 18.5282 48 17.7517 48 16.9982H46C46 17.3845 45.8789 17.6663 45.7639 17.8009L47.2844 19.1001ZM36.1192 32.2391L47.2862 19.098L45.7621 17.8029L34.5951 30.944L36.1192 32.2391ZM34.5625 33C35.1985 33 35.7456 32.6789 36.1193 32.2389L34.595 30.9441C34.5596 30.9858 34.5337 31.0012 34.5269 31.0047C34.5212 31.0076 34.5339 31 34.5625 31V33ZM33.429 32.6336C33.7594 32.8666 34.152 33 34.5625 33V31C34.5752 31 34.584 31.0021 34.588 31.0034C34.5919 31.0047 34.5894 31.0046 34.5816 30.9991L33.429 32.6336ZM32.2711 30.14C32.2711 31.0782 32.6576 32.0866 33.4269 32.632L34.5838 31.0006C34.4823 30.9287 34.2711 30.6213 34.2711 30.14H32.2711ZM32.2711 25.1962V30.14H34.2711V25.1962H32.2711ZM24.3273 26.1962H33.2711V24.1962H24.3273V26.1962ZM22 23.2359C22 23.9423 22.214 24.6285 22.5737 25.1606C22.9168 25.6682 23.5161 26.1962 24.3273 26.1962V24.1962C24.4411 24.1962 24.3767 24.2566 24.2306 24.0405C24.101 23.8487 24 23.5548 24 23.2359H22ZM22 10.7593V23.2359H24V10.7593H22ZM24.3273 7.79732C23.5154 7.79732 22.9162 8.32639 22.5734 8.83411C22.2139 9.36646 22 10.0529 22 10.7593H24C24 10.4402 24.101 10.1456 24.2309 9.95336C24.3773 9.73647 24.4418 9.79732 24.3273 9.79732V7.79732ZM33.271 7.79732H24.3273V9.79732H33.271V7.79732ZM32.271 3.85499V8.79732H34.271V3.85499H32.271ZM33.4255 1.36364C32.6575 1.90932 32.271 2.917 32.271 3.85499H34.271C34.271 3.37408 34.4821 3.06633 34.5839 2.99404L33.4255 1.36364ZM36.1262 1.75932C35.4654 0.976875 34.3296 0.717261 33.4231 1.36537L34.5863 2.99231C34.5883 2.99087 34.5829 2.99495 34.5707 2.99779C34.5588 3.00056 34.5481 3.00034 34.5412 2.99921C34.5347 2.99814 34.5365 2.99709 34.5461 3.00269C34.5556 3.00831 34.5746 3.02172 34.5983 3.04979L36.1262 1.75932ZM36.7657 26.2696V23.2359H34.7657V26.2696H36.7657ZM42.8812 16.3507L35.0036 25.6221L36.5277 26.9171L44.4054 17.6457L42.8812 16.3507ZM35.0036 8.37297L42.8812 17.6457L44.4054 16.3508L36.5278 7.07807L35.0036 8.37297ZM36.7657 10.7593V7.72552H34.7657V10.7593H36.7657ZM34.5714 13.6812C35.3981 13.6812 35.9719 13.1452 36.2874 12.6194C36.6081 12.085 36.7657 11.4194 36.7657 10.7593H34.7657C34.7657 11.1246 34.6747 11.42 34.5725 11.5903C34.4652 11.769 34.4419 11.6812 34.5714 11.6812V13.6812ZM25.6413 13.6812H34.5714V11.6812H25.6413V13.6812ZM26.6413 21.3123V12.6812H24.6413V21.3123H26.6413ZM34.5714 20.3123H25.6413V22.3123H34.5714V20.3123ZM36.7657 23.2359C36.7657 22.5758 36.6081 21.9101 36.2877 21.3755C35.9726 20.8497 35.399 20.3123 34.5714 20.3123V22.3123C34.441 22.3123 34.4645 22.2239 34.5722 22.4037C34.6746 22.5745 34.7657 22.8706 34.7657 23.2359H36.7657Z" fill="#CBCBBC" mask="url(#path-3-outside-2)"/>
</g>
<g id="path5444">
<path d="M9.69571 2.12918C7.56556 2.54912 5.5243 3.99022 3.92636 6.38636C0.730335 11.1781 0.0775661 18.6298 2.33751 24.4989C4.59738 30.368 9.22412 33.2438 13.5897 31.49C17.9553 29.7358 21 23.7775 21 17V14.5004H10.9981V19.4996H17.0995C16.4779 22.8411 15.0473 25.7229 12.7236 26.6568C9.79994 27.8311 6.73558 25.9297 5.22218 21.9993C3.70879 18.0688 4.14344 13.13 6.28359 9.92099C8.42394 6.71147 11.7108 6.07003 14.332 8.33919L15.999 4.0039C14.042 2.30966 11.8259 1.70875 9.69571 2.12918Z" fill="#FBFBED"/>
<path d="M9.69571 2.12918C7.56556 2.54912 5.5243 3.99022 3.92636 6.38636C0.730335 11.1781 0.0775661 18.6298 2.33751 24.4989C4.59738 30.368 9.22412 33.2438 13.5897 31.49C17.9553 29.7358 21 23.7775 21 17V14.5004H10.9981V19.4996H17.0995C16.4779 22.8411 15.0473 25.7229 12.7236 26.6568C9.79994 27.8311 6.73558 25.9297 5.22218 21.9993C3.70879 18.0688 4.14344 13.13 6.28359 9.92099C8.42394 6.71147 11.7108 6.07003 14.332 8.33919L15.999 4.0039C14.042 2.30966 11.8259 1.70875 9.69571 2.12918Z" fill="url(#paint2_linear)"/>
<path d="M9.69571 2.12918C7.56556 2.54912 5.5243 3.99022 3.92636 6.38636C0.730335 11.1781 0.0775661 18.6298 2.33751 24.4989C4.59738 30.368 9.22412 33.2438 13.5897 31.49C17.9553 29.7358 21 23.7775 21 17V14.5004H10.9981V19.4996H17.0995C16.4779 22.8411 15.0473 25.7229 12.7236 26.6568C9.79994 27.8311 6.73558 25.9297 5.22218 21.9993C3.70879 18.0688 4.14344 13.13 6.28359 9.92099C8.42394 6.71147 11.7108 6.07003 14.332 8.33919L15.999 4.0039C14.042 2.30966 11.8259 1.70875 9.69571 2.12918Z" stroke="#CBCBBC"/>
</g>
</g>
<defs>
<linearGradient id="paint0_linear" x1="56.8428" y1="2.14168" x2="56.8428" y2="11.1865" gradientUnits="userSpaceOnUse">
<stop stop-color="#F1F1DE"/>
<stop offset="1" stop-color="white" stop-opacity="0"/>
</linearGradient>
<linearGradient id="paint1_linear" x1="42.2289" y1="2.46993" x2="42.2289" y2="32.4699" gradientUnits="userSpaceOnUse">
<stop stop-color="#F1F1DE"/>
<stop offset="1" stop-color="white" stop-opacity="0"/>
</linearGradient>
<linearGradient id="paint2_linear" x1="17.0241" y1="2.46993" x2="17.0241" y2="32.4699" gradientUnits="userSpaceOnUse">
<stop stop-color="#F1F1DE"/>
<stop offset="1" stop-color="white" stop-opacity="0"/>
</linearGradient>
</defs>
</svg>
