<?xml version="1.0" encoding="utf-8"?>
<!-- Generator: Adobe Illustrator 21.0.0, SVG Export Plug-In . SVG Version: 6.00 Build 0)  -->
<svg version="1.0" id="Layer_1" xmlns="http://www.w3.org/2000/svg" xmlns:xlink="http://www.w3.org/1999/xlink" x="0px" y="0px"
	 viewBox="0 0 68 34" style="enable-background:new 0 0 68 34;" xml:space="preserve">
<style type="text/css">
	.st0{fill:#FBFBED;}
	.st1{fill:url(#SVGID_1_);}
	.st2{fill:#FFFFFF;filter:url(#Adobe_OpacityMaskFilter);}
	.st3{mask:url(#path-1-outside-1);fill:#CBCBBC;}
	.st4{fill:url(#SVGID_2_);}
	.st5{fill:#FFFFFF;filter:url(#Adobe_OpacityMaskFilter_1_);}
	.st6{mask:url(#path-3-outside-2);fill:#CBCBBC;}
	.st7{fill:url(#SVGID_3_);}
	.st8{fill:none;stroke:#CBCBBC;}
</style>
<g id="Translate-Picture">
	<g id="Union">
		<path class="st0" d="M55.5,2.1C55.6,2,55.8,2,56,2c0.2,0,0.4,0,0.5,0.1c0.2,0.1,0.3,0.2,0.5,0.3c0.1,0.1,0.2,0.3,0.3,0.5
			s0.1,0.4,0.1,0.6V8h8.2c0.2,0,0.4,0,0.5,0.1c0.2,0.1,0.3,0.2,0.5,0.3c0.1,0.1,0.2,0.3,0.3,0.5C67,9.1,67,9.3,67,9.5
			c0,0.2,0,0.4-0.1,0.6c-0.1,0.2-0.2,0.3-0.3,0.5c-0.1,0.1-0.3,0.2-0.5,0.3C66,11,65.8,11,65.6,11h-4.3c-0.4,4.1-1.7,8-3.7,11.4
			c1.9,2.7,4.3,5.1,7.2,6.7c0.2,0.1,0.3,0.2,0.4,0.4c0.1,0.2,0.2,0.3,0.3,0.5c0.1,0.2,0.1,0.4,0.1,0.6s-0.1,0.4-0.2,0.6
			c-0.1,0.2-0.2,0.3-0.3,0.5c-0.1,0.1-0.3,0.2-0.5,0.3s-0.4,0.1-0.5,0c-0.2,0-0.4-0.1-0.5-0.2c-3-1.7-5.5-4.1-7.6-6.8
			c-1.5,2.1-3.4,3.9-5.4,5.4c-0.3,0.2-0.7,0.3-1,0.2c-0.4-0.1-0.7-0.3-0.9-0.6c-0.2-0.3-0.3-0.7-0.2-1.1c0.1-0.4,0.3-0.7,0.6-1
			c2.1-1.5,3.8-3.4,5.3-5.5c-2-3.4-3.3-7.3-3.7-11.4h-4.3c-0.2,0-0.4,0-0.5-0.1c-0.2-0.1-0.3-0.2-0.5-0.3c-0.1-0.1-0.2-0.3-0.3-0.5
			C45,9.9,45,9.7,45,9.5c0-0.2,0-0.4,0.1-0.6c0.1-0.2,0.2-0.3,0.3-0.5s0.3-0.2,0.5-0.3C46,8,46.2,8,46.4,8h8.3V3.5
			c0-0.2,0-0.4,0.1-0.6c0.1-0.2,0.2-0.3,0.3-0.5C55.2,2.3,55.3,2.2,55.5,2.1z M55.7,11h-2.2c0.4,3.1,1.2,6,2.6,8.6
			c1.3-2.6,2.2-5.6,2.6-8.6h-2.2c-0.1,0-0.2,0-0.3,0C55.9,11,55.8,11,55.7,11z"/>
		
			<linearGradient id="SVGID_1_" gradientUnits="userSpaceOnUse" x1="56" y1="33.8583" x2="56" y2="24.8135" gradientTransform="matrix(1 0 0 -1 0 36)">
			<stop  offset="0" style="stop-color:#F1F1DE"/>
			<stop  offset="1" style="stop-color:#FFFFFF;stop-opacity:0"/>
		</linearGradient>
		<path class="st1" d="M55.5,2.1C55.6,2,55.8,2,56,2c0.2,0,0.4,0,0.5,0.1c0.2,0.1,0.3,0.2,0.5,0.3c0.1,0.1,0.2,0.3,0.3,0.5
			s0.1,0.4,0.1,0.6V8h8.2c0.2,0,0.4,0,0.5,0.1c0.2,0.1,0.3,0.2,0.5,0.3c0.1,0.1,0.2,0.3,0.3,0.5C67,9.1,67,9.3,67,9.5
			c0,0.2,0,0.4-0.1,0.6c-0.1,0.2-0.2,0.3-0.3,0.5c-0.1,0.1-0.3,0.2-0.5,0.3C66,11,65.8,11,65.6,11h-4.3c-0.4,4.1-1.7,8-3.7,11.4
			c1.9,2.7,4.3,5.1,7.2,6.7c0.2,0.1,0.3,0.2,0.4,0.4c0.1,0.2,0.2,0.3,0.3,0.5c0.1,0.2,0.1,0.4,0.1,0.6s-0.1,0.4-0.2,0.6
			c-0.1,0.2-0.2,0.3-0.3,0.5c-0.1,0.1-0.3,0.2-0.5,0.3s-0.4,0.1-0.5,0c-0.2,0-0.4-0.1-0.5-0.2c-3-1.7-5.5-4.1-7.6-6.8
			c-1.5,2.1-3.4,3.9-5.4,5.4c-0.3,0.2-0.7,0.3-1,0.2c-0.4-0.1-0.7-0.3-0.9-0.6c-0.2-0.3-0.3-0.7-0.2-1.1c0.1-0.4,0.3-0.7,0.6-1
			c2.1-1.5,3.8-3.4,5.3-5.5c-2-3.4-3.3-7.3-3.7-11.4h-4.3c-0.2,0-0.4,0-0.5-0.1c-0.2-0.1-0.3-0.2-0.5-0.3c-0.1-0.1-0.2-0.3-0.3-0.5
			C45,9.9,45,9.7,45,9.5c0-0.2,0-0.4,0.1-0.6c0.1-0.2,0.2-0.3,0.3-0.5s0.3-0.2,0.5-0.3C46,8,46.2,8,46.4,8h8.3V3.5
			c0-0.2,0-0.4,0.1-0.6c0.1-0.2,0.2-0.3,0.3-0.5C55.2,2.3,55.3,2.2,55.5,2.1z M55.7,11h-2.2c0.4,3.1,1.2,6,2.6,8.6
			c1.3-2.6,2.2-5.6,2.6-8.6h-2.2c-0.1,0-0.2,0-0.3,0C55.9,11,55.8,11,55.7,11z"/>
		<defs>
			<filter id="Adobe_OpacityMaskFilter" filterUnits="userSpaceOnUse" x="44" y="1" width="24" height="32">
				<feColorMatrix  type="matrix" values="1 0 0 0 0  0 1 0 0 0  0 0 1 0 0  0 0 0 1 0"/>
			</filter>
		</defs>
		<mask maskUnits="userSpaceOnUse" x="44" y="1" width="24" height="32" id="path-1-outside-1">
			<rect x="44" y="1" class="st2" width="24" height="33"/>
			<path d="M55.5,2.1C55.6,2,55.8,2,56,2c0.2,0,0.4,0,0.5,0.1c0.2,0.1,0.3,0.2,0.5,0.3c0.1,0.1,0.2,0.3,0.3,0.5s0.1,0.4,0.1,0.6V8
				h8.2c0.2,0,0.4,0,0.5,0.1c0.2,0.1,0.3,0.2,0.5,0.3c0.1,0.1,0.2,0.3,0.3,0.5C67,9.1,67,9.3,67,9.5c0,0.2,0,0.4-0.1,0.6
				c-0.1,0.2-0.2,0.3-0.3,0.5c-0.1,0.1-0.3,0.2-0.5,0.3C66,11,65.8,11,65.6,11h-4.3c-0.4,4.1-1.7,8-3.7,11.4
				c1.9,2.7,4.3,5.1,7.2,6.7c0.2,0.1,0.3,0.2,0.4,0.4c0.1,0.2,0.2,0.3,0.3,0.5c0.1,0.2,0.1,0.4,0.1,0.6s-0.1,0.4-0.2,0.6
				c-0.1,0.2-0.2,0.3-0.3,0.5c-0.1,0.1-0.3,0.2-0.5,0.3s-0.4,0.1-0.5,0c-0.2,0-0.4-0.1-0.5-0.2c-3-1.7-5.5-4.1-7.6-6.8
				c-1.5,2.1-3.4,3.9-5.4,5.4c-0.3,0.2-0.7,0.3-1,0.2c-0.4-0.1-0.7-0.3-0.9-0.6c-0.2-0.3-0.3-0.7-0.2-1.1c0.1-0.4,0.3-0.7,0.6-1
				c2.1-1.5,3.8-3.4,5.3-5.5c-2-3.4-3.3-7.3-3.7-11.4h-4.3c-0.2,0-0.4,0-0.5-0.1c-0.2-0.1-0.3-0.2-0.5-0.3c-0.1-0.1-0.2-0.3-0.3-0.5
				C45,9.9,45,9.7,45,9.5c0-0.2,0-0.4,0.1-0.6c0.1-0.2,0.2-0.3,0.3-0.5s0.3-0.2,0.5-0.3C46,8,46.2,8,46.4,8h8.3V3.5
				c0-0.2,0-0.4,0.1-0.6c0.1-0.2,0.2-0.3,0.3-0.5C55.2,2.3,55.3,2.2,55.5,2.1z M55.7,11h-2.2c0.4,3.1,1.2,6,2.6,8.6
				c1.3-2.6,2.2-5.6,2.6-8.6h-2.2c-0.1,0-0.2,0-0.3,0C55.9,11,55.8,11,55.7,11z"/>
		</mask>
		<path class="st3" d="M56,2l0,1h0L56,2z M55.5,2.1L55,1.2l0,0L55.5,2.1z M56.5,2.1L56.1,3l0,0L56.5,2.1z M57,2.4l-0.7,0.7L57,2.4z
			 M57.3,2.9l-0.9,0.3l0,0L57.3,2.9z M57.4,3.5l-1,0l0,0v0H57.4z M57.4,8h-1v1h1V8z M65.6,8v1h0l0,0L65.6,8z M66.1,8.1L65.7,9l0,0
			L66.1,8.1z M66.6,8.4l-0.7,0.7l0,0L66.6,8.4z M66.9,8.9l0.9-0.4v0L66.9,8.9z M66.9,10.1l0.9,0.4l0,0L66.9,10.1z M66.6,10.6
			l-0.7-0.7l0,0L66.6,10.6z M65.6,11l0-1l0,0h0V11z M61.4,11v-1h-0.9l-0.1,0.9L61.4,11z M57.7,22.4l-0.9-0.5l-0.3,0.5l0.4,0.5
			L57.7,22.4z M64.9,29.2L64.4,30l0,0l0,0L64.9,29.2z M65.3,29.5l0.8-0.6l0,0L65.3,29.5z M65.6,30l1-0.3l0,0L65.6,30z M65.6,30.6
			l-1-0.1v0L65.6,30.6z M65.5,31.2l0.9,0.4l0,0L65.5,31.2z M65.1,31.7l0.7,0.8l0,0L65.1,31.7z M64.6,31.9l0.3,1l0,0L64.6,31.9z
			 M64.1,32l0.1-1L64.1,32z M63.6,31.8l0.5-0.8l0,0l0,0L63.6,31.8z M56,25l0.8-0.6L56,23.3l-0.8,1.1L56,25z M50.6,30.4L50,29.6l0,0
			L50.6,30.4z M49.1,27.9l-0.6-0.8l0,0L49.1,27.9z M54.4,22.4l0.8,0.6l0.4-0.5l-0.3-0.5L54.4,22.4z M50.7,11l1-0.1L51.6,10h-0.9V11z
			 M46.4,11v-1h0l0,0L46.4,11z M45.9,10.9l0.4-0.9l0,0L45.9,10.9z M45.4,10.6l-0.7,0.7l0,0L45.4,10.6z M45.1,10.1L46,9.7L45.1,10.1z
			 M45.1,8.9L46,9.3L45.1,8.9z M45.4,8.4l-0.7-0.7l0,0L45.4,8.4z M45.9,8.1L46.3,9h0L45.9,8.1z M46.4,8l0,1l0,0h0V8z M54.6,8v1h1V8
			H54.6z M54.6,3.5h1v0l0,0L54.6,3.5z M55,2.5l-0.7-0.7l0,0L55,2.5z M55.7,11l0.3-1l-0.1,0h-0.1V11z M53.4,11v-1h-1.1l0.1,1.1
			L53.4,11z M56,19.6l-0.9,0.5l0.9,1.8l0.9-1.8L56,19.6z M58.6,11l1,0.1l0.1-1.1h-1.1V11z M56.3,11v-1h-0.1l-0.1,0L56.3,11z M56,1
			c-0.3,0-0.6,0.1-0.9,0.2L55.9,3c0,0,0.1,0,0.1,0L56,1z M56.9,1.2C56.6,1.1,56.3,1,56,1l0,2c0,0,0.1,0,0.1,0L56.9,1.2z M57.7,1.8
			c-0.2-0.2-0.5-0.4-0.8-0.6L56.1,3c0,0,0.1,0,0.1,0.1L57.7,1.8z M58.2,2.6c-0.1-0.3-0.3-0.6-0.5-0.8l-1.5,1.4c0,0,0.1,0.1,0.1,0.2
			L58.2,2.6z M58.4,3.5c0-0.3,0-0.6-0.2-0.9l-1.9,0.7c0,0.1,0,0.1,0,0.2L58.4,3.5z M58.4,8V3.5h-2V8H58.4z M65.6,7h-8.2v2h8.2V7z
			 M66.5,7.2C66.2,7.1,65.9,7,65.6,7l0,2c0,0,0.1,0,0.1,0L66.5,7.2z M67.3,7.8c-0.2-0.2-0.5-0.4-0.8-0.6L65.7,9c0,0,0.1,0,0.1,0.1
			L67.3,7.8z M67.8,8.6c-0.1-0.3-0.3-0.6-0.5-0.8l-1.5,1.4c0,0,0.1,0.1,0.1,0.2L67.8,8.6z M68,9.5c0-0.3-0.1-0.6-0.2-0.9L66,9.3
			c0,0.1,0,0.1,0,0.2H68z M67.8,10.4c0.1-0.3,0.2-0.6,0.2-0.9h-2c0,0.1,0,0.2,0,0.2L67.8,10.4z M67.3,11.2c0.2-0.2,0.4-0.5,0.5-0.8
			L66,9.7c0,0.1-0.1,0.1-0.1,0.2L67.3,11.2z M66.5,11.8c0.3-0.1,0.6-0.3,0.8-0.6l-1.5-1.4c0,0-0.1,0.1-0.1,0.1L66.5,11.8z M65.6,12
			c0.3,0,0.7-0.1,0.9-0.2L65.7,10c0,0-0.1,0-0.1,0L65.6,12z M61.4,12h4.3v-2h-4.3V12z M58.5,22.9c2.1-3.5,3.4-7.6,3.8-11.8l-2-0.2
			c-0.4,4-1.6,7.7-3.5,11L58.5,22.9z M65.4,28.3c-2.7-1.6-5.1-3.8-6.9-6.4L56.9,23c2,2.9,4.5,5.3,7.5,7L65.4,28.3z M66.1,28.9
			c-0.2-0.3-0.5-0.5-0.7-0.6l-1,1.8c0,0,0.1,0.1,0.1,0.1L66.1,28.9z M66.5,29.8c-0.1-0.3-0.2-0.6-0.4-0.9l-1.6,1.2
			c0,0,0.1,0.1,0.1,0.2L66.5,29.8z M66.6,30.7c0-0.3,0-0.6-0.1-1l-1.9,0.6c0,0.1,0,0.2,0,0.2L66.6,30.7z M66.4,31.7
			c0.1-0.3,0.2-0.6,0.3-0.9l-2-0.2c0,0.1,0,0.2-0.1,0.2L66.4,31.7z M65.8,32.4c0.2-0.2,0.4-0.5,0.6-0.8l-1.8-0.9
			c0,0.1-0.1,0.1-0.1,0.1L65.8,32.4z M64.9,32.9c0.3-0.1,0.6-0.3,0.8-0.5l-1.3-1.5c0,0-0.1,0.1-0.1,0.1L64.9,32.9z M64,33
			c0.3,0,0.7,0,1-0.1L64.3,31c0,0-0.1,0-0.1,0L64,33z M63,32.6c0.3,0.2,0.6,0.3,0.9,0.3l0.3-2c0,0-0.1,0-0.1,0L63,32.6z M55.2,25.6
			c2.1,2.9,4.8,5.3,7.9,7.1l1-1.7c-2.8-1.7-5.3-3.9-7.3-6.6L55.2,25.6z M51.2,31.2c2.2-1.6,4-3.5,5.6-5.6l-1.6-1.2
			c-1.5,2-3.2,3.8-5.2,5.2L51.2,31.2z M49.4,31.6c0.6,0.1,1.3,0,1.8-0.4L50,29.6c-0.1,0.1-0.2,0.1-0.2,0.1L49.4,31.6z M47.8,30.5
			c0.3,0.5,0.9,1,1.5,1.1l0.4-2c-0.1,0-0.2-0.1-0.2-0.2L47.8,30.5z M47.5,28.7c-0.1,0.6,0,1.3,0.3,1.8l1.7-1
			c-0.1-0.1-0.1-0.3-0.1-0.4L47.5,28.7z M48.5,27.1c-0.5,0.4-0.9,1-1,1.6l2,0.4c0-0.2,0.1-0.3,0.2-0.3L48.5,27.1z M53.5,21.9
			c-1.4,2-3.1,3.8-5.1,5.2l1.2,1.6c2.2-1.6,4-3.5,5.5-5.7L53.5,21.9z M49.7,11.1c0.4,4.3,1.8,8.3,3.8,11.8l1.7-1
			c-1.9-3.3-3.1-7.1-3.5-11L49.7,11.1z M46.4,12h4.3v-2h-4.3V12z M45.5,11.8c0.3,0.1,0.6,0.2,0.9,0.2l0-2c0,0-0.1,0-0.1,0L45.5,11.8
			z M44.7,11.2c0.2,0.2,0.5,0.4,0.8,0.6l0.8-1.8c0,0-0.1,0-0.1-0.1L44.7,11.2z M44.2,10.4c0.1,0.3,0.3,0.6,0.5,0.8l1.5-1.4
			c0,0-0.1-0.1-0.1-0.2L44.2,10.4z M44,9.5c0,0.3,0.1,0.6,0.2,0.9L46,9.7c0-0.1,0-0.1,0-0.2H44z M44.2,8.6C44.1,8.9,44,9.2,44,9.5h2
			c0-0.1,0-0.2,0-0.2L44.2,8.6z M44.7,7.8c-0.2,0.2-0.4,0.5-0.5,0.8L46,9.3c0-0.1,0.1-0.1,0.1-0.2L44.7,7.8z M45.5,7.2
			c-0.3,0.1-0.6,0.3-0.8,0.6l1.5,1.4c0,0,0.1-0.1,0.1-0.1L45.5,7.2z M46.4,7c-0.3,0-0.7,0.1-0.9,0.2L46.3,9c0,0,0.1,0,0.1,0L46.4,7z
			 M54.6,7h-8.3v2h8.3V7z M53.6,3.5V8h2V3.5H53.6z M53.8,2.6c-0.1,0.3-0.2,0.6-0.2,0.9l2,0c0-0.1,0-0.2,0-0.2L53.8,2.6z M54.3,1.8
			c-0.2,0.2-0.4,0.5-0.5,0.8l1.9,0.7c0-0.1,0.1-0.1,0.1-0.2L54.3,1.8z M55,1.2c-0.3,0.1-0.5,0.3-0.8,0.6l1.5,1.3
			c0,0,0.1-0.1,0.1-0.1L55,1.2z M55.7,10h-2.2v2h2.2V10z M52.4,11.1c0.4,3.2,1.3,6.2,2.7,9l1.8-0.9c-1.3-2.5-2.1-5.3-2.5-8.3
			L52.4,11.1z M56.9,20.1c1.4-2.7,2.3-5.8,2.7-9l-2-0.2c-0.3,2.9-1.2,5.7-2.5,8.3L56.9,20.1z M58.6,10h-2.2v2h2.2V10z M56,12
			c0.2,0,0.4,0,0.6-0.1L56.1,10c0,0,0,0-0.1,0V12z M55.4,12C55.6,12,55.8,12,56,12v-2c0,0,0,0-0.1,0L55.4,12z"/>
	</g>
	<g id="Subtract">
		<path class="st0" d="M35.4,2.4l11.2,13.1c0.3,0.4,0.5,0.9,0.5,1.5c0,0.6-0.2,1.1-0.5,1.5L35.4,31.6c-0.2,0.3-0.5,0.4-0.8,0.4
			c-0.2,0-0.4-0.1-0.6-0.2c-0.4-0.3-0.7-1-0.7-1.7v-4.9h-8.9c-0.7,0-1.3-0.9-1.3-2V10.8c0-1,0.6-2,1.3-2h8.9V3.9
			c0-0.7,0.3-1.4,0.7-1.7C34.4,1.9,35,2,35.4,2.4z M35.8,23.2v3l7.9-9.3l-7.9-9.3v3c0,1-0.5,1.9-1.2,1.9h-8.9v8.6h8.9
			C35.3,21.3,35.8,22.2,35.8,23.2z"/>
		
			<linearGradient id="SVGID_2_" gradientUnits="userSpaceOnUse" x1="35" y1="33.5301" x2="35" y2="3.5301" gradientTransform="matrix(1 0 0 -1 0 36)">
			<stop  offset="0" style="stop-color:#F1F1DE"/>
			<stop  offset="1" style="stop-color:#FFFFFF;stop-opacity:0"/>
		</linearGradient>
		<path class="st4" d="M35.4,2.4l11.2,13.1c0.3,0.4,0.5,0.9,0.5,1.5c0,0.6-0.2,1.1-0.5,1.5L35.4,31.6c-0.2,0.3-0.5,0.4-0.8,0.4
			c-0.2,0-0.4-0.1-0.6-0.2c-0.4-0.3-0.7-1-0.7-1.7v-4.9h-8.9c-0.7,0-1.3-0.9-1.3-2V10.8c0-1,0.6-2,1.3-2h8.9V3.9
			c0-0.7,0.3-1.4,0.7-1.7C34.4,1.9,35,2,35.4,2.4z M35.8,23.2v3l7.9-9.3l-7.9-9.3v3c0,1-0.5,1.9-1.2,1.9h-8.9v8.6h8.9
			C35.3,21.3,35.8,22.2,35.8,23.2z"/>
		<defs>
			<filter id="Adobe_OpacityMaskFilter_1_" filterUnits="userSpaceOnUse" x="22" y="1" width="26" height="32">
				<feColorMatrix  type="matrix" values="1 0 0 0 0  0 1 0 0 0  0 0 1 0 0  0 0 0 1 0"/>
			</filter>
		</defs>
		<mask maskUnits="userSpaceOnUse" x="22" y="1" width="26" height="32" id="path-3-outside-2">
			<rect x="22" class="st5" width="26" height="33"/>
			<path d="M35.4,2.4l11.2,13.1c0.3,0.4,0.5,0.9,0.5,1.5c0,0.6-0.2,1.1-0.5,1.5L35.4,31.6c-0.2,0.3-0.5,0.4-0.8,0.4
				c-0.2,0-0.4-0.1-0.6-0.2c-0.4-0.3-0.7-1-0.7-1.7v-4.9h-8.9c-0.7,0-1.3-0.9-1.3-2V10.8c0-1,0.6-2,1.3-2h8.9V3.9
				c0-0.7,0.3-1.4,0.7-1.7C34.4,1.9,35,2,35.4,2.4z M35.8,23.2v3l7.9-9.3l-7.9-9.3v3c0,1-0.5,1.9-1.2,1.9h-8.9v8.6h8.9
				C35.3,21.3,35.8,22.2,35.8,23.2z"/>
		</mask>
		<path class="st6" d="M46.5,15.5l-0.8,0.6l0,0L46.5,15.5z M35.4,2.4L34.6,3l0,0L35.4,2.4z M47,17h1l0,0H47z M46.5,18.5l-0.8-0.6
			l0,0L46.5,18.5z M35.4,31.6l-0.8-0.6l0,0L35.4,31.6z M34,31.8l-0.6,0.8l0,0L34,31.8z M33.3,25.2h1v-1h-1V25.2z M33.3,8.8v1h1v-1
			H33.3z M34,2.2L34.6,3l0,0L34,2.2z M35.8,26.3h-1V29l1.8-2.1L35.8,26.3z M43.6,17l0.8,0.6L45,17l-0.6-0.6L43.6,17z M35.8,7.7
			l0.8-0.6L34.8,5v2.7H35.8z M25.6,12.7v-1h-1v1H25.6z M25.6,21.3h-1v1h1V21.3z M47.3,14.9L36.1,1.8l-1.5,1.3l11.2,13.1L47.3,14.9z
			 M48,17c0-0.7-0.2-1.5-0.7-2.1l-1.5,1.3c0.1,0.1,0.2,0.4,0.2,0.8L48,17z M47.3,19.1c0.5-0.6,0.7-1.3,0.7-2.1h-2
			c0,0.4-0.1,0.7-0.2,0.8L47.3,19.1z M36.1,32.2l11.2-13.1l-1.5-1.3L34.6,30.9L36.1,32.2z M34.6,33c0.6,0,1.2-0.3,1.6-0.8l-1.5-1.3
			c0,0-0.1,0.1-0.1,0.1c0,0,0,0,0,0V33z M33.4,32.6c0.3,0.2,0.7,0.4,1.1,0.4v-2c0,0,0,0,0,0c0,0,0,0,0,0L33.4,32.6z M32.3,30.1
			c0,0.9,0.4,1.9,1.2,2.5l1.2-1.6c-0.1-0.1-0.3-0.4-0.3-0.9H32.3z M32.3,25.2v4.9h2v-4.9H32.3z M24.3,26.2h8.9v-2h-8.9V26.2z
			 M22,23.2c0,0.7,0.2,1.4,0.6,1.9c0.3,0.5,0.9,1,1.8,1v-2c0.1,0,0,0.1-0.1-0.2c-0.1-0.2-0.2-0.5-0.2-0.8H22z M22,10.8v12.5h2V10.8
			H22z M24.3,7.8c-0.8,0-1.4,0.5-1.8,1c-0.4,0.5-0.6,1.2-0.6,1.9h2c0-0.3,0.1-0.6,0.2-0.8c0.1-0.2,0.2-0.2,0.1-0.2V7.8z M33.3,7.8
			h-8.9v2h8.9V7.8z M32.3,3.9v4.9h2V3.9H32.3z M33.4,1.4c-0.8,0.5-1.2,1.6-1.2,2.5h2c0-0.5,0.2-0.8,0.3-0.9L33.4,1.4z M36.1,1.8
			c-0.7-0.8-1.8-1-2.7-0.4L34.6,3c0,0,0,0,0,0c0,0,0,0,0,0c0,0,0,0,0,0c0,0,0,0,0.1,0L36.1,1.8z M36.8,26.3v-3h-2v3H36.8z
			 M42.9,16.4L35,25.6l1.5,1.3l7.9-9.3L42.9,16.4z M35,8.4l7.9,9.3l1.5-1.3l-7.9-9.3L35,8.4z M36.8,10.8v-3h-2v3H36.8z M34.6,13.7
			c0.8,0,1.4-0.5,1.7-1.1c0.3-0.5,0.5-1.2,0.5-1.9h-2c0,0.4-0.1,0.7-0.2,0.8c-0.1,0.2-0.1,0.1,0,0.1V13.7z M25.6,13.7h8.9v-2h-8.9
			V13.7z M26.6,21.3v-8.6h-2v8.6H26.6z M34.6,20.3h-8.9v2h8.9V20.3z M36.8,23.2c0-0.7-0.2-1.3-0.5-1.9c-0.3-0.5-0.9-1.1-1.7-1.1v2
			c-0.1,0-0.1-0.1,0,0.1c0.1,0.2,0.2,0.5,0.2,0.8H36.8z"/>
	</g>
	<g id="path5444">
		<path class="st0" d="M9.7,2.1C7.6,2.5,5.5,4,3.9,6.4c-3.2,4.8-3.8,12.2-1.6,18.1c2.3,5.9,6.9,8.7,11.3,7C18,29.7,21,23.8,21,17
			v-2.5H11v5h6.1c-0.6,3.3-2.1,6.2-4.4,7.2c-2.9,1.2-6-0.7-7.5-4.7c-1.5-3.9-1.1-8.9,1.1-12.1c2.1-3.2,5.4-3.9,8-1.6L16,4
			C14,2.3,11.8,1.7,9.7,2.1z"/>
		
			<linearGradient id="SVGID_3_" gradientUnits="userSpaceOnUse" x1="11" y1="33.5301" x2="11" y2="3.5301" gradientTransform="matrix(1 0 0 -1 0 36)">
			<stop  offset="0" style="stop-color:#F1F1DE"/>
			<stop  offset="1" style="stop-color:#FFFFFF;stop-opacity:0"/>
		</linearGradient>
		<path class="st7" d="M9.7,2.1C7.6,2.5,5.5,4,3.9,6.4c-3.2,4.8-3.8,12.2-1.6,18.1c2.3,5.9,6.9,8.7,11.3,7C18,29.7,21,23.8,21,17
			v-2.5H11v5h6.1c-0.6,3.3-2.1,6.2-4.4,7.2c-2.9,1.2-6-0.7-7.5-4.7c-1.5-3.9-1.1-8.9,1.1-12.1c2.1-3.2,5.4-3.9,8-1.6L16,4
			C14,2.3,11.8,1.7,9.7,2.1z"/>
		<path class="st8" d="M9.7,2.1C7.6,2.5,5.5,4,3.9,6.4c-3.2,4.8-3.8,12.2-1.6,18.1c2.3,5.9,6.9,8.7,11.3,7C18,29.7,21,23.8,21,17
			v-2.5H11v5h6.1c-0.6,3.3-2.1,6.2-4.4,7.2c-2.9,1.2-6-0.7-7.5-4.7c-1.5-3.9-1.1-8.9,1.1-12.1c2.1-3.2,5.4-3.9,8-1.6L16,4
			C14,2.3,11.8,1.7,9.7,2.1z"/>
	</g>
</g>
</svg>
