<?xml version="1.0" encoding="utf-8"?>
<!-- Generator: Adobe Illustrator 21.0.0, SVG Export Plug-In . SVG Version: 6.00 Build 0)  -->
<svg version="1.1" id="Layer_1" xmlns="http://www.w3.org/2000/svg" x="0px" y="0px" viewBox="0 0 68 34" style="enable-background:new 0 0 68 34;" xml:space="preserve">
<style type="text/css">
	.st0{fill:#CBCBBC;}
	.st1{fill:#FBFBED;}
	.st2{fill:url(#SVGID_1_);}
	.st3{fill:url(#SVGID_2_);}
	.st4{fill:url(#SVGID_3_);}
	.st5{fill:none;stroke:#CBCBBC;}
</style>
<g id="Translate-Picture">
	<g id="Union">
		<path class="st0" d="M64.3,33c-0.1,0-0.2,0-0.3,0c-0.3,0-0.6-0.2-0.9-0.3c-2.7-1.5-5-3.6-7-6c-1.4,1.8-3,3.3-4.8,4.6
			c-0.4,0.3-0.9,0.5-1.4,0.5c-0.2,0-0.3,0-0.5,0c-0.6-0.1-1.2-0.5-1.5-1.1c-0.3-0.5-0.5-1.2-0.3-1.8c0.1-0.6,0.5-1.2,1-1.6
			c1.8-1.3,3.4-2.9,4.7-4.7c-1.7-3.2-2.9-6.7-3.4-10.4h-3.4c-0.3,0-0.6-0.1-0.9-0.2c-0.3-0.1-0.6-0.3-0.8-0.6
			c-0.2-0.2-0.4-0.5-0.5-0.8C44.1,10.1,44,9.8,44,9.5s0.1-0.6,0.2-0.9c0.1-0.3,0.3-0.6,0.5-0.8c0.2-0.2,0.5-0.4,0.8-0.6
			C45.7,7.1,46.1,7,46.4,7h7.3V3.5c0-0.3,0-0.6,0.2-0.9c0.1-0.3,0.3-0.6,0.5-0.8c0.2-0.2,0.5-0.4,0.8-0.6C55.3,1.1,55.7,1,56,1
			c0,0,0,0,0,0c0.4,0,0.7,0.1,1,0.2c0.3,0.1,0.6,0.3,0.8,0.6c0.2,0.2,0.4,0.5,0.5,0.8c0.1,0.3,0.2,0.6,0.2,0.9V7h7.2
			c0.3,0,0.6,0.1,0.9,0.2c0.3,0.1,0.6,0.3,0.8,0.6c0.2,0.2,0.4,0.5,0.5,0.8C67.9,8.9,68,9.2,68,9.5s-0.1,0.6-0.2,0.9
			c-0.1,0.3-0.3,0.6-0.5,0.8c-0.2,0.2-0.5,0.4-0.8,0.6c-0.3,0.1-0.6,0.2-0.9,0.2h-3.4c-0.5,3.6-1.6,7.2-3.4,10.4
			c1.8,2.5,4,4.4,6.5,5.9c0.3,0.1,0.5,0.4,0.7,0.6c0.2,0.3,0.3,0.5,0.4,0.9c0.1,0.3,0.1,0.6,0.1,1c0,0.3-0.1,0.6-0.3,0.9
			c-0.1,0.3-0.3,0.6-0.6,0.8c-0.2,0.2-0.5,0.4-0.8,0.5C64.7,33,64.5,33,64.3,33z M54.6,12c0.3,1.8,0.8,3.5,1.4,5.2
			c0.7-1.7,1.1-3.4,1.4-5.2h-1c-0.1,0-0.3,0-0.4,0s-0.3,0-0.4,0H54.6z"/>
		<path class="st1" d="M55.5,2.1C55.6,2,55.8,2,56,2c0.2,0,0.4,0,0.5,0.1c0.2,0.1,0.3,0.2,0.5,0.3c0.1,0.1,0.2,0.3,0.3,0.5
			s0.1,0.4,0.1,0.6V8h8.2c0.2,0,0.4,0,0.5,0.1c0.2,0.1,0.3,0.2,0.5,0.3c0.1,0.1,0.2,0.3,0.3,0.5C67,9.1,67,9.3,67,9.5
			c0,0.2,0,0.4-0.1,0.6c-0.1,0.2-0.2,0.3-0.3,0.5c-0.1,0.1-0.3,0.2-0.5,0.3C66,11,65.8,11,65.6,11h-4.3c-0.4,4.1-1.7,8-3.7,11.4
			c1.9,2.7,4.3,5.1,7.2,6.7c0.2,0.1,0.3,0.2,0.4,0.4c0.1,0.2,0.2,0.3,0.3,0.5c0.1,0.2,0.1,0.4,0.1,0.6s-0.1,0.4-0.2,0.6
			c-0.1,0.2-0.2,0.3-0.3,0.5c-0.1,0.1-0.3,0.2-0.5,0.3s-0.4,0.1-0.5,0c-0.2,0-0.4-0.1-0.5-0.2c-3-1.7-5.5-4.1-7.6-6.8
			c-1.5,2.1-3.4,3.9-5.4,5.4c-0.3,0.2-0.7,0.3-1,0.2c-0.4-0.1-0.7-0.3-0.9-0.6c-0.2-0.3-0.3-0.7-0.2-1.1c0.1-0.4,0.3-0.7,0.6-1
			c2.1-1.5,3.8-3.4,5.3-5.5c-2-3.4-3.3-7.3-3.7-11.4h-4.3c-0.2,0-0.4,0-0.5-0.1c-0.2-0.1-0.3-0.2-0.5-0.3c-0.1-0.1-0.2-0.3-0.3-0.5
			C45,9.9,45,9.7,45,9.5c0-0.2,0-0.4,0.1-0.6c0.1-0.2,0.2-0.3,0.3-0.5s0.3-0.2,0.5-0.3C46,8,46.2,8,46.4,8h8.3V3.5
			c0-0.2,0-0.4,0.1-0.6c0.1-0.2,0.2-0.3,0.3-0.5C55.2,2.3,55.3,2.2,55.5,2.1z M55.7,11h-2.2c0.4,3.1,1.2,6,2.6,8.6
			c1.3-2.6,2.2-5.6,2.6-8.6h-2.2c-0.1,0-0.2,0-0.3,0C55.9,11,55.8,11,55.7,11z"/>
		
			<linearGradient id="SVGID_1_" gradientUnits="userSpaceOnUse" x1="56" y1="33.8583" x2="56" y2="24.8135" gradientTransform="matrix(1 0 0 -1 0 36)">
			<stop  offset="0" style="stop-color:#F1F1DE"/>
			<stop  offset="1" style="stop-color:#FFFFFF;stop-opacity:0"/>
		</linearGradient>
		<path class="st2" d="M55.5,2.1C55.6,2,55.8,2,56,2c0.2,0,0.4,0,0.5,0.1c0.2,0.1,0.3,0.2,0.5,0.3c0.1,0.1,0.2,0.3,0.3,0.5
			s0.1,0.4,0.1,0.6V8h8.2c0.2,0,0.4,0,0.5,0.1c0.2,0.1,0.3,0.2,0.5,0.3c0.1,0.1,0.2,0.3,0.3,0.5C67,9.1,67,9.3,67,9.5
			c0,0.2,0,0.4-0.1,0.6c-0.1,0.2-0.2,0.3-0.3,0.5c-0.1,0.1-0.3,0.2-0.5,0.3C66,11,65.8,11,65.6,11h-4.3c-0.4,4.1-1.7,8-3.7,11.4
			c1.9,2.7,4.3,5.1,7.2,6.7c0.2,0.1,0.3,0.2,0.4,0.4c0.1,0.2,0.2,0.3,0.3,0.5c0.1,0.2,0.1,0.4,0.1,0.6s-0.1,0.4-0.2,0.6
			c-0.1,0.2-0.2,0.3-0.3,0.5c-0.1,0.1-0.3,0.2-0.5,0.3s-0.4,0.1-0.5,0c-0.2,0-0.4-0.1-0.5-0.2c-3-1.7-5.5-4.1-7.6-6.8
			c-1.5,2.1-3.4,3.9-5.4,5.4c-0.3,0.2-0.7,0.3-1,0.2c-0.4-0.1-0.7-0.3-0.9-0.6c-0.2-0.3-0.3-0.7-0.2-1.1c0.1-0.4,0.3-0.7,0.6-1
			c2.1-1.5,3.8-3.4,5.3-5.5c-2-3.4-3.3-7.3-3.7-11.4h-4.3c-0.2,0-0.4,0-0.5-0.1c-0.2-0.1-0.3-0.2-0.5-0.3c-0.1-0.1-0.2-0.3-0.3-0.5
			C45,9.9,45,9.7,45,9.5c0-0.2,0-0.4,0.1-0.6c0.1-0.2,0.2-0.3,0.3-0.5s0.3-0.2,0.5-0.3C46,8,46.2,8,46.4,8h8.3V3.5
			c0-0.2,0-0.4,0.1-0.6c0.1-0.2,0.2-0.3,0.3-0.5C55.2,2.3,55.3,2.2,55.5,2.1z M55.7,11h-2.2c0.4,3.1,1.2,6,2.6,8.6
			c1.3-2.6,2.2-5.6,2.6-8.6h-2.2c-0.1,0-0.2,0-0.3,0C55.9,11,55.8,11,55.7,11z"/>
	</g>
	<g id="Subtract">
		<path class="st0" d="M34.6,33c-0.4,0-0.8-0.1-1.1-0.4c-0.7-0.5-1.2-1.5-1.2-2.5v-3.9h-7.9c-1.3,0-2.3-1.4-2.3-3V10.8
			c0-1.6,1.1-3,2.3-3h7.9V3.9c0-1,0.4-2,1.2-2.5C33.8,1.1,34.1,1,34.6,1c0.6,0,1.2,0.3,1.6,0.8l11.2,13.1c0.5,0.5,0.7,1.3,0.7,2.1
			c0,0.8-0.3,1.6-0.7,2.1L36.1,32.2C35.7,32.7,35.1,33,34.6,33z M34.6,20.3c1.3,0,2.2,1.3,2.2,2.9v0.3l5.6-6.5l-5.6-6.6v0.3
			c0,1.7-0.9,2.9-2.2,2.9h-7.9v6.6H34.6z"/>
		<path class="st1" d="M35.4,2.4l11.2,13.1c0.3,0.4,0.5,0.9,0.5,1.5c0,0.6-0.2,1.1-0.5,1.5L35.4,31.6c-0.2,0.3-0.5,0.4-0.8,0.4
			c-0.2,0-0.4-0.1-0.6-0.2c-0.4-0.3-0.7-1-0.7-1.7v-4.9h-8.9c-0.7,0-1.3-0.9-1.3-2V10.8c0-1,0.6-2,1.3-2h8.9V3.9
			c0-0.7,0.3-1.4,0.7-1.7C34.4,1.9,35,2,35.4,2.4z M35.8,23.2v3l7.9-9.3l-7.9-9.3v3c0,1-0.5,1.9-1.2,1.9h-8.9v8.6h8.9
			C35.3,21.3,35.8,22.2,35.8,23.2z"/>
		
			<linearGradient id="SVGID_2_" gradientUnits="userSpaceOnUse" x1="35" y1="33.5301" x2="35" y2="3.5301" gradientTransform="matrix(1 0 0 -1 0 36)">
			<stop  offset="0" style="stop-color:#F1F1DE"/>
			<stop  offset="1" style="stop-color:#FFFFFF;stop-opacity:0"/>
		</linearGradient>
		<path class="st3" d="M35.4,2.4l11.2,13.1c0.3,0.4,0.5,0.9,0.5,1.5c0,0.6-0.2,1.1-0.5,1.5L35.4,31.6c-0.2,0.3-0.5,0.4-0.8,0.4
			c-0.2,0-0.4-0.1-0.6-0.2c-0.4-0.3-0.7-1-0.7-1.7v-4.9h-8.9c-0.7,0-1.3-0.9-1.3-2V10.8c0-1,0.6-2,1.3-2h8.9V3.9
			c0-0.7,0.3-1.4,0.7-1.7C34.4,1.9,35,2,35.4,2.4z M35.8,23.2v3l7.9-9.3l-7.9-9.3v3c0,1-0.5,1.9-1.2,1.9h-8.9v8.6h8.9
			C35.3,21.3,35.8,22.2,35.8,23.2z"/>
	</g>
	<g id="path5444">
		<path class="st1" d="M9.7,2.1C7.6,2.5,5.5,4,3.9,6.4c-3.2,4.8-3.8,12.2-1.6,18.1c2.3,5.9,6.9,8.7,11.3,7C18,29.7,21,23.8,21,17
			v-2.5H11v5h6.1c-0.6,3.3-2.1,6.2-4.4,7.2c-2.9,1.2-6-0.7-7.5-4.7c-1.5-3.9-1.1-8.9,1.1-12.1c2.1-3.2,5.4-3.9,8-1.6L16,4
			C14,2.3,11.8,1.7,9.7,2.1z"/>
		
			<linearGradient id="SVGID_3_" gradientUnits="userSpaceOnUse" x1="11" y1="33.5301" x2="11" y2="3.5301" gradientTransform="matrix(1 0 0 -1 0 36)">
			<stop  offset="0" style="stop-color:#F1F1DE"/>
			<stop  offset="1" style="stop-color:#FFFFFF;stop-opacity:0"/>
		</linearGradient>
		<path class="st4" d="M9.7,2.1C7.6,2.5,5.5,4,3.9,6.4c-3.2,4.8-3.8,12.2-1.6,18.1c2.3,5.9,6.9,8.7,11.3,7C18,29.7,21,23.8,21,17
			v-2.5H11v5h6.1c-0.6,3.3-2.1,6.2-4.4,7.2c-2.9,1.2-6-0.7-7.5-4.7c-1.5-3.9-1.1-8.9,1.1-12.1c2.1-3.2,5.4-3.9,8-1.6L16,4
			C14,2.3,11.8,1.7,9.7,2.1z"/>
		<path class="st5" d="M9.7,2.1C7.6,2.5,5.5,4,3.9,6.4c-3.2,4.8-3.8,12.2-1.6,18.1c2.3,5.9,6.9,8.7,11.3,7C18,29.7,21,23.8,21,17
			v-2.5H11v5h6.1c-0.6,3.3-2.1,6.2-4.4,7.2c-2.9,1.2-6-0.7-7.5-4.7c-1.5-3.9-1.1-8.9,1.1-12.1c2.1-3.2,5.4-3.9,8-1.6L16,4
			C14,2.3,11.8,1.7,9.7,2.1z"/>
	</g>
</g>
</svg>
