<svg width="54" height="34" viewBox="0 0 54 34" fill="none" xmlns="http://www.w3.org/2000/svg">
<path d="M34.893 26.294L38.8412 30.2788L52.0001 16.9999L38.8412 3.71924L34.893 7.70578L44.1072 16.9999L34.893 26.294Z" fill="#FBFBED"/>
<path d="M34.893 26.294L38.8412 30.2788L52.0001 16.9999L38.8412 3.71924L34.893 7.70578L44.1072 16.9999L34.893 26.294Z" fill="url(#paint0_linear)"/>
<path d="M34.893 26.294L38.8412 30.2788L52.0001 16.9999L38.8412 3.71924L34.893 7.70578L44.1072 16.9999L34.893 26.294Z" stroke="#CBCBBC" stroke-width="1.5"/>
<path d="M19.1071 7.70578L15.1589 3.71924L2 16.9999L15.1589 30.2806L19.1071 26.2958L9.89286 16.9999L19.1071 7.70578Z" fill="#FBFBED"/>
<path d="M19.1071 7.70578L15.1589 3.71924L2 16.9999L15.1589 30.2806L19.1071 26.2958L9.89286 16.9999L19.1071 7.70578Z" fill="url(#paint1_linear)"/>
<path d="M19.1071 7.70578L15.1589 3.71924L2 16.9999L15.1589 30.2806L19.1071 26.2958L9.89286 16.9999L19.1071 7.70578Z" stroke="#CBCBBC" stroke-width="1.5"/>
<path d="M29.7189 1.27697L28.9922 1.07665L28.7956 1.80437L20.9027 31.0168L20.7081 31.7372L21.4275 31.9355L24.2846 32.723L25.0113 32.9234L25.208 32.1956L33.1008 2.9832L33.2954 2.26284L32.5761 2.06454L29.7189 1.27697Z" fill="#FBFBED"/>
<path d="M29.7189 1.27697L28.9922 1.07665L28.7956 1.80437L20.9027 31.0168L20.7081 31.7372L21.4275 31.9355L24.2846 32.723L25.0113 32.9234L25.208 32.1956L33.1008 2.9832L33.2954 2.26284L32.5761 2.06454L29.7189 1.27697Z" fill="url(#paint2_linear)"/>
<path d="M29.7189 1.27697L28.9922 1.07665L28.7956 1.80437L20.9027 31.0168L20.7081 31.7372L21.4275 31.9355L24.2846 32.723L25.0113 32.9234L25.208 32.1956L33.1008 2.9832L33.2954 2.26284L32.5761 2.06454L29.7189 1.27697Z" stroke="#CBCBBC" stroke-width="1.5"/>
<defs>
<linearGradient id="paint0_linear" x1="48.5993" y1="4.13528" x2="48.5993" y2="30.6948" gradientUnits="userSpaceOnUse">
<stop stop-color="#F1F1DE"/>
<stop offset="1" stop-color="white" stop-opacity="0"/>
</linearGradient>
<linearGradient id="paint1_linear" x1="15.7063" y1="4.13531" x2="15.7063" y2="30.6966" gradientUnits="userSpaceOnUse">
<stop stop-color="#F1F1DE"/>
<stop offset="1" stop-color="white" stop-opacity="0"/>
</linearGradient>
<linearGradient id="paint2_linear" x1="30.2397" y1="2.46993" x2="30.2397" y2="32.4699" gradientUnits="userSpaceOnUse">
<stop stop-color="#F1F1DE"/>
<stop offset="1" stop-color="white" stop-opacity="0"/>
</linearGradient>
</defs>
</svg>
